<svg width="23" height="23" viewBox="0 0 23 23" fill="none" xmlns="http://www.w3.org/2000/svg">
<g clip-path="url(#clip0_1_1456)">
<path d="M3.36921 19.6305C2.27085 18.5696 1.39475 17.3007 0.792047 15.8976C0.189343 14.4946 -0.127898 12.9855 -0.141167 11.4586C-0.154436 9.93161 0.136533 8.41729 0.714763 7.00399C1.29299 5.59068 2.1469 4.30668 3.22667 3.22691C4.30644 2.14715 5.59043 1.29324 7.00374 0.715008C8.41705 0.136777 9.93136 -0.154192 11.4583 -0.140923C12.9853 -0.127654 14.4943 0.189587 15.8974 0.792291C17.3004 1.39499 18.5694 2.27109 19.6302 3.36946C21.725 5.53838 22.8842 8.44331 22.858 11.4586C22.8318 14.4738 21.6223 17.3582 19.4901 19.4904C17.3579 21.6226 14.4736 22.832 11.4583 22.8582C8.44306 22.8844 5.53814 21.7253 3.36921 19.6305ZM18.0087 18.009C19.735 16.2827 20.7048 13.9413 20.7048 11.5C20.7048 9.05861 19.735 6.71725 18.0087 4.99096C16.2824 3.26466 13.9411 2.29484 11.4997 2.29484C9.05836 2.29484 6.71701 3.26466 4.99071 4.99096C3.26442 6.71725 2.2946 9.05861 2.2946 11.5C2.2946 13.9413 3.26442 16.2827 4.99071 18.009C6.71701 19.7353 9.05836 20.7051 11.4997 20.7051C13.9411 20.7051 16.2824 19.7353 18.0087 18.009ZM10.3497 5.74996H12.6497V12.65H10.3497V5.74996ZM10.3497 14.95H12.6497V17.25H10.3497V14.95Z" fill="black" fill-opacity="0.46"/>
</g>
<defs>
<clipPath id="clip0_1_1456">
<rect width="23" height="23" fill="white"/>
</clipPath>
</defs>
</svg>
