<svg width="337" height="168" viewBox="0 0 337 168" fill="none" xmlns="http://www.w3.org/2000/svg">
<path d="M334.51 166.858C334.51 122.605 316.93 80.1637 285.638 48.8717C254.346 17.5797 211.905 3.38044e-06 167.651 3.93857e-08C123.398 -3.30167e-06 80.9568 17.5797 49.6648 48.8717C18.3727 80.1637 0.793063 122.605 0.793056 166.858H42.5076C42.5077 133.668 55.6924 101.837 79.1614 78.3683C102.63 54.8993 134.461 41.7146 167.651 41.7146C200.842 41.7146 232.672 54.8993 256.141 78.3683C279.61 101.837 292.795 133.668 292.795 166.858H334.51Z" fill="#F9B201"/>
<path d="M86.8389 20.8753C60.6935 35.3488 38.9149 56.5783 23.7788 82.3458C8.64266 108.113 0.704521 137.473 0.793801 167.357L42.5082 167.232C42.4412 144.819 48.3949 122.799 59.7469 103.474C71.099 84.1483 87.4329 68.2262 107.042 57.3711L86.8389 20.8753Z" fill="#F9B201"/>
<path d="M251.081 22.3548C225.778 7.7464 197.083 0.0378383 167.867 0.000138946C138.65 -0.0375604 109.936 7.59692 84.5954 22.1399L105.359 58.3195C124.364 47.4123 145.9 41.6864 167.813 41.7147C189.725 41.743 211.246 47.5244 230.223 58.4807L251.081 22.3548Z" fill="#F9B201"/>
<path d="M251.06 23.0623C312.267 54.666 334.767 129.832 336.476 166.56H293.768C286.251 96.8613 247.644 67.4784 230.56 58.0827L251.06 23.0623Z" fill="#F82F05" stroke="#F82F05"/>
<path d="M287.272 96.0059L165.24 165.725L157.692 150.426L287.272 96.0059Z" fill="#272525"/>
<path d="M168.339 165.021C163.747 167.286 158.189 165.401 155.924 160.81C153.659 156.218 155.544 150.66 160.136 148.395C164.727 146.13 170.285 148.015 172.55 152.607C174.816 157.198 172.93 162.756 168.339 165.021Z" fill="#272525"/>
<path d="M105 58.0826L84.5001 22.208C11.3844 67.9908 -1.76961 138.089 0.792873 167.415H43.5006V166.56C42.134 108.478 83.9307 70.0407 105 58.0826Z" fill="#63E54D" stroke="#63E54D"/>
</svg>
