<svg width="14" height="10" viewBox="0 0 14 10" fill="none" xmlns="http://www.w3.org/2000/svg">
<path d="M9.76563 5.42187C9.92188 5.33333 10 5.19271 10 5C10 4.80729 9.92188 4.66667 9.76563 4.57812L5.76563 2.07812C5.60417 1.97396 5.4349 1.96875 5.25781 2.0625C5.08594 2.15625 5 2.30208 5 2.5V7.5C5 7.69792 5.08594 7.84375 5.25781 7.9375C5.34115 7.97917 5.42188 8 5.5 8C5.60417 8 5.69271 7.97396 5.76563 7.92188L9.76563 5.42187ZM13.9922 3.82812C13.9974 4.10937 14 4.5 14 5C14 5.5 13.9974 5.89062 13.9922 6.17188C13.987 6.45312 13.9635 6.8099 13.9219 7.24219C13.8854 7.66927 13.8281 8.05208 13.75 8.39062C13.6667 8.77083 13.487 9.09115 13.2109 9.35156C12.9349 9.61198 12.612 9.76302 12.2422 9.80469C11.0859 9.9349 9.33854 10 7 10C4.66146 10 2.91406 9.9349 1.75781 9.80469C1.38802 9.76302 1.0625 9.61198 0.78125 9.35156C0.505208 9.09115 0.325521 8.77083 0.242188 8.39062C0.169271 8.05208 0.111979 7.66927 0.0703125 7.24219C0.0338542 6.8099 0.0130208 6.45312 0.0078125 6.17188C0.00260417 5.89062 0 5.5 0 5C0 4.5 0.00260417 4.10937 0.0078125 3.82812C0.0130208 3.54687 0.0338542 3.19271 0.0703125 2.76562C0.111979 2.33333 0.171875 1.94792 0.25 1.60937C0.333333 1.22917 0.513021 0.908854 0.789063 0.648437C1.0651 0.38802 1.38802 0.236979 1.75781 0.195312C2.91406 0.0651039 4.66146 -2.38419e-07 7 -2.38419e-07C9.33854 -2.38419e-07 11.0859 0.0651039 12.2422 0.195312C12.612 0.236979 12.9349 0.38802 13.2109 0.648437C13.4922 0.908854 13.6745 1.22917 13.7578 1.60937C13.8307 1.94792 13.8854 2.33333 13.9219 2.76562C13.9635 3.19271 13.987 3.54687 13.9922 3.82812Z" fill="white"/>
</svg>
