<svg width="50" height="49" viewBox="0 0 50 49" fill="none" xmlns="http://www.w3.org/2000/svg">
<path d="M32.8125 4.64124L31.7875 5.7422C29.4922 8.21824 27.6 9.32533 26.025 10.0496C24.45 10.7724 23.1266 10.9883 21.8266 11.9637C20.4406 13.0049 18.4266 15.0017 17.5781 18.5664C15.7594 18.9554 14.4281 19.6383 13.3781 20.528C12.3406 21.4069 11.5594 22.4068 10.5969 23.4955C10.5891 23.5078 10.6016 23.5307 10.5969 23.543C9.21563 25.0987 8.00781 26.7739 5.66406 27.659L4.6875 28.0418V44.4063H34.4734C36.1812 44.3159 37.3656 43.1568 38.0859 42.0129C38.8047 40.8706 39.2031 39.6334 39.4047 38.6166C39.9234 36.0257 40.8688 28.567 40.8688 28.567L40.9188 28.4246V28.2807C40.8687 27.2455 40.4344 26.3666 39.8922 25.552L41.65 20.433L44.4344 16.317L45.2156 15.216L44.1891 14.308L33.9359 5.59827L32.8125 4.64124ZM32.9109 8.85217L41.0641 15.7918L38.9156 18.9002L38.7703 19.0457L38.7203 19.2846L37.3047 23.399C36.5656 23.1005 35.8047 22.8907 34.9609 22.9213H34.8625L25 22.9688H23.4375V28.9024C23.2188 30.5714 22.2719 31.2176 21.0938 31.6785C20.7031 31.8332 20.6547 31.749 20.3125 31.8209V22.9228C20.0562 17.2465 22.1187 15.6126 23.7312 14.4045C24.1766 14.0691 25.4813 13.6817 27.3438 12.8258C28.9 12.1076 30.8344 10.8214 32.9109 8.8537V8.85217ZM17.2859 22.0117C17.2797 22.3593 17.1687 22.6043 17.1875 22.9688V35.2188H18.75C18.75 35.2188 20.4219 35.2004 22.2172 34.5006C24.0109 33.8008 26.1781 32.1624 26.5625 29.2852V26.0313L34.9609 25.9838H35.0094C35.6953 25.947 36.3681 26.178 36.8806 26.6263C37.3931 27.0746 37.7034 27.7036 37.7438 28.3756C37.7375 28.4001 37.6656 28.9682 37.6469 29.0938H31.25V32.1563H37.2562C37.0906 33.3399 36.9391 34.0826 36.7672 35.2188H31.25V38.2813H36.2797C36.095 39.0221 35.7985 39.7317 35.4 40.3867C34.9734 41.0681 34.6062 41.3254 34.2781 41.3438H7.8125V29.9069C10.3453 28.59 11.9203 26.6958 12.9391 25.5535C13.9953 24.3683 14.7203 23.471 15.4297 22.8738C15.8938 22.4849 16.6203 22.2629 17.2859 22.0117Z" fill="white"/>
</svg>
