<svg width="21" height="21" viewBox="0 0 21 21" fill="none" xmlns="http://www.w3.org/2000/svg">
<path d="M17.85 2.1H15.75V1.05C15.75 0.771523 15.6394 0.504451 15.4425 0.307538C15.2455 0.110625 14.9785 0 14.7 0C14.4215 0 14.1545 0.110625 13.9575 0.307538C13.7606 0.504451 13.65 0.771523 13.65 1.05V2.1H7.35V1.05C7.35 0.771523 7.23937 0.504451 7.04246 0.307538C6.84555 0.110625 6.57848 0 6.3 0C6.02152 0 5.75445 0.110625 5.55754 0.307538C5.36062 0.504451 5.25 0.771523 5.25 1.05V2.1H3.15C2.31457 2.1 1.51335 2.43187 0.922614 3.02261C0.331874 3.61335 0 4.41457 0 5.25V17.85C0 18.6854 0.331874 19.4866 0.922614 20.0774C1.51335 20.6681 2.31457 21 3.15 21H17.85C18.6854 21 19.4866 20.6681 20.0774 20.0774C20.6681 19.4866 21 18.6854 21 17.85V5.25C21 4.41457 20.6681 3.61335 20.0774 3.02261C19.4866 2.43187 18.6854 2.1 17.85 2.1ZM18.9 17.85C18.9 18.1285 18.7894 18.3955 18.5925 18.5925C18.3955 18.7894 18.1285 18.9 17.85 18.9H3.15C2.87152 18.9 2.60445 18.7894 2.40754 18.5925C2.21062 18.3955 2.1 18.1285 2.1 17.85V10.5H18.9V17.85ZM18.9 8.4H2.1V5.25C2.1 4.97152 2.21062 4.70445 2.40754 4.50754C2.60445 4.31062 2.87152 4.2 3.15 4.2H5.25V5.25C5.25 5.52848 5.36062 5.79555 5.55754 5.99246C5.75445 6.18937 6.02152 6.3 6.3 6.3C6.57848 6.3 6.84555 6.18937 7.04246 5.99246C7.23937 5.79555 7.35 5.52848 7.35 5.25V4.2H13.65V5.25C13.65 5.52848 13.7606 5.79555 13.9575 5.99246C14.1545 6.18937 14.4215 6.3 14.7 6.3C14.9785 6.3 15.2455 6.18937 15.4425 5.99246C15.6394 5.79555 15.75 5.52848 15.75 5.25V4.2H17.85C18.1285 4.2 18.3955 4.31062 18.5925 4.50754C18.7894 4.70445 18.9 4.97152 18.9 5.25V8.4Z" fill="black"/>
</svg>
