<svg width="19" height="19" viewBox="0 0 19 19" fill="none" xmlns="http://www.w3.org/2000/svg">
<path d="M9.50016 17.4167C5.12779 17.4167 1.5835 13.8724 1.5835 9.50004C1.5835 5.12767 5.12779 1.58337 9.50016 1.58337C13.8725 1.58337 17.4168 5.12767 17.4168 9.50004C17.4168 13.8724 13.8725 17.4167 9.50016 17.4167ZM9.50016 15.8334C11.1799 15.8334 12.7908 15.1661 13.9785 13.9784C15.1662 12.7907 15.8335 11.1797 15.8335 9.50004C15.8335 7.82034 15.1662 6.20943 13.9785 5.0217C12.7908 3.83397 11.1799 3.16671 9.50016 3.16671C7.82046 3.16671 6.20955 3.83397 5.02182 5.0217C3.83409 6.20943 3.16683 7.82034 3.16683 9.50004C3.16683 11.1797 3.83409 12.7907 5.02182 13.9784C6.20955 15.1661 7.82046 15.8334 9.50016 15.8334ZM10.2918 9.50004H13.4585V11.0834H8.7085V5.54171H10.2918V9.50004Z" fill="black"/>
</svg>
