<svg width="322" height="126" viewBox="0 0 322 126" fill="none" xmlns="http://www.w3.org/2000/svg">
<rect width="8.19178" height="126" rx="4.09589" transform="matrix(-1 0 0 1 322 0)" fill="#F0F0F0"/>
<rect width="8.19178" height="73.4638" rx="4.09589" transform="matrix(-1 0 0 1 322 49)" fill="#FF8B7B"/>
<rect width="8.19178" height="126" rx="4.09589" transform="matrix(-1 0 0 1 269.698 0)" fill="#F0F0F0"/>
<rect width="8.19178" height="54" rx="4.09589" transform="matrix(-1 0 0 1 269.698 0)" fill="#2AA316"/>
<rect width="8.19178" height="126" rx="4.09589" transform="matrix(-1 0 0 1 217.397 0)" fill="#F0F0F0"/>
<rect width="8.19178" height="34" rx="4.09589" transform="matrix(-1 0 0 1 217.397 20)" fill="#2AA316"/>
<rect width="8.19178" height="126" rx="4.09589" transform="matrix(-1 0 0 1 165.096 0)" fill="#F0F0F0"/>
<rect width="8.19178" height="42" rx="4.09589" transform="matrix(-1 0 0 1 165.096 54)" fill="#FF8B7B"/>
<rect width="8.19178" height="126" rx="4.09589" transform="matrix(-1 0 0 1 112.794 0)" fill="#F0F0F0"/>
<rect width="8.19178" height="68" rx="4.09589" transform="matrix(-1 0 0 1 112.794 54)" fill="#FF8B7B"/>
<rect width="8.19178" height="126" rx="4.09589" transform="matrix(-1 0 0 1 60.4932 0)" fill="#F0F0F0"/>
<rect width="8.19178" height="54" rx="4.09589" transform="matrix(-1 0 0 1 60.4932 0)" fill="#2AA316"/>
<rect width="8.19178" height="126" rx="4.09589" transform="matrix(-1 0 0 1 8.19189 0)" fill="#F0F0F0"/>
<rect width="8.19178" height="28" rx="4.09589" transform="matrix(-1 0 0 1 8.19189 26)" fill="#2AA316"/>
</svg>
