<svg width="227" height="169" viewBox="0 0 227 169" fill="none" xmlns="http://www.w3.org/2000/svg">
<path d="M226.81 148.515H0V148.628H226.81V148.515Z" fill="#EBEBEB"/>
<path d="M204.083 155.813H189.06V155.927H204.083V155.813Z" fill="#EBEBEB"/>
<path d="M123.938 154.394H118.091V154.507H123.938V154.394Z" fill="#EBEBEB"/>
<path d="M158.617 154.875H146.306V154.988H158.617V154.875Z" fill="#EBEBEB"/>
<path d="M188.606 151.604H163.153V151.718H188.606V151.604Z" fill="#EBEBEB"/>
<path d="M35.8314 156.852H23.7969V156.966H35.8314V156.852Z" fill="#EBEBEB"/>
<path d="M50.3019 156.852H39.8687V156.966H50.3019V156.852Z" fill="#EBEBEB"/>
<path d="M87.0084 154.339H59.4238V154.453H87.0084V154.339Z" fill="#EBEBEB"/>
<path d="M107.508 128.283H19.9232C19.2362 128.283 18.5774 128.011 18.0916 127.525C17.6059 127.039 17.333 126.38 17.333 125.693V2.56748C17.339 1.88447 17.6145 1.23146 18.0996 0.750606C18.5847 0.26975 19.2401 -2.61856e-05 19.9232 1.90636e-09H107.508C108.195 1.90636e-09 108.854 0.272892 109.339 0.758642C109.825 1.24439 110.098 1.90321 110.098 2.59016V125.693C110.098 126.38 109.825 127.039 109.339 127.525C108.854 128.011 108.195 128.283 107.508 128.283ZM19.9232 0.0907242C19.2667 0.0919233 18.6374 0.353251 18.1732 0.817474C17.7089 1.2817 17.4476 1.91097 17.4464 2.56748V125.693C17.4476 126.35 17.7089 126.979 18.1732 127.443C18.6374 127.908 19.2667 128.169 19.9232 128.17H107.508C108.164 128.169 108.794 127.908 109.258 127.443C109.722 126.979 109.984 126.35 109.985 125.693V2.56748C109.984 1.91097 109.722 1.2817 109.258 0.817474C108.794 0.353251 108.164 0.0919233 107.508 0.0907242H19.9232Z" fill="#EBEBEB"/>
<path d="M205.63 128.283H118.036C117.349 128.282 116.691 128.009 116.206 127.524C115.72 127.038 115.447 126.38 115.446 125.693V2.56748C115.453 1.88484 115.729 1.23252 116.214 0.751916C116.699 0.271313 117.353 0.00115595 118.036 0H205.63C206.311 0.00236086 206.964 0.273192 207.448 0.753792C207.931 1.23439 208.205 1.88604 208.211 2.56748V125.693C208.211 126.379 207.939 127.036 207.455 127.522C206.972 128.007 206.315 128.281 205.63 128.283ZM118.036 0.0907242C117.379 0.0919233 116.75 0.353251 116.286 0.817474C115.822 1.2817 115.56 1.91097 115.559 2.56748V125.693C115.56 126.35 115.822 126.979 116.286 127.443C116.75 127.908 117.379 128.169 118.036 128.17H205.63C206.286 128.169 206.916 127.908 207.38 127.443C207.844 126.979 208.105 126.35 208.107 125.693V2.56748C208.105 1.91097 207.844 1.2817 207.38 0.817474C206.916 0.353251 206.286 0.0919233 205.63 0.0907242H118.036Z" fill="#EBEBEB"/>
<path d="M33.8717 89.0408L101.18 89.0408L101.18 18.0131L33.8717 18.0131L33.8717 89.0408Z" fill="#E6E6E6"/>
<path d="M31.0092 89.0408L99.8413 89.0408L99.8413 18.0131L31.0092 18.0131L31.0092 89.0408Z" fill="#F0F0F0"/>
<path d="M33.8717 91.6945L101.18 91.6945V89.0408L33.8717 89.0408V91.6945Z" fill="#E6E6E6"/>
<path d="M26.2557 91.6945L95.0879 91.6945V89.0408L26.2557 89.0408V91.6945Z" fill="#F0F0F0"/>
<path d="M95.8452 85.0398V22.0094L35.0104 22.0094L35.0104 85.0398H95.8452Z" fill="#FAFAFA"/>
<path d="M75.1283 85.0398L65.4753 22.0094H54.3979L64.051 85.0398H75.1283Z" fill="white"/>
<path d="M61.6697 85.0398L52.0167 22.0094H47.6982L57.3513 85.0398H61.6697Z" fill="white"/>
<path d="M35.5234 85.0398L35.5234 22.0094H35.0154L35.0154 85.0398H35.5234Z" fill="#E6E6E6"/>
<path d="M97.1653 51.0049H33.6904V56.0446H97.1653V51.0049Z" fill="#F0F0F0"/>
<path d="M123.942 148.515H131.681V54.8516H123.942L123.942 148.515Z" fill="#E6E6E6"/>
<path d="M125.974 148.515H123.938V144.714H128.106L125.974 148.515Z" fill="#F0F0F0"/>
<path d="M186.578 148.515H194.317V54.8516H186.578V148.515Z" fill="#E6E6E6"/>
<path d="M123.938 147.186H188.352V54.8517L123.938 54.8517L123.938 147.186Z" fill="#F0F0F0"/>
<path d="M126.986 83.1165L185.303 83.1165C186.115 83.1165 186.773 82.4584 186.773 81.6467V57.8317C186.773 57.02 186.115 56.362 185.303 56.362L126.986 56.362C126.174 56.362 125.516 57.02 125.516 57.8317V81.6467C125.516 82.4584 126.174 83.1165 126.986 83.1165Z" fill="#E6E6E6"/>
<path d="M186.315 148.515H188.352V144.714H184.183L186.315 148.515Z" fill="#F0F0F0"/>
<path d="M126.986 114.194L185.303 114.194C186.115 114.194 186.773 113.536 186.773 112.724V88.9092C186.773 88.0975 186.115 87.4395 185.303 87.4395H126.986C126.174 87.4395 125.516 88.0975 125.516 88.9092V112.724C125.516 113.536 126.174 114.194 126.986 114.194Z" fill="#E6E6E6"/>
<path d="M126.986 145.276H185.303C186.115 145.276 186.773 144.618 186.773 143.806V119.991C186.773 119.18 186.115 118.522 185.303 118.522H126.986C126.174 118.522 125.516 119.18 125.516 119.991V143.806C125.516 144.618 126.174 145.276 126.986 145.276Z" fill="#E6E6E6"/>
<path d="M143.833 59.6644H167.091C168.07 59.6644 169.009 58.2037 169.681 55.6317H141.239C141.915 58.2037 142.854 59.6644 143.833 59.6644Z" fill="#F0F0F0"/>
<path d="M143.833 90.724H167.091C168.07 90.724 169.009 89.2678 169.681 86.6913H141.239C141.915 89.286 142.854 90.724 143.833 90.724Z" fill="#F0F0F0"/>
<path d="M143.833 121.82H167.091C168.07 121.82 169.009 120.363 169.681 117.787H141.239C141.915 120.363 142.854 121.82 143.833 121.82Z" fill="#F0F0F0"/>
<path d="M172.593 41.8872C172.593 41.8872 172.698 54.956 176.64 54.956C180.581 54.956 180.69 41.8872 180.69 41.8872H172.593Z" fill="#E6E6E6"/>
<path d="M130.039 41.9823C130.039 41.9823 130.293 54.9558 140.123 54.9558C149.952 54.9558 150.206 41.9823 150.206 41.9823H130.039Z" fill="#E6E6E6"/>
<path d="M142.604 45.2394C142.604 45.2394 142.795 54.9559 150.157 54.9559C157.519 54.9559 157.71 45.2394 157.71 45.2394H142.604Z" fill="#F0F0F0"/>
<path d="M152.416 47.834C152.416 47.834 152.557 54.9558 157.95 54.9558C163.344 54.9558 163.484 47.834 163.484 47.834H152.416Z" fill="#EBEBEB"/>
<path d="M179.18 43.8062C179.129 43.807 179.08 43.7962 179.034 43.7744C178.581 43.5521 174.838 41.5744 175.092 39.6419C175.222 38.9659 175.501 38.3274 175.909 37.773C176.435 36.9429 176.816 36.3487 176.158 35.4505C175.151 34.0896 176.249 32.9601 177.22 31.9712C177.683 31.5469 178.086 31.0616 178.417 30.5287C178.817 29.7848 178.495 29.2178 178.05 28.433C177.562 27.7023 177.276 26.8558 177.22 25.9789C177.203 24.9989 177.443 24.0314 177.915 23.1728C178.388 22.3141 179.077 21.5941 179.914 21.0844C179.951 21.0606 179.992 21.0446 180.035 21.0374C180.078 21.0301 180.122 21.0318 180.164 21.0423C180.206 21.0527 180.246 21.0718 180.28 21.0982C180.315 21.1246 180.344 21.1579 180.365 21.1959C180.386 21.2339 180.399 21.2759 180.404 21.3192C180.408 21.3625 180.403 21.4063 180.39 21.4477C180.377 21.4892 180.355 21.5274 180.326 21.5601C180.297 21.5928 180.262 21.6193 180.223 21.6378C179.484 22.0901 178.877 22.7281 178.461 23.4881C178.046 24.2482 177.837 25.1038 177.855 25.9699C177.91 26.7394 178.167 27.4809 178.599 28.12C179.053 28.932 179.538 29.7757 178.971 30.8417C178.612 31.4284 178.174 31.9627 177.669 32.4294C176.621 33.4999 176.013 34.1985 176.666 35.0921C177.574 36.335 176.975 37.2876 176.444 38.1223C176.087 38.6005 175.841 39.1521 175.723 39.7372C175.555 41.0028 178.263 42.6812 179.32 43.221C179.383 43.2537 179.432 43.3062 179.462 43.3702C179.491 43.4343 179.498 43.5063 179.482 43.5749C179.466 43.6435 179.427 43.7048 179.373 43.7491C179.318 43.7934 179.25 43.8183 179.18 43.8198V43.8062Z" fill="#E6E6E6"/>
<path d="M183.716 26.6003C183.716 26.6003 178.486 26.2646 178.15 29.6713C180.94 33.0598 183.716 26.6003 183.716 26.6003Z" fill="#F0F0F0"/>
<path d="M173.922 21.6603C173.922 21.6603 174.539 26.8633 177.951 26.582C180.781 23.2389 173.922 21.6603 173.922 21.6603Z" fill="#F0F0F0"/>
<path d="M173.636 31.0413C173.636 31.0413 176.739 32.4021 175.931 34.4434C173.341 35.5729 173.636 31.0413 173.636 31.0413Z" fill="#F0F0F0"/>
<path d="M178.763 34.6246C178.763 34.6246 178.182 37.1558 176.517 36.8383C175.297 35.0374 178.763 34.6246 178.763 34.6246Z" fill="#F0F0F0"/>
<path d="M180.717 32.0935C180.717 32.0935 178.1 34.2391 176.635 32.5834C176.821 29.7619 180.717 32.0935 180.717 32.0935Z" fill="#F0F0F0"/>
<path d="M64.8949 106.346H32.7515V148.515H64.8949V106.346Z" fill="#F5F5F5"/>
<path d="M36.376 144.637V110.225H35.818V144.637H36.376Z" fill="#E6E6E6"/>
<path d="M61.3245 110.225H35.813V110.933H61.3245V110.225Z" fill="#E6E6E6"/>
<path d="M97.601 106.346H65.4575V148.515H97.601V106.346Z" fill="#F5F5F5"/>
<path d="M97.6012 148.515H100.804V106.346H97.6012V148.515Z" fill="#E0E0E0"/>
<path d="M69.0767 144.637V110.225H68.5187V144.637H69.0767Z" fill="#E6E6E6"/>
<path d="M65.4526 148.51V106.909H64.8947V148.51H65.4526Z" fill="#E6E6E6"/>
<path d="M94.0262 110.225H68.5146V110.933H94.0262V110.225Z" fill="#E6E6E6"/>
<path d="M63.2342 110.579C63.3934 110.579 63.5462 110.642 63.6592 110.754C63.7722 110.866 63.8363 111.018 63.8375 111.178V120.976C63.8351 121.134 63.7705 121.285 63.6576 121.396C63.5447 121.508 63.3926 121.57 63.2342 121.57C63.0749 121.57 62.9222 121.507 62.8092 121.395C62.6961 121.283 62.6321 121.13 62.6309 120.971V111.173C62.6332 111.015 62.6979 110.863 62.8107 110.752C62.9236 110.641 63.0757 110.579 63.2342 110.579Z" fill="#E0E0E0"/>
<path d="M67.1359 110.579C67.2951 110.579 67.4479 110.642 67.5609 110.754C67.6739 110.866 67.738 111.018 67.7392 111.178V120.976C67.7368 121.134 67.6722 121.285 67.5593 121.396C67.4464 121.508 67.2943 121.57 67.1359 121.57C66.9771 121.57 66.8248 121.507 66.7125 121.395C66.6002 121.282 66.5371 121.13 66.5371 120.971V111.173C66.5383 111.015 66.6019 110.864 66.7141 110.753C66.8262 110.641 66.9779 110.579 67.1359 110.579Z" fill="#E0E0E0"/>
<path d="M101.838 104.913H31.7534V106.914H101.838V104.913Z" fill="#EBEBEB"/>
<path d="M101.837 104.913H96.2441V106.914H101.837V104.913Z" fill="#E0E0E0"/>
<path d="M113.405 169C161.979 169 201.357 166.701 201.357 163.865C201.357 161.029 161.979 158.73 113.405 158.73C64.8302 158.73 25.4526 161.029 25.4526 163.865C25.4526 166.701 64.8302 169 113.405 169Z" fill="#F5F5F5"/>
<path d="M193.287 22.55L193.131 22.9761L202.065 26.242L202.221 25.8159L193.287 22.55Z" fill="#CFD8DC"/>
<path d="M188.169 20.6773L188.014 21.1034L190.864 22.1453L191.02 21.7193L188.169 20.6773Z" fill="#CFD8DC"/>
<path d="M159.933 12.0482L207.132 29.2857C208.417 29.7589 209.463 30.7218 210.04 31.9637C210.617 33.2057 210.679 34.6257 210.212 35.9131L174.077 134.802C173.604 136.087 172.641 137.133 171.399 137.71C170.157 138.287 168.737 138.349 167.449 137.882L120.273 120.645C118.989 120.17 117.944 119.207 117.367 117.966C116.79 116.724 116.727 115.305 117.193 114.017L153.324 15.1283C153.797 13.8475 154.757 12.8053 155.995 12.2285C157.232 11.6517 158.648 11.5869 159.933 12.0482Z" fill="#CFD8DC"/>
<path d="M172.244 134.053L208.339 35.3097C208.497 34.8769 208.569 34.4172 208.549 33.9567C208.53 33.4963 208.42 33.0442 208.226 32.6262C208.032 32.2083 207.757 31.8328 207.417 31.5211C207.078 31.2094 206.68 30.9677 206.247 30.8098L158.413 13.3273C157.98 13.1689 157.52 13.0975 157.06 13.1172C156.599 13.1369 156.147 13.2472 155.729 13.4418C155.311 13.6365 154.935 13.9117 154.624 14.2516C154.312 14.5916 154.071 14.9896 153.913 15.423L117.823 114.162C117.664 114.595 117.592 115.055 117.611 115.515C117.63 115.976 117.74 116.428 117.935 116.847C118.129 117.265 118.404 117.64 118.744 117.952C119.083 118.263 119.481 118.505 119.915 118.662L167.744 136.149C168.177 136.308 168.637 136.379 169.098 136.359C169.559 136.34 170.011 136.229 170.429 136.035C170.847 135.84 171.222 135.565 171.534 135.225C171.845 134.885 172.087 134.487 172.244 134.053Z" fill="white"/>
<path d="M187.672 23.3251C187.008 24.2135 186.077 24.8647 185.015 25.1825C183.953 25.5003 182.817 25.4678 181.775 25.0897L180.822 24.7404C179.779 24.3586 178.887 23.6505 178.279 22.7212C177.671 21.7919 177.379 20.6912 177.447 19.5828L187.672 23.3251Z" fill="#CFD8DC"/>
<path opacity="0.1" d="M170.856 133.568C171.071 133.646 171.308 133.636 171.515 133.54C171.722 133.444 171.883 133.27 171.963 133.056L207.413 36.0628C207.491 35.848 207.481 35.6112 207.385 35.4039C207.289 35.1966 207.115 35.0356 206.901 34.956C206.686 34.8783 206.449 34.8885 206.242 34.9845C206.035 35.0805 205.874 35.2545 205.794 35.4686L170.344 132.457C170.265 132.672 170.274 132.91 170.37 133.119C170.466 133.327 170.641 133.489 170.856 133.568Z" fill="#263238"/>
<path opacity="0.1" d="M119.198 114.684C119.413 114.762 119.649 114.751 119.857 114.655C120.064 114.559 120.225 114.385 120.305 114.171L155.755 17.1785C155.833 16.9643 155.822 16.7282 155.726 16.5216C155.63 16.3151 155.456 16.1549 155.242 16.0762C155.028 15.9985 154.791 16.0088 154.584 16.1048C154.376 16.2008 154.215 16.3747 154.136 16.5888L118.685 113.582C118.608 113.796 118.618 114.032 118.714 114.239C118.81 114.445 118.984 114.605 119.198 114.684Z" fill="#263238"/>
<g opacity="0.9">
<path d="M169.928 125.976L184.521 31.6063C184.879 29.2914 183.292 27.1246 180.977 26.7667L136.274 19.8542C133.959 19.4962 131.792 21.0826 131.434 23.3976L116.842 117.767C116.484 120.082 118.07 122.249 120.385 122.607L165.089 129.52C167.404 129.877 169.571 128.291 169.928 125.976Z" fill="white"/>
<path d="M165.757 129.803C165.528 129.803 165.299 129.785 165.072 129.749L120.364 122.84C119.194 122.658 118.144 122.02 117.444 121.065C116.744 120.11 116.452 118.916 116.63 117.746L131.219 23.3933C131.4 22.223 132.038 21.1724 132.993 20.4724C133.948 19.7724 135.142 19.4802 136.313 19.66L181.022 26.5686C182.192 26.7507 183.243 27.3899 183.943 28.3458C184.643 29.3017 184.935 30.4963 184.755 31.6673L170.171 126.02C170.005 127.072 169.47 128.031 168.661 128.724C167.852 129.418 166.823 129.8 165.757 129.803ZM135.632 20.0365C134.676 20.041 133.752 20.3858 133.027 21.0092C132.301 21.6325 131.821 22.4937 131.672 23.4386L117.079 117.814C116.918 118.865 117.18 119.938 117.809 120.796C118.437 121.654 119.38 122.228 120.432 122.391L165.14 129.282C166.192 129.443 167.265 129.181 168.124 128.553C168.983 127.924 169.558 126.981 169.722 125.929L184.306 31.5766C184.467 30.5247 184.205 29.4516 183.577 28.5927C182.948 27.7338 182.005 27.1592 180.954 26.995L136.245 20.0864C136.042 20.0546 135.837 20.038 135.632 20.0365Z" fill="#CFD8DC"/>
<path d="M173.859 64.0284C173.634 64.0275 173.41 64.0108 173.188 63.9785L132.48 57.6868C131.916 57.6011 131.375 57.4049 130.887 57.1096C130.4 56.8142 129.975 56.4255 129.638 55.9657C129.301 55.506 129.058 54.9842 128.923 54.4303C128.788 53.8763 128.763 53.3012 128.851 52.7379L131.836 33.4454C131.919 32.8821 132.113 32.341 132.409 31.8541C132.704 31.3672 133.094 30.9443 133.555 30.6103C134.014 30.272 134.535 30.0281 135.088 29.8926C135.642 29.7571 136.217 29.7328 136.78 29.821L177.488 36.1127C178.624 36.2894 179.643 36.9088 180.323 37.8355C181.004 38.7622 181.289 39.9206 181.117 41.0572L178.137 60.3541C177.978 61.3756 177.46 62.3068 176.676 62.9804C175.891 63.654 174.893 64.0256 173.859 64.0284ZM136.118 30.2247C135.192 30.2259 134.298 30.558 133.595 31.1612C132.893 31.7643 132.43 32.5986 132.289 33.5135L129.309 52.8104C129.231 53.3141 129.253 53.8283 129.374 54.3235C129.495 54.8187 129.712 55.2852 130.013 55.6964C130.314 56.1076 130.694 56.4554 131.129 56.7198C131.565 56.9843 132.049 57.1603 132.552 57.2378L173.283 63.5295C173.787 63.6075 174.301 63.5855 174.796 63.4647C175.291 63.3439 175.758 63.1267 176.169 62.8255C176.58 62.5243 176.928 62.1449 177.192 61.7092C177.457 61.2735 177.633 60.7899 177.71 60.2861L180.69 40.9891C180.846 39.9722 180.591 38.9352 179.983 38.1054C179.375 37.2755 178.463 36.7205 177.447 36.5618L136.739 30.2701C136.534 30.238 136.326 30.2228 136.118 30.2247Z" fill="#CFD8DC"/>
<path d="M168.438 93.3595C168.162 93.3584 167.886 93.3372 167.613 93.296L128.946 87.3218C127.539 87.1046 126.276 86.3374 125.435 85.189C124.593 84.0406 124.243 82.6049 124.46 81.1979C124.677 79.7909 125.444 78.5278 126.593 77.6865C127.741 76.8452 129.177 76.4945 130.584 76.7116L169.255 82.6903C170.66 82.9093 171.922 83.6771 172.762 84.8253C173.602 85.9734 173.953 87.408 173.736 88.8142C173.539 90.0784 172.897 91.2307 171.926 92.0639C170.954 92.8971 169.718 93.3565 168.438 93.3595ZM129.763 77.1154C128.521 77.1105 127.324 77.5756 126.412 78.4174C125.499 79.2592 124.94 80.4151 124.845 81.6528C124.75 82.8905 125.127 84.1182 125.901 85.0891C126.674 86.06 127.787 86.7021 129.014 86.8863L167.681 92.8605C168.97 93.0571 170.284 92.7336 171.335 91.9612C172.385 91.1887 173.086 90.0307 173.283 88.7416C173.484 87.4574 173.167 86.146 172.401 85.0955C171.636 84.045 170.484 83.3414 169.2 83.1394L130.516 77.1607C130.266 77.1278 130.014 77.1126 129.763 77.1154Z" fill="#CFD8DC"/>
<path d="M166.479 106.065C166.202 106.066 165.926 106.045 165.653 106.002L126.987 100.027C126.281 99.93 125.603 99.6931 124.99 99.3308C124.377 98.9684 123.843 98.4878 123.418 97.9169C122.993 97.346 122.685 96.6961 122.514 96.0053C122.342 95.3145 122.31 94.5964 122.418 93.8929C122.527 93.1894 122.774 92.5145 123.146 91.9076C123.518 91.3007 124.007 90.7739 124.585 90.3578C125.162 89.9417 125.817 89.6446 126.51 89.4839C127.204 89.3233 127.922 89.3022 128.624 89.4219L167.295 95.396C168.63 95.6033 169.838 96.3066 170.678 97.3656C171.517 98.4245 171.926 99.7611 171.823 101.108C171.72 102.456 171.112 103.714 170.121 104.633C169.131 105.552 167.83 106.063 166.479 106.065ZM127.789 89.8165C126.554 89.8214 125.366 90.2915 124.462 91.1332C123.557 91.9749 123.003 93.1264 122.91 94.3583C122.817 95.5902 123.191 96.812 123.958 97.7802C124.726 98.7485 125.83 99.3922 127.05 99.5829L165.721 105.562C167.009 105.76 168.323 105.439 169.374 104.669C170.425 103.898 171.127 102.742 171.326 101.454C171.524 100.166 171.203 98.8522 170.433 97.8012C169.662 96.7501 168.506 96.0482 167.218 95.8496L128.552 89.8755C128.3 89.8356 128.045 89.8158 127.789 89.8165Z" fill="#CFD8DC"/>
<path d="M164.519 118.776C164.239 118.775 163.96 118.753 163.684 118.712L125.018 112.733C123.629 112.497 122.389 111.723 121.566 110.58C120.743 109.437 120.402 108.017 120.617 106.625C120.832 105.233 121.585 103.981 122.715 103.139C123.845 102.298 125.26 101.935 126.655 102.128L165.326 108.102C166.732 108.322 167.992 109.09 168.832 110.238C169.672 111.386 170.023 112.82 169.808 114.226C169.61 115.487 168.968 116.637 167.999 117.468C167.03 118.299 165.796 118.758 164.519 118.762V118.776ZM125.834 102.518C124.593 102.513 123.396 102.978 122.483 103.82C121.571 104.662 121.011 105.818 120.916 107.055C120.822 108.293 121.199 109.521 121.972 110.492C122.746 111.463 123.858 112.105 125.086 112.289L163.757 118.263C165.041 118.461 166.351 118.143 167.401 117.378C168.451 116.613 169.155 115.463 169.359 114.18C169.458 113.543 169.43 112.892 169.277 112.265C169.124 111.638 168.849 111.047 168.468 110.527C168.087 110.006 167.607 109.565 167.055 109.23C166.504 108.895 165.891 108.672 165.254 108.574L126.587 102.6C126.339 102.552 126.087 102.525 125.834 102.518Z" fill="#CFD8DC"/>
<path d="M171.35 73.3776C171.254 73.3864 171.157 73.3864 171.06 73.3776L151.718 70.3882C151.472 70.3506 151.237 70.265 151.025 70.1363C150.813 70.0076 150.628 69.8384 150.482 69.6383C150.335 69.4381 150.229 69.211 150.17 68.97C150.112 68.729 150.101 68.4787 150.139 68.2336C150.216 67.7376 150.487 67.2925 150.891 66.9958C151.296 66.699 151.802 66.5748 152.298 66.6504L171.641 69.6443C171.886 69.6803 172.121 69.7651 172.333 69.8937C172.545 70.0222 172.729 70.1919 172.874 70.3928C173.022 70.5927 173.129 70.8199 173.188 71.0613C173.247 71.3027 173.258 71.5535 173.219 71.799C173.145 72.2408 172.917 72.642 172.574 72.9311C172.232 73.2202 171.798 73.3784 171.35 73.3776ZM152.008 67.0632C151.647 67.0646 151.299 67.2018 151.035 67.4475C150.77 67.6933 150.608 68.0296 150.58 68.3897C150.552 68.7497 150.66 69.1071 150.884 69.3909C151.107 69.6746 151.429 69.8638 151.786 69.921L171.133 72.9104C171.509 72.9666 171.892 72.8721 172.199 72.6473C172.351 72.5366 172.481 72.3966 172.579 72.2353C172.677 72.0741 172.742 71.8949 172.77 71.7083C172.8 71.5218 172.792 71.3312 172.748 71.1476C172.704 70.964 172.624 70.7909 172.513 70.6383C172.401 70.4857 172.261 70.3566 172.1 70.2584C171.938 70.1602 171.759 70.0949 171.573 70.0662L152.226 67.0768C152.153 67.0678 152.081 67.0632 152.008 67.0632Z" fill="#263238"/>
<path d="M170.507 78.8479C170.41 78.8545 170.313 78.8545 170.216 78.8479L142.732 74.6021C142.243 74.5177 141.806 74.2446 141.517 73.8416C141.227 73.4386 141.108 72.938 141.184 72.4477C141.26 71.9574 141.526 71.5166 141.924 71.2204C142.322 70.9242 142.821 70.7963 143.312 70.8642L170.792 75.1101C171.288 75.1872 171.733 75.4578 172.03 75.8626C172.327 76.2673 172.451 76.7732 172.376 77.2693C172.301 77.7112 172.073 78.1124 171.731 78.4014C171.388 78.6905 170.955 78.8488 170.507 78.8479ZM143.017 71.2725C142.755 71.2757 142.499 71.3504 142.276 71.4887C142.053 71.627 141.873 71.8235 141.754 72.0571C141.635 72.2906 141.582 72.5523 141.6 72.8137C141.619 73.0752 141.709 73.3266 141.861 73.5406C141.972 73.6933 142.113 73.8224 142.275 73.9205C142.437 74.0185 142.617 74.0837 142.804 74.1122L170.284 78.358C170.472 78.3907 170.664 78.3858 170.85 78.3435C171.036 78.3013 171.212 78.2225 171.367 78.1118C171.522 78.0011 171.653 77.8607 171.754 77.6987C171.854 77.5367 171.921 77.3564 171.951 77.1682C171.981 76.9801 171.974 76.7878 171.929 76.6026C171.884 76.4175 171.803 76.2431 171.69 76.0895C171.577 75.936 171.435 75.8065 171.271 75.7084C171.108 75.6104 170.927 75.5458 170.738 75.5184L143.253 71.2725C143.175 71.2649 143.096 71.2649 143.017 71.2725Z" fill="#263238"/>
<path d="M144.651 48.7936C146.966 46.2695 146.796 42.3469 144.272 40.0323C141.748 37.7178 137.825 37.8877 135.511 40.4118C133.196 42.936 133.366 46.8585 135.89 49.1731C138.414 51.4877 142.337 51.3178 144.651 48.7936Z" fill="#CFD8DC"/>
</g>
<g opacity="0.9">
<path d="M135.787 128.288L138.354 32.8286C138.382 31.7047 137.963 30.6156 137.19 29.8001C136.416 28.9846 135.35 28.5092 134.226 28.4784L89.0005 27.2627C87.8762 27.2322 86.7859 27.6494 85.9693 28.4227C85.1527 29.1959 84.6766 30.2619 84.6457 31.3861L82.1054 126.846C82.0762 127.97 82.4944 129.061 83.2684 129.877C84.0424 130.694 85.1088 131.17 86.2334 131.2L131.455 132.416C132.575 132.439 133.66 132.018 134.471 131.245C135.283 130.472 135.756 129.409 135.787 128.288Z" fill="#CFD8DC"/>
<path opacity="0.1" d="M135.787 128.288L138.354 32.8286C138.382 31.7047 137.963 30.6156 137.19 29.8001C136.416 28.9846 135.35 28.5092 134.226 28.4784L89.0005 27.2627C87.8762 27.2322 86.7859 27.6494 85.9693 28.4227C85.1527 29.1959 84.6766 30.2619 84.6457 31.3861L82.1054 126.846C82.0762 127.97 82.4944 129.061 83.2684 129.877C84.0424 130.694 85.1088 131.17 86.2334 131.2L131.455 132.416C132.575 132.439 133.66 132.018 134.471 131.245C135.283 130.472 135.756 129.409 135.787 128.288Z" fill="black"/>
<path opacity="0.2" d="M134.228 105.82L134.752 86.3074C134.813 84.0384 133.023 82.1496 130.754 82.0886L89.5853 80.9818C87.3163 80.9208 85.4275 82.7107 85.3665 84.9797L84.842 104.492C84.781 106.761 86.5709 108.65 88.8398 108.711L130.009 109.817C132.278 109.878 134.167 108.089 134.228 105.82Z" fill="#263238"/>
<path d="M119.665 121.398C119.638 122.45 119.923 123.487 120.486 124.378C121.048 125.268 121.862 125.972 122.824 126.399C123.786 126.827 124.854 126.959 125.891 126.78C126.929 126.6 127.89 126.117 128.653 125.391C129.416 124.665 129.946 123.729 130.176 122.702C130.407 121.674 130.327 120.602 129.948 119.619C129.569 118.637 128.906 117.789 128.045 117.184C127.183 116.578 126.162 116.242 125.109 116.217C123.7 116.183 122.336 116.71 121.315 117.681C120.294 118.652 119.701 119.989 119.665 121.398Z" fill="white"/>
<path d="M96.8878 124.553C99.0209 122.532 99.1114 119.164 97.09 117.031C95.0687 114.898 91.7009 114.807 89.5678 116.829C87.4347 118.85 87.3442 122.218 89.3656 124.351C91.3869 126.484 94.7548 126.575 96.8878 124.553Z" fill="white"/>
<path d="M103.788 120.971C103.761 122.024 104.046 123.061 104.609 123.951C105.171 124.842 105.985 125.545 106.947 125.973C107.909 126.4 108.977 126.533 110.014 126.353C111.052 126.174 112.013 125.691 112.776 124.965C113.539 124.239 114.069 123.303 114.299 122.275C114.53 121.248 114.451 120.175 114.071 119.193C113.692 118.211 113.029 117.363 112.168 116.757C111.306 116.152 110.285 115.815 109.232 115.791C107.823 115.757 106.459 116.283 105.438 117.255C104.417 118.226 103.824 119.563 103.788 120.971Z" fill="white"/>
<path d="M135.9 43.6609C135.938 42.2996 135.434 40.9791 134.498 39.9898C133.562 39.0004 132.272 38.4233 130.911 38.3853L91.795 37.3329C90.4341 37.2963 89.1143 37.8012 88.1252 38.7367C87.1361 39.6722 86.5586 40.9619 86.5194 42.3227C86.4828 43.6836 86.9877 45.0035 87.9232 45.9926C88.8587 46.9817 90.1484 47.5591 91.5092 47.5983L130.643 48.6598C132.002 48.6915 133.319 48.1832 134.304 47.2463C135.29 46.3094 135.864 45.0201 135.9 43.6609Z" fill="white"/>
<path d="M135.528 57.478C135.565 56.1171 135.06 54.7973 134.124 53.8082C133.189 52.8191 131.899 52.2416 130.538 52.2025L91.4274 51.1501C90.0664 51.1134 88.7466 51.6183 87.7575 52.5538C86.7684 53.4893 86.1909 54.779 86.1518 56.1399C86.1152 57.5008 86.62 58.8206 87.5555 59.8097C88.491 60.7988 89.7807 61.3763 91.1416 61.4155L130.253 62.4633C131.613 62.4999 132.932 61.9957 133.921 61.0612C134.91 60.1267 135.488 58.8381 135.528 57.478Z" fill="white"/>
<path d="M135.179 71.2954C135.216 69.9342 134.712 68.6136 133.776 67.6243C132.84 66.6349 131.55 66.0578 130.189 66.0198L91.0777 64.9674C89.7172 64.932 88.398 65.4373 87.4092 66.3725C86.4204 67.3078 85.8425 68.5968 85.8022 69.9573C85.7655 71.3182 86.2704 72.638 87.2059 73.6271C88.1414 74.6162 89.4311 75.1937 90.792 75.2328L129.903 76.2807C131.263 76.3173 132.582 75.8131 133.571 74.8786C134.56 73.944 135.138 72.6555 135.179 71.2954Z" fill="white"/>
</g>
<path d="M51.5721 49.0541L51.0369 49.6619L50.4698 50.3196L49.3539 51.6805C48.6281 52.5877 47.9114 53.495 47.2537 54.4476C45.9348 56.232 44.8224 58.1601 43.9377 60.1949C43.7473 60.6625 43.5808 61.1394 43.4387 61.6238C43.3133 62.0524 43.2252 62.491 43.1756 62.9348C43.0735 63.9905 43.0659 65.0531 43.153 66.1101C43.3587 68.4539 43.7026 70.7835 44.1827 73.0868L41.2387 74.2798C40.5757 73.1499 39.9921 71.9752 39.4923 70.7643C38.9797 69.5338 38.5567 68.2679 38.2267 66.9765C37.861 65.5984 37.6541 64.183 37.6097 62.7579C37.583 61.96 37.6423 61.1616 37.7866 60.3764C37.9249 59.6503 38.1036 58.9324 38.3219 58.2262C39.194 55.6169 40.4147 53.1373 41.9509 50.8549C42.6903 49.7436 43.4614 48.6685 44.287 47.6433C44.6953 47.1262 45.1171 46.6196 45.5526 46.1237C45.7703 45.8742 46.0062 45.6247 46.2149 45.3797C46.4236 45.1348 46.6685 44.9261 46.9407 44.6222L51.5721 49.0541Z" fill="#263238"/>
<path d="M44.6909 73.1367L45.9157 74.2481L41.6108 76.5162C41.4127 76.1538 41.2604 75.7683 41.1572 75.3685C41.0882 75.0812 41.0771 74.7831 41.1247 74.4915C41.1722 74.1999 41.2774 73.9208 41.4341 73.6703C41.5908 73.4198 41.7958 73.2031 42.0373 73.0328C42.2787 72.8626 42.5516 72.7421 42.8401 72.6785C43.1628 72.602 43.4991 72.6036 43.821 72.6833C44.143 72.763 44.4412 72.9184 44.6909 73.1367Z" fill="#FFB573"/>
<path d="M47.5669 77.0378L43.9288 78.7434L41.6108 76.5071L45.9157 74.248L47.5669 77.0378Z" fill="#FFB573"/>
<path d="M63.2803 32.4379C63.2803 32.7418 63.4073 32.9913 63.6023 32.9913C63.7974 32.9913 63.9743 32.7554 63.9925 32.456C64.0106 32.1566 63.87 31.9026 63.6704 31.9026C63.4708 31.9026 63.2984 32.1385 63.2803 32.4379Z" fill="#263238"/>
<path d="M63.38 32.9868C63.6805 33.914 64.1112 34.7937 64.6592 35.5997C64.4487 35.7433 64.2093 35.8393 63.9577 35.8808C63.7062 35.9223 63.4487 35.9084 63.2031 35.8401L63.38 32.9868Z" fill="#FF5652"/>
<path d="M62.2866 30.7413C62.3092 30.7458 62.3325 30.7458 62.3551 30.7411C62.3777 30.7364 62.3991 30.7272 62.4181 30.7141C62.5988 30.5808 62.8089 30.4927 63.0306 30.4572C63.2524 30.4216 63.4795 30.4398 63.6928 30.51C63.7374 30.5268 63.7867 30.5257 63.8306 30.5072C63.8745 30.4886 63.9096 30.4539 63.9287 30.4102C63.9385 30.3894 63.9441 30.3668 63.945 30.3439C63.946 30.3209 63.9424 30.2979 63.9344 30.2764C63.9263 30.2548 63.914 30.2351 63.8983 30.2183C63.8825 30.2016 63.8635 30.1882 63.8425 30.1789C63.5735 30.0914 63.2879 30.0679 63.0083 30.1105C62.7287 30.153 62.4629 30.2603 62.2321 30.4238C62.212 30.4359 62.1946 30.4519 62.1807 30.4708C62.1668 30.4897 62.1569 30.5112 62.1514 30.534C62.1459 30.5567 62.145 30.5804 62.1487 30.6035C62.1525 30.6267 62.1608 30.6489 62.1732 30.6688C62.1862 30.6879 62.203 30.7041 62.2225 30.7166C62.242 30.7291 62.2638 30.7375 62.2866 30.7413Z" fill="#263238"/>
<path d="M54.5527 33.59C54.9156 36.3752 55.0381 41.9955 53.0059 43.5696C53.0059 43.5696 53.6681 45.8377 58.7532 46.4773C64.3463 47.1713 61.6065 44.055 61.6065 44.055C58.599 42.9481 58.8213 40.7118 59.4926 38.666L54.5527 33.59Z" fill="#FFB573"/>
<path d="M41.0302 156.09H41.0665C41.1359 156.058 41.1945 156.007 41.2348 155.943C41.2752 155.878 41.2955 155.803 41.2933 155.727C41.2991 155.668 41.2916 155.608 41.2711 155.552C41.2507 155.497 41.218 155.446 41.1753 155.405C40.7898 155.015 39.5332 155.092 39.4833 155.096C39.4659 155.097 39.449 155.102 39.4345 155.112C39.42 155.121 39.4086 155.135 39.4017 155.151C39.3929 155.165 39.3882 155.182 39.3882 155.198C39.3882 155.215 39.3929 155.232 39.4017 155.246C39.6829 155.505 40.5675 156.217 41.0302 156.09ZM39.7011 155.255C40.1229 155.255 40.817 155.291 41.0619 155.523C41.0866 155.547 41.1055 155.576 41.1173 155.608C41.1291 155.64 41.1334 155.675 41.13 155.709C41.13 155.877 41.0438 155.904 41.0211 155.913C40.758 156.013 40.1184 155.623 39.7011 155.255Z" fill="#CFD8DC"/>
<path d="M40.1137 155.164C40.5673 155.046 41.0482 154.82 41.1525 154.566C41.1791 154.505 41.1832 154.437 41.1641 154.374C41.145 154.311 41.1038 154.256 41.0482 154.221C40.995 154.179 40.9337 154.148 40.8681 154.131C40.8025 154.114 40.7341 154.11 40.6671 154.121C40.1092 154.203 39.4423 155.083 39.4151 155.124C39.4062 155.137 39.4014 155.153 39.4014 155.169C39.4014 155.185 39.4062 155.201 39.4151 155.214C39.4223 155.228 39.4327 155.239 39.4453 155.248C39.4579 155.257 39.4725 155.262 39.4877 155.264C39.6999 155.259 39.9104 155.225 40.1137 155.164ZM40.6218 154.312H40.6853C40.7279 154.303 40.7719 154.304 40.8142 154.314C40.8565 154.324 40.8961 154.344 40.9302 154.371C41.0209 154.443 40.9983 154.493 40.9892 154.516C40.8939 154.752 40.1545 155.037 39.6737 155.092C39.9191 154.756 40.2452 154.488 40.6218 154.312Z" fill="#CFD8DC"/>
<path d="M63.8653 160.236C64.2581 160.288 64.6557 160.187 64.9767 159.955C65.0173 159.898 65.0392 159.83 65.0392 159.76C65.0392 159.69 65.0173 159.622 64.9767 159.565C64.9484 159.513 64.9095 159.469 64.8626 159.433C64.8157 159.398 64.7618 159.373 64.7045 159.361C64.0876 159.188 62.7494 159.932 62.695 159.964C62.6791 159.974 62.6662 159.988 62.6574 160.005C62.6487 160.022 62.6444 160.04 62.6451 160.059C62.6475 160.077 62.6554 160.093 62.6676 160.106C62.6798 160.119 62.6957 160.128 62.7131 160.132C63.0935 160.199 63.479 160.234 63.8653 160.236ZM64.4913 159.51C64.547 159.503 64.6034 159.503 64.6591 159.51C64.6948 159.518 64.7284 159.533 64.7574 159.555C64.7864 159.577 64.8102 159.605 64.827 159.637C64.886 159.746 64.8633 159.801 64.827 159.832C64.641 160.073 63.6929 160.077 63.0125 159.982C63.4707 159.732 63.9727 159.572 64.4913 159.51Z" fill="#CFD8DC"/>
<path d="M62.7404 160.127H62.7767C63.2303 159.928 64.1647 159.116 64.1375 158.694C64.1375 158.594 64.0604 158.471 63.8154 158.444C63.6353 158.428 63.4561 158.484 63.3165 158.598C62.8266 158.989 62.6859 159.996 62.6769 160.041C62.6761 160.056 62.6791 160.071 62.6854 160.084C62.6917 160.097 62.7013 160.109 62.7132 160.118C62.7215 160.123 62.7308 160.126 62.7404 160.127ZM63.7157 158.608H63.7701C63.9289 158.608 63.9334 158.689 63.9379 158.707C63.9697 158.961 63.3346 159.615 62.8629 159.873C62.9227 159.443 63.1108 159.042 63.4027 158.721C63.4915 158.65 63.602 158.612 63.7157 158.612V158.608Z" fill="#CFD8DC"/>
<path d="M58.6304 160.041H62.3727L63.094 151.377H59.3516L58.6304 160.041Z" fill="#FFB573"/>
<path d="M35.2734 155.038L38.8343 155.732L42.1185 147.258L38.5576 146.564L35.2734 155.038Z" fill="#FFB573"/>
<path d="M39.4876 154.656L35.9675 152.497C35.9029 152.459 35.8273 152.445 35.7531 152.455C35.679 152.466 35.6106 152.502 35.5593 152.556L33.1143 155.028C33.0549 155.086 33.0094 155.156 32.9813 155.234C32.9531 155.312 32.943 155.395 32.9518 155.477C32.9605 155.559 32.9879 155.638 33.0317 155.708C33.0756 155.778 33.1349 155.837 33.205 155.881C34.4479 156.611 35.0921 156.906 36.6389 157.854C37.5915 158.44 39.5511 160.009 40.971 160.631C42.3908 161.252 43.2391 159.909 42.7265 159.524C40.3949 157.805 40.1817 156.348 39.8641 155.169C39.8081 154.957 39.6736 154.773 39.4876 154.656Z" fill="#263238"/>
<path d="M62.3636 159.61H58.2811C58.2061 159.61 58.1332 159.635 58.074 159.681C58.0148 159.727 57.9727 159.791 57.9545 159.864L57.079 163.194C57.056 163.272 57.0519 163.355 57.0671 163.435C57.0823 163.515 57.1163 163.591 57.1663 163.656C57.2163 163.72 57.2809 163.772 57.3548 163.807C57.4288 163.842 57.5099 163.858 57.5916 163.856C59.0658 163.833 61.2205 163.747 63.035 163.747C65.1988 163.747 65.5526 163.865 68.0928 163.865C69.6306 163.865 70.116 162.309 69.4809 162.168C66.5778 161.529 65.7068 161.461 63.2391 159.9C62.9799 159.724 62.6768 159.624 62.3636 159.61Z" fill="#263238"/>
<path d="M67.7525 56.5386C67.6981 57.8088 67.6119 59.2105 67.4758 60.7573C67.122 64.9533 66.4551 70.1835 65.312 76.6839H45.2983C45.2983 73.8442 47.4576 60.8072 45.9017 47.4118C45.8088 46.5091 46.0715 45.6057 46.6338 44.8934C47.1962 44.1811 48.014 43.716 48.9137 43.5969C49.9298 43.4653 51.0684 43.3519 52.1843 43.2975C55.0186 43.1341 57.8599 43.1341 60.6942 43.2975C61.9435 43.4184 63.1853 43.6077 64.4138 43.8645C65.1188 44.0089 65.7659 44.3571 66.2747 44.866C66.7836 45.3748 67.1318 46.0219 67.2762 46.7269C67.6345 48.5368 67.9566 51.5579 67.7525 56.5386Z" fill="#263238"/>
<path opacity="0.3" d="M63.6928 76.7429C63.6779 76.7396 63.6648 76.7307 63.6564 76.718C63.6479 76.7053 63.6447 76.6898 63.6474 76.6748C64.6953 70.6916 65.4256 65.3344 65.8112 60.7528C65.9382 59.2922 66.0289 57.8723 66.0834 56.5342C66.2966 51.381 65.9291 48.369 65.5844 46.736C65.5831 46.7288 65.5832 46.7215 65.5848 46.7144C65.5864 46.7073 65.5894 46.7006 65.5936 46.6947C65.5979 46.6887 65.6032 46.6837 65.6094 46.6799C65.6156 46.6761 65.6225 46.6736 65.6297 46.6725C65.6369 46.6704 65.6444 46.6699 65.6517 46.6709C65.6591 46.6719 65.6662 46.6743 65.6726 46.6782C65.679 46.682 65.6845 46.6871 65.6888 46.6931C65.6932 46.6992 65.6962 46.706 65.6978 46.7133C66.1922 49.0494 66.3646 52.4516 66.1968 56.5387C66.1423 57.8995 66.0516 59.3012 65.9246 60.7619C65.539 65.3434 64.8087 70.7052 63.7563 76.693C63.7558 76.7006 63.7537 76.708 63.7501 76.7147C63.7465 76.7214 63.7416 76.7273 63.7356 76.732C63.7296 76.7367 63.7227 76.7401 63.7153 76.742C63.708 76.7439 63.7003 76.7442 63.6928 76.7429Z" fill="black"/>
<path opacity="0.2" d="M64.2053 53.4902C64.1555 56.3163 65.6116 62.6624 66.9815 65.561C67.1902 63.8237 67.358 62.2269 67.4805 60.7572C67.5848 59.5007 67.6619 58.344 67.7164 57.2734L64.2053 53.4902Z" fill="black"/>
<path d="M80.5086 60.4034L83.8518 58.4165L84.4596 62.989C84.4596 62.989 81.8105 63.7284 80.3271 62.8348L80.5086 60.4034Z" fill="#FFB573"/>
<path d="M88.2471 58.7431L87.1448 62.3947L84.4594 62.989L83.8516 58.4165L88.2471 58.7431Z" fill="#FFB573"/>
<path d="M66.7365 45.8153C66.9088 46.2145 67.0223 46.5048 67.1357 46.8042C67.2491 47.1035 67.3534 47.3848 67.4532 47.6615L68.0338 49.3127C68.4149 50.3968 68.7823 51.4628 69.1724 52.488C69.5625 53.5132 69.9526 54.5656 70.3836 55.5409C70.7729 56.4715 71.2277 57.3735 71.7444 58.2399C71.9465 58.5787 72.174 58.9017 72.4249 59.2061C72.5201 59.324 72.6063 59.4057 72.6426 59.4465C72.6789 59.4874 72.6698 59.4783 72.6426 59.4783C72.6154 59.4783 72.6426 59.4783 72.6698 59.4783L72.7379 59.5191C73.024 59.6637 73.3296 59.7661 73.6451 59.823C74.095 59.8991 74.5498 59.9431 75.006 59.9546C77.1462 59.9338 79.2804 59.7243 81.3838 59.3286H81.4927C81.8591 59.2687 82.235 59.3377 82.5563 59.5237C82.8776 59.7098 83.1246 60.0014 83.255 60.349C83.3855 60.6966 83.3915 61.0787 83.272 61.4303C83.1525 61.7818 82.9149 62.0811 82.5995 62.2771C82.0625 62.6182 81.5083 62.9316 80.9393 63.2161C80.3813 63.5019 79.8098 63.7604 79.2201 63.9963C78.0085 64.4995 76.7462 64.8706 75.455 65.1032C74.7443 65.2336 74.0229 65.2973 73.3003 65.2937C72.4556 65.3032 71.6142 65.1839 70.8054 64.9399L70.4652 64.8219C70.3373 64.7823 70.2129 64.7322 70.0933 64.6722C69.8354 64.5533 69.5867 64.4153 69.3493 64.2594C68.9495 63.9929 68.5759 63.6892 68.2334 63.3522C67.6742 62.8157 67.1684 62.2262 66.7229 61.5921C65.2937 59.4636 64.1084 57.1812 63.1892 54.7879C62.7356 53.6583 62.3092 52.5198 61.919 51.4129L61.3475 49.7572L61.0753 48.9679C60.9937 48.723 60.8984 48.4644 60.844 48.3283L60.8122 48.2376C60.5499 47.4688 60.5895 46.629 60.9231 45.8883C61.2567 45.1476 61.8593 44.5614 62.6088 44.2483C63.3584 43.9352 64.199 43.9186 64.9603 44.202C65.7216 44.4854 66.3468 45.0475 66.7093 45.7744L66.7365 45.8153Z" fill="#263238"/>
<path opacity="0.2" d="M63.0938 151.377L62.7218 155.845H58.9795L59.3515 151.377H63.0938Z" fill="black"/>
<path opacity="0.2" d="M38.5579 146.568L42.1188 147.262L40.4222 151.626L36.8613 150.932L38.5579 146.568Z" fill="black"/>
<path d="M53.2639 31.5895C53.2639 35.3001 53.0734 37.4866 54.8243 39.4235C57.4644 42.3403 62.1412 40.739 63.2481 37.0602C64.2506 33.7442 64.0827 28.2328 60.5263 26.6814C56.97 25.13 53.2639 27.8789 53.2639 31.5895Z" fill="#FFB573"/>
<path d="M61.6517 33.454C61.9692 32.5831 63.2394 28.8407 60.8851 27.6704C58.5308 26.5 55.4417 26.1417 53.5228 26.9718C51.604 27.8019 50.2114 30.8457 50.2114 30.8457C50.2114 30.8457 51.1187 37.2554 54.8565 38.4075C58.5943 39.5597 62.8311 35.1188 61.6517 33.454Z" fill="#263238"/>
<path d="M60.7443 28.1511C61.1476 28.0213 61.5263 27.8251 61.8648 27.5705C63.2256 26.2504 60.8169 25.3659 58.4309 25.1481C55.7092 24.9077 51.8625 25.9828 50.3247 27.9742C51.7808 28.7226 58.6668 28.7544 60.7443 28.1511Z" fill="#263238"/>
<path d="M60.5224 27.7792C60.8816 27.7771 61.2377 27.7126 61.5748 27.5887C63.3893 26.6815 61.2981 25.4884 59.4292 24.6901C57.3108 23.7828 53.9041 23.6785 52.144 24.9305C53.1284 25.9284 58.6852 27.7429 60.5224 27.7792Z" fill="#263238"/>
<path d="M60.0229 32.9413C60.0248 33.7567 60.3013 34.5477 60.8077 35.1868C61.4836 36.0078 62.2774 35.5315 62.4725 34.5562C62.6494 33.6762 62.5133 32.1883 61.6514 31.7211C60.7896 31.2539 60.032 31.9434 60.0229 32.9413Z" fill="#FFB573"/>
<path d="M58.213 76.6838C58.213 76.6838 58.8299 105.003 55.0377 115.446C49.0862 132.003 42.604 151.182 42.604 151.182L35.7725 149.662C35.7725 149.662 41.2794 128.773 44.2687 114.842C46.9905 102.322 44.8857 86.9084 45.2985 76.6838H58.213Z" fill="#CFD8DC"/>
<g opacity="0.3">
<path d="M58.213 76.6838C58.213 76.6838 58.8299 105.003 55.0377 115.446C49.0862 132.003 42.604 151.182 42.604 151.182L35.7725 149.662C35.7725 149.662 41.2794 128.773 44.2687 114.842C46.9905 102.322 44.8857 86.9084 45.2985 76.6838H58.213Z" fill="white"/>
</g>
<path opacity="0.2" d="M58.2446 83.012C56.3802 82.4631 54.8969 82.6718 54.4478 84.3502C53.273 88.7367 55.8087 100.309 57.0743 105.602C57.9861 97.9814 58.2129 88.9091 58.2446 83.012Z" fill="black"/>
<path d="M44.4551 149.109C44.4868 149.109 42.7631 151.327 42.7631 151.327L35.292 149.667L36.1448 147.104L44.4551 149.109Z" fill="#CFD8DC"/>
<path d="M65.3213 76.6838C65.3213 76.6838 69.4765 100.481 69.4039 111.894C69.3268 124.69 64.1465 154.988 64.1465 154.988H57.7958C57.7958 154.988 58.5942 124.541 58.7847 112.883C58.9933 100.181 52.1392 76.6929 52.1392 76.6929L65.3213 76.6838Z" fill="#CFD8DC"/>
<g opacity="0.3">
<path d="M65.3213 76.6838C65.3213 76.6838 69.4765 100.481 69.4039 111.894C69.3268 124.69 64.1465 154.988 64.1465 154.988H57.7958C57.7958 154.988 58.5942 124.541 58.7847 112.883C58.9933 100.181 52.1392 76.6929 52.1392 76.6929L65.3213 76.6838Z" fill="white"/>
</g>
<path d="M65.4758 152.457C65.503 152.457 65.0222 155.088 65.0222 155.088H57.3107L57.1973 152.738L65.4758 152.457Z" fill="#CFD8DC"/>
<path d="M58.1861 84.8264C58.1669 84.8324 58.1464 84.8324 58.1271 84.8264L55.4871 83.2705C55.4725 83.2607 55.4602 83.2479 55.4508 83.2331C55.4415 83.2183 55.4353 83.2017 55.4326 83.1843L54.8883 78.9294C54.886 78.9132 54.8873 78.8967 54.892 78.881C54.8967 78.8654 54.9047 78.8509 54.9155 78.8386C54.9267 78.827 54.94 78.8178 54.9549 78.8116C54.9697 78.8053 54.9856 78.8022 55.0017 78.8024H60.0641C60.0922 78.8011 60.1198 78.8108 60.1409 78.8294C60.1621 78.848 60.1752 78.8741 60.1775 78.9022L60.6629 83.021C60.665 83.042 60.6616 83.0631 60.6528 83.0823C60.644 83.1014 60.6303 83.1178 60.613 83.1299L58.2451 84.7901C58.2299 84.8083 58.2092 84.8211 58.1861 84.8264ZM55.6504 83.0845L58.1816 84.5769L60.4497 82.9938L59.9961 79.0428H55.1333L55.6504 83.0845Z" fill="white"/>
</svg>
