<svg width="205" height="205" viewBox="0 0 205 205" fill="none" xmlns="http://www.w3.org/2000/svg">
<path fill-rule="evenodd" clip-rule="evenodd" d="M0 102.5C0 75.3153 10.7991 49.244 30.0216 30.0216C49.244 10.7991 75.3153 0 102.5 0C129.685 0 155.756 10.7991 174.978 30.0216C194.201 49.244 205 75.3153 205 102.5C205 129.685 194.201 155.756 174.978 174.978C155.756 194.201 129.685 205 102.5 205C75.3153 205 49.244 194.201 30.0216 174.978C10.7991 155.756 0 129.685 0 102.5H0ZM96.6507 146.37L155.663 72.5973L145.003 64.0693L94.6827 126.95L59.04 97.252L50.2933 107.748L96.6507 146.384V146.37Z" fill="#299FD8"/>
</svg>
