<svg width="55" height="55" viewBox="0 0 55 55" fill="none" xmlns="http://www.w3.org/2000/svg">
<path d="M27.5 3.4375C27.1124 3.43728 26.7361 3.56806 26.4322 3.80862C26.1283 4.04917 25.9147 4.38538 25.8259 4.76266L22.8662 17.3473C19.2772 16.8548 15.6241 17.5014 12.4222 19.1959C9.22027 20.8904 6.63113 23.5474 5.01995 26.7921C3.40877 30.0367 2.85686 33.7053 3.44207 37.2804C4.02728 40.8555 5.72007 44.1567 8.28168 46.7183C10.8433 49.2799 14.1445 50.9727 17.7195 51.5579C21.2946 52.1431 24.9632 51.5912 28.2079 49.98C31.4526 48.3689 34.1095 45.7797 35.8041 42.5778C37.4986 39.3759 38.1452 35.7228 37.6526 32.1337L50.2373 29.1741C50.6146 29.0853 50.9508 28.8716 51.1914 28.5677C51.4319 28.2639 51.5627 27.8876 51.5625 27.5C51.5552 21.1205 49.0177 15.0043 44.5067 10.4933C39.9957 5.98226 33.8795 3.44478 27.5 3.4375ZM19.4098 35.5902C19.7321 35.9125 20.1692 36.0937 20.625 36.0937C20.7575 36.0939 20.8895 36.0789 21.0186 36.0491L27.4845 34.5262C27.4559 35.8719 27.0326 37.1795 26.267 38.2866C25.5015 39.3936 24.4276 40.2514 23.1787 40.7532C21.9298 41.255 20.561 41.3789 19.2423 41.1093C17.9236 40.8397 16.7132 40.1886 15.7614 39.2368C14.8097 38.2851 14.1586 37.0747 13.889 35.756C13.6194 34.4373 13.7432 33.0685 14.2451 31.8196C14.7469 30.5707 15.6046 29.4967 16.7117 28.7312C17.8188 27.9657 19.1264 27.5423 20.472 27.5137L18.9509 33.9814C18.8841 34.2664 18.8911 34.5638 18.9714 34.8454C19.0517 35.1269 19.2026 35.3833 19.4098 35.5902ZM22.9333 32.0667L26.8365 15.4808C30.1838 15.5348 33.3788 16.8885 35.746 19.2557C38.1132 21.6229 39.4669 24.8179 39.5209 28.1652L22.9333 32.0667ZM34.375 34.375C34.375 37.0945 33.5686 39.7529 32.0577 42.0141C30.5468 44.2753 28.3994 46.0376 25.8869 47.0783C23.3744 48.119 20.6097 48.3913 17.9425 47.8608C15.2753 47.3302 12.8252 46.0207 10.9023 44.0977C8.9793 42.1747 7.66973 39.7247 7.13919 37.0575C6.60864 34.3903 6.88094 31.6256 7.92164 29.1131C8.96235 26.6006 10.7247 24.4532 12.9859 22.9423C15.2471 21.4314 17.9055 20.625 20.625 20.625C21.1096 20.6267 21.5938 20.6536 22.0756 20.7058L21.2781 24.0952C21.0598 24.0814 20.8433 24.0625 20.625 24.0625C18.5854 24.0625 16.5915 24.6673 14.8957 25.8005C13.1998 26.9336 11.878 28.5442 11.0975 30.4286C10.3169 32.3129 10.1127 34.3864 10.5106 36.3869C10.9085 38.3873 11.8907 40.2248 13.3329 41.667C14.7752 43.1093 16.6127 44.0914 18.6131 44.4893C20.6135 44.8873 22.687 44.683 24.5714 43.9025C26.4558 43.122 28.0664 41.8002 29.1995 40.1043C30.3327 38.4084 30.9375 36.4146 30.9375 34.375C30.9375 34.1567 30.9186 33.9402 30.9048 33.7219L34.2942 32.9244C34.3463 33.4062 34.3733 33.8904 34.375 34.375ZM42.9172 27.3625C42.6701 23.391 40.981 19.6464 38.1673 16.8327C35.3536 14.019 31.609 12.3299 27.6375 12.0828L28.8509 6.91797C33.8412 7.25254 38.5407 9.38609 42.0773 12.9227C45.6139 16.4593 47.7474 21.1588 48.082 26.1491L42.9172 27.3625Z" fill="white"/>
</svg>
