<svg width="18" height="18" viewBox="0 0 18 18" fill="none" xmlns="http://www.w3.org/2000/svg">
<path d="M6.32813 6.75C6.32813 6.63811 6.37257 6.53081 6.45169 6.45169C6.53081 6.37257 6.63811 6.32813 6.75 6.32813H11.25C11.3619 6.32813 11.4692 6.37257 11.5483 6.45169C11.6274 6.53081 11.6719 6.63811 11.6719 6.75C11.6719 6.86189 11.6274 6.96919 11.5483 7.04831C11.4692 7.12743 11.3619 7.17188 11.25 7.17188H6.75C6.63811 7.17188 6.53081 7.12743 6.45169 7.04831C6.37257 6.96919 6.32813 6.86189 6.32813 6.75ZM6.75 9.42188H11.25C11.3619 9.42188 11.4692 9.37743 11.5483 9.29831C11.6274 9.21919 11.6719 9.11189 11.6719 9C11.6719 8.88811 11.6274 8.78081 11.5483 8.70169C11.4692 8.62257 11.3619 8.57813 11.25 8.57813H6.75C6.63811 8.57813 6.53081 8.62257 6.45169 8.70169C6.37257 8.78081 6.32813 8.88811 6.32813 9C6.32813 9.11189 6.37257 9.21919 6.45169 9.29831C6.53081 9.37743 6.63811 9.42188 6.75 9.42188ZM9 10.8281H6.75C6.63811 10.8281 6.53081 10.8726 6.45169 10.9517C6.37257 11.0308 6.32813 11.1381 6.32813 11.25C6.32813 11.3619 6.37257 11.4692 6.45169 11.5483C6.53081 11.6274 6.63811 11.6719 6.75 11.6719H9C9.11189 11.6719 9.21919 11.6274 9.29831 11.5483C9.37743 11.4692 9.42188 11.3619 9.42188 11.25C9.42188 11.1381 9.37743 11.0308 9.29831 10.9517C9.21919 10.8726 9.11189 10.8281 9 10.8281ZM15.6094 3.375V11.0173C15.6096 11.1466 15.5843 11.2747 15.5348 11.3941C15.4853 11.5136 15.4127 11.6221 15.3211 11.7134L11.7134 15.3211C11.6221 15.4127 11.5136 15.4853 11.3941 15.5348C11.2747 15.5843 11.1466 15.6096 11.0173 15.6094H3.375C3.11393 15.6094 2.86355 15.5057 2.67894 15.3211C2.49434 15.1365 2.39062 14.8861 2.39062 14.625V3.375C2.39062 3.11393 2.49434 2.86355 2.67894 2.67894C2.86355 2.49434 3.11393 2.39063 3.375 2.39062H14.625C14.8861 2.39062 15.1365 2.49434 15.3211 2.67894C15.5057 2.86355 15.6094 3.11393 15.6094 3.375ZM3.375 14.7656H10.8281V11.25C10.8281 11.1381 10.8726 11.0308 10.9517 10.9517C11.0308 10.8726 11.1381 10.8281 11.25 10.8281H14.7656V3.375C14.7656 3.3377 14.7508 3.30194 14.7244 3.27556C14.6981 3.24919 14.6623 3.23438 14.625 3.23438H3.375C3.3377 3.23438 3.30194 3.24919 3.27556 3.27556C3.24919 3.30194 3.23438 3.3377 3.23438 3.375V14.625C3.23438 14.6623 3.24919 14.6981 3.27556 14.7244C3.30194 14.7508 3.3377 14.7656 3.375 14.7656ZM14.1694 11.6719H11.6719V14.1694L14.1694 11.6719Z" fill="#299FD8"/>
</svg>
