<svg width="47" height="47" viewBox="0 0 47 47" fill="none" xmlns="http://www.w3.org/2000/svg">
<path d="M19.5837 23.5C23.9116 23.5 27.417 19.9946 27.417 15.6667C27.417 11.3388 23.9116 7.83337 19.5837 7.83337C15.2557 7.83337 11.7503 11.3388 11.7503 15.6667C11.7503 19.9946 15.2557 23.5 19.5837 23.5ZM19.5837 11.75C20.6224 11.75 21.6186 12.1627 22.3532 12.8972C23.0877 13.6317 23.5003 14.6279 23.5003 15.6667C23.5003 16.7055 23.0877 17.7017 22.3532 18.4362C21.6186 19.1707 20.6224 19.5834 19.5837 19.5834C17.4099 19.5834 15.667 17.8405 15.667 15.6667C15.667 13.493 17.4295 11.75 19.5837 11.75ZM23.5003 39.1667H3.91699V33.2917C3.91699 28.063 14.3549 25.4584 19.5837 25.4584C21.542 25.4584 24.2445 25.8305 26.8491 26.555C26.2616 27.6517 25.9091 28.8659 25.8699 30.1388C23.9507 29.5709 21.7574 29.1792 19.5837 29.1792C13.7674 29.1792 7.63783 32.0384 7.63783 33.2917V35.4459H23.5003V39.1667ZM40.7337 33.2917V30.3542C40.7337 27.6125 37.992 25.4584 35.2503 25.4584C32.5087 25.4584 29.767 27.6125 29.767 30.3542V33.2917C28.592 33.2917 27.417 34.4667 27.417 35.6417V42.4959C27.417 43.8667 28.592 45.0417 29.767 45.0417H40.5378C41.9087 45.0417 43.0837 43.8667 43.0837 42.6917V35.8375C43.0837 34.4667 41.9087 33.2917 40.7337 33.2917ZM38.1878 33.2917H32.3128V30.3542C32.3128 28.7875 33.6837 27.8084 35.2503 27.8084C36.817 27.8084 38.1878 28.7875 38.1878 30.3542V33.2917Z" fill="white"/>
</svg>
