<svg width="642" height="642" viewBox="0 0 642 642" fill="none" xmlns="http://www.w3.org/2000/svg">
<path d="M565.871 338.668C568.439 304.552 560.504 268.934 549.873 237.232C534.144 190.032 503.431 141.664 451.814 130.493C422.051 124.073 391.761 130.955 366.235 147.082C341.698 162.593 322.579 182.636 292.392 186.514C261.872 190.443 230.555 188.864 199.88 188.864C121.004 188.864 56.9966 271.72 72.9952 358.031C88.9939 444.341 164.442 504.188 228.449 504.188C285.972 504.188 333.301 469.687 387.935 460.417C415.027 455.82 442.235 461.264 469.045 454.382C500.208 446.37 529.509 427.277 546.778 399.632C558.54 380.783 564.266 360.021 565.871 338.668Z" fill="#299FD8"/>
<path opacity="0.7" d="M565.871 338.668C568.439 304.552 560.504 268.934 549.873 237.232C534.144 190.032 503.431 141.664 451.814 130.493C422.051 124.073 391.761 130.955 366.235 147.082C341.698 162.593 322.579 182.636 292.392 186.514C261.872 190.443 230.555 188.864 199.88 188.864C121.004 188.864 56.9966 271.72 72.9952 358.031C88.9939 444.341 164.442 504.188 228.449 504.188C285.972 504.188 333.301 469.687 387.935 460.417C415.027 455.82 442.235 461.264 469.045 454.382C500.208 446.37 529.509 427.277 546.778 399.632C558.54 380.783 564.266 360.021 565.871 338.668Z" fill="white"/>
<path d="M556.64 326.688C556.64 326.688 556.64 320.268 547.652 311.37C538.664 302.472 532.963 297.31 532.963 297.31C532.963 297.31 528.495 311.999 536.815 320.949C542.923 327.234 549.546 332.998 556.614 338.18L556.64 326.688Z" fill="#2AA316"/>
<path d="M543.672 366.569C543.672 366.569 543.672 360.149 534.684 351.251C525.696 342.353 520.021 337.191 520.021 337.191C520.021 337.191 515.54 351.88 523.873 360.83C529.981 367.115 536.603 372.879 543.672 378.061V366.569Z" fill="#2AA316"/>
<path d="M556.075 337.564C556.075 337.564 556.756 331.221 566.591 323.273C576.426 315.325 582.68 310.856 582.68 310.856C582.68 310.856 585.569 325.93 576.375 333.968C569.638 339.575 562.444 344.608 554.868 349.017L556.075 337.564Z" fill="#2AA316"/>
<path d="M540.41 384.661C540.41 384.661 541.694 378.421 552.364 371.551C563.034 364.682 569.66 360.894 569.66 360.894C569.66 360.894 570.944 376.199 560.967 383.197C553.677 388.066 545.993 392.318 537.996 395.909L540.41 384.661Z" fill="#2AA316"/>
<path d="M543.351 436.021C543.351 436.021 543.351 429.601 552.339 420.69C561.327 411.779 567.015 406.643 567.015 406.643C567.015 406.643 571.496 421.332 563.163 430.268C557.057 436.56 550.434 442.329 543.363 447.513L543.351 436.021Z" fill="#2AA316"/>
<path d="M543.209 448.553C543.209 448.553 544.108 442.235 536.533 432.117C528.957 421.999 523.988 416.119 523.988 416.119C523.988 416.119 517.478 430.024 524.424 440.052C529.574 447.144 535.308 453.793 541.566 459.929L543.209 448.553Z" fill="#2AA316"/>
<path d="M534.389 485.699C534.389 485.699 534.389 479.279 543.377 470.381C552.365 461.482 558.066 456.321 558.066 456.321C558.066 456.321 562.534 471.01 554.214 479.959C548.104 486.247 541.481 492.015 534.414 497.203L534.389 485.699Z" fill="#2AA316"/>
<path d="M540.359 519.378C540.359 519.378 538.741 513.202 545.123 502.288C551.504 491.374 555.78 484.98 555.78 484.98C555.78 484.98 563.818 498.051 558.052 508.811C553.739 516.439 548.796 523.693 543.274 530.497L540.359 519.378Z" fill="#2AA316"/>
<path d="M557.449 325.057C557 331.705 556.185 338.324 555.01 344.882C551.466 363.141 542.632 374.928 539.101 391.414C535.57 407.901 545.713 429.151 542.953 450.337C540.192 471.523 532 483.298 534.35 497.434C536.7 511.571 549.077 549.86 549.077 549.86" stroke="#263238" stroke-linecap="round" stroke-linejoin="round"/>
<path d="M555.998 341.814L565.628 334.418" stroke="#263238" stroke-linecap="round" stroke-linejoin="round"/>
<path d="M556.448 333.301L552.403 326.123" stroke="#263238" stroke-linecap="round" stroke-linejoin="round"/>
<path d="M539.64 390.657C539.64 390.657 547.703 384.609 555.998 378.562" stroke="#263238" stroke-linecap="round" stroke-linejoin="round"/>
<path d="M543.671 378.061C543.671 378.061 536.943 364.887 529.329 356.156" stroke="#263238" stroke-linecap="round" stroke-linejoin="round"/>
<path d="M543.672 445.111C548.272 436.61 554.085 428.825 560.929 421.999" stroke="#263238" stroke-linecap="round" stroke-linejoin="round"/>
<path d="M542.105 454.074C539.658 448.31 536.734 442.761 533.361 437.484C528.662 430.538 527.981 429.639 527.981 429.639" stroke="#263238" stroke-linecap="round" stroke-linejoin="round"/>
<path d="M534.389 497.434C536.436 492.374 538.865 487.476 541.656 482.784C544.449 478.423 547.597 474.3 551.068 470.458" stroke="#263238" stroke-linecap="round" stroke-linejoin="round"/>
<path d="M543.273 530.497C542.805 525.658 543.639 520.782 545.687 516.373C549.051 509.876 552.852 501.363 554.418 497.999" stroke="#263238" stroke-linecap="round" stroke-linejoin="round"/>
<path d="M483.683 412.01C483.683 412.01 482.99 408.004 487.625 401.417C492.26 394.83 495.329 391.016 495.329 391.016C495.329 391.016 499.72 399.748 495.483 406.245C492.336 410.853 488.81 415.191 484.942 419.213L483.683 412.01Z" fill="#2AA316"/>
<path d="M496.151 435.61C496.151 435.61 495.458 431.604 500.093 425.017C504.728 418.43 507.797 414.616 507.797 414.616C507.797 414.616 512.188 423.348 507.951 429.858C504.802 434.46 501.276 438.794 497.409 442.813L496.151 435.61Z" fill="#2AA316"/>
<path d="M485.211 418.764C485.211 418.764 484.107 414.912 477.071 410.944C470.034 406.977 465.643 404.896 465.643 404.896C465.643 404.896 465.463 414.668 472.063 418.699C476.895 421.481 481.95 423.856 487.176 425.8L485.211 418.764Z" fill="#2AA316"/>
<path d="M500.157 446.601C500.157 446.601 498.642 442.826 491.246 439.667C483.85 436.509 479.228 434.865 479.228 434.865C479.228 434.865 480.075 444.598 487.111 447.911C492.21 450.17 497.489 451.999 502.892 453.38L500.157 446.601Z" fill="#2AA316"/>
<path d="M503.88 479.124C503.88 479.124 503.2 475.118 496.613 470.483C490.026 465.848 485.879 463.267 485.879 463.267C485.879 463.267 484.672 472.961 490.848 477.661C495.359 480.946 500.14 483.845 505.139 486.328L503.88 479.124Z" fill="#2AA316"/>
<path d="M505.344 486.97C505.344 486.97 504.06 483.118 507.746 475.927C511.431 468.737 513.87 464.538 513.87 464.538C513.87 464.538 519.456 472.55 516.194 479.6C513.737 484.604 510.864 489.393 507.604 493.916L505.344 486.97Z" fill="#2AA316"/>
<path d="M516.566 519.262C516.566 519.262 517.029 515.231 523.333 510.274C529.637 505.318 533.605 502.455 533.605 502.455C533.605 502.455 535.364 512.072 529.47 517.118C525.154 520.65 520.55 523.816 515.706 526.581L516.566 519.262Z" fill="#2AA316"/>
<path d="M514.885 509.299C514.885 509.299 514.191 505.293 507.617 500.657C501.043 496.022 496.909 493.441 496.909 493.441C496.909 493.441 495.702 503.135 501.878 507.848C506.393 511.128 511.173 514.027 516.169 516.515L514.885 509.299Z" fill="#2AA316"/>
<path d="M514.884 531.075C514.884 531.075 515.218 527.018 510.031 520.867C504.844 514.717 501.479 511.173 501.479 511.173C501.479 511.173 497.846 520.238 502.635 526.363C506.146 530.676 510.011 534.688 514.191 538.356L514.884 531.075Z" fill="#2AA316"/>
<path d="M483.003 411.06C484.008 415.182 485.238 419.245 486.688 423.232C490.887 434.3 497.705 440.733 501.711 450.684C505.717 460.635 501.711 475.08 505.666 488.061C509.62 501.042 516.169 507.539 516.169 516.656C516.169 525.772 512.625 551.131 512.625 551.131" stroke="#263238" stroke-linecap="round" stroke-linejoin="round"/>
<path d="M485.737 421.409L478.894 417.826" stroke="#263238" stroke-linecap="round" stroke-linejoin="round"/>
<path d="M484.53 416.119L486.277 411.188" stroke="#263238" stroke-linecap="round" stroke-linejoin="round"/>
<path d="M501.286 450.273C501.286 450.273 495.573 447.358 489.73 444.457" stroke="#263238" stroke-linecap="round" stroke-linejoin="round"/>
<path d="M497.396 442.813C499.081 437.523 501.296 432.416 504.009 427.572" stroke="#263238" stroke-linecap="round" stroke-linejoin="round"/>
<path d="M504.677 484.851C500.867 480.03 496.377 475.787 491.349 472.255" stroke="#263238" stroke-linecap="round" stroke-linejoin="round"/>
<path d="M506.628 490.295C507.542 486.421 508.774 482.629 510.313 478.958C512.509 474.091 512.881 473.449 512.881 473.449" stroke="#263238" stroke-linecap="round" stroke-linejoin="round"/>
<path d="M515.86 523.577C518.087 520.818 520.553 518.261 523.23 515.937C524.934 514.683 526.531 513.291 528.007 511.777" stroke="#263238" stroke-linecap="round" stroke-linejoin="round"/>
<path d="M516.168 516.656C514.334 513.697 512.278 510.881 510.018 508.233C507.792 505.804 505.37 503.562 502.776 501.53" stroke="#263238" stroke-linecap="round" stroke-linejoin="round"/>
<path d="M514.191 538.355C513.961 535.268 512.911 532.298 511.148 529.753C508.336 526.042 505.023 521.111 503.675 519.172" stroke="#263238" stroke-linecap="round" stroke-linejoin="round"/>
<path d="M118.988 356.079L113.364 340.016L118.988 346.834L114.571 322.733L121.402 340.016L123.816 306.26L127.835 338.398L132.252 331.978V340.016L137.478 329.166L134.666 348.041L139.481 344.831L131.854 355.27L118.988 356.079Z" fill="#263238"/>
<path d="M136.669 352.06H115.778L119.54 394.239H132.907L136.669 352.06Z" fill="#263238" stroke="#263238" stroke-linecap="round" stroke-linejoin="round"/>
<path d="M175.857 393.764H104.685V544.506H175.857V393.764Z" fill="white" stroke="#263238" stroke-linecap="round" stroke-linejoin="round"/>
<path d="M179.748 393.764H140.265V544.506H179.748V393.764Z" fill="white" stroke="#263238" stroke-linecap="round" stroke-linejoin="round"/>
<path d="M175.305 393.764H140.265V544.506H175.305V393.764Z" fill="#263238" stroke="#263238" stroke-linecap="round" stroke-linejoin="round"/>
<path d="M171.363 509.453H140.265V540.32H171.363V509.453Z" fill="#263238" stroke="#263238" stroke-linecap="round" stroke-linejoin="round"/>
<path d="M171.363 511.122H140.265V515.077H171.363V511.122Z" fill="white" stroke="#263238" stroke-linecap="round" stroke-linejoin="round"/>
<path d="M171.363 533.849H140.265V537.803H171.363V533.849Z" fill="white" stroke="#263238" stroke-linecap="round" stroke-linejoin="round"/>
<path d="M146.158 510.095V549.128" stroke="#263238" stroke-linecap="round" stroke-linejoin="round"/>
<path d="M157.008 510.095V549.128" stroke="#263238" stroke-linecap="round" stroke-linejoin="round"/>
<path d="M166.535 510.095V549.128" stroke="#263238" stroke-linecap="round" stroke-linejoin="round"/>
<path d="M171.363 399.363H140.265V444.752H171.363V399.363Z" fill="#263238" stroke="#263238" stroke-linecap="round" stroke-linejoin="round"/>
<path d="M171.363 401.263H140.265V405.757H171.363V401.263Z" fill="white" stroke="#263238" stroke-linecap="round" stroke-linejoin="round"/>
<path d="M171.363 430.358H140.265V434.852H171.363V430.358Z" fill="white" stroke="#263238" stroke-linecap="round" stroke-linejoin="round"/>
<path d="M146.158 400.082V444.444" stroke="#263238" stroke-linecap="round" stroke-linejoin="round"/>
<path d="M157.008 400.082V444.444" stroke="#263238" stroke-linecap="round" stroke-linejoin="round"/>
<path d="M166.535 400.082V444.444" stroke="#263238" stroke-linecap="round" stroke-linejoin="round"/>
<path d="M171.363 454.061H140.265V499.45H171.363V454.061Z" fill="#263238" stroke="#263238" stroke-linecap="round" stroke-linejoin="round"/>
<path d="M171.363 455.961H140.265V460.455H171.363V455.961Z" fill="white" stroke="#263238" stroke-linecap="round" stroke-linejoin="round"/>
<path d="M171.363 485.057H140.265V489.551H171.363V485.057Z" fill="white" stroke="#263238" stroke-linecap="round" stroke-linejoin="round"/>
<path d="M146.158 454.793V499.142" stroke="#263238" stroke-linecap="round" stroke-linejoin="round"/>
<path d="M157.008 454.793V499.142" stroke="#263238" stroke-linecap="round" stroke-linejoin="round"/>
<path d="M166.535 454.793V499.142" stroke="#263238" stroke-linecap="round" stroke-linejoin="round"/>
<path d="M175.844 444.123H140.265V449.284H175.844V444.123Z" fill="white" stroke="#263238" stroke-linecap="round" stroke-linejoin="round"/>
<path d="M175.844 499.168H140.265V504.33H175.844V499.168Z" fill="white" stroke="#263238" stroke-linecap="round" stroke-linejoin="round"/>
<path d="M175.844 393.764V544.493" stroke="#263238" stroke-linecap="round" stroke-linejoin="round"/>
<path d="M135.244 393.764V544.493H140.265V399.363H175.228V393.7L135.244 393.764Z" fill="white" stroke="#263238" stroke-linecap="round" stroke-linejoin="round"/>
<path d="M140.265 399.363V393.764" stroke="#263238" stroke-linecap="round" stroke-linejoin="round"/>
<path d="M175.573 324.518C171.837 317.315 170.271 312.153 170.271 310.959C170.271 308.597 175.407 307.184 175.407 307.184C183.419 302.947 221.104 309.072 238.066 311.896C247.561 313.552 257.166 314.496 266.802 314.721C266.802 314.721 269.151 312.847 271.938 310.484C274.724 308.121 287.949 292.585 293.136 291.224C298.324 289.863 303.023 293.112 303.023 293.112C303.023 293.112 311.511 298.248 310.085 299.236C308.66 300.225 287.949 318.072 282.762 321.372C277.574 324.672 266.75 323.26 257.326 325.147C249.211 326.765 216.34 328.768 208.803 329.385C203.143 330.727 197.202 330.232 191.842 327.972" fill="white"/>
<mask id="mask0_1_1192" style="mask-type:luminance" maskUnits="userSpaceOnUse" x="170" y="290" width="141" height="41">
<path d="M175.573 324.518C171.837 317.315 170.271 312.153 170.271 310.959C170.271 308.597 175.407 307.184 175.407 307.184C183.419 302.947 221.104 309.072 238.066 311.896C247.561 313.552 257.166 314.496 266.802 314.721C266.802 314.721 269.151 312.847 271.938 310.484C274.724 308.121 287.949 292.585 293.136 291.224C298.324 289.863 303.023 293.112 303.023 293.112C303.023 293.112 311.511 298.248 310.085 299.236C308.66 300.225 287.949 318.072 282.762 321.372C277.574 324.672 266.75 323.26 257.326 325.147C249.211 326.765 216.34 328.768 208.803 329.385C203.143 330.727 197.202 330.232 191.842 327.972" fill="white"/>
</mask>
<g mask="url(#mask0_1_1192)">
<path d="M303.113 293.06C303.113 293.06 298.401 289.76 293.226 291.173C288.052 292.585 274.852 308.134 272.027 310.433C269.203 312.731 266.891 314.67 266.891 314.67C257.256 314.445 247.651 313.5 238.156 311.845C221.194 309.02 183.509 302.857 175.496 307.133C175.496 307.133 170.36 308.545 170.36 310.908C170.539 312.229 170.879 313.522 171.375 314.76L172.081 315.017C172.081 315.017 181.493 314.028 201.806 314.516C222.118 315.004 269.1 317.79 272.117 318.881C273.401 319.369 282.505 317.315 292.597 313.745C300.301 307.467 309.353 299.621 310.265 299.069C311.6 298.235 303.113 293.06 303.113 293.06Z" fill="#299FD8"/>
<path opacity="0.5" d="M303.113 293.06C303.113 293.06 298.401 289.76 293.226 291.173C288.052 292.585 274.852 308.134 272.027 310.433C269.203 312.731 266.891 314.67 266.891 314.67C257.256 314.445 247.651 313.5 238.156 311.845C221.194 309.02 183.509 302.857 175.496 307.133C175.496 307.133 170.36 308.545 170.36 310.908C170.539 312.229 170.879 313.522 171.375 314.76L172.081 315.017C172.081 315.017 181.493 314.028 201.806 314.516C222.118 315.004 269.1 317.79 272.117 318.881C273.401 319.369 282.505 317.315 292.597 313.745C300.301 307.467 309.353 299.621 310.265 299.069C311.6 298.235 303.113 293.06 303.113 293.06Z" fill="white"/>
</g>
<path d="M175.573 324.518C171.837 317.315 170.271 312.153 170.271 310.959C170.271 308.597 175.407 307.184 175.407 307.184C183.419 302.947 221.104 309.072 238.066 311.896C247.561 313.552 257.166 314.496 266.802 314.721C266.802 314.721 269.151 312.847 271.938 310.484C274.724 308.121 287.949 292.585 293.136 291.224C298.324 289.863 303.023 293.112 303.023 293.112C303.023 293.112 311.511 298.248 310.085 299.236C308.66 300.225 287.949 318.072 282.762 321.372C277.574 324.672 266.75 323.26 257.326 325.147C249.211 326.765 216.34 328.768 208.803 329.385C203.143 330.727 197.202 330.232 191.842 327.972" stroke="#263238" stroke-linecap="round" stroke-linejoin="round"/>
<path d="M361.638 366.402C362.49 364.785 363.769 363.431 365.335 362.487C366.901 361.543 368.695 361.046 370.523 361.048H456.166C456.166 361.048 462.355 361.048 460.506 372.809C458.657 384.571 433.26 456.385 427.122 478.097C420.985 499.81 419.688 545.572 419.688 545.572H316.968C316.968 545.572 325.108 436.136 361.638 366.402Z" fill="white"/>
<mask id="mask1_1_1192" style="mask-type:luminance" maskUnits="userSpaceOnUse" x="316" y="361" width="145" height="185">
<path d="M361.638 366.402C362.49 364.785 363.769 363.431 365.335 362.487C366.901 361.543 368.695 361.046 370.523 361.048H456.166C456.166 361.048 462.355 361.048 460.506 372.809C458.657 384.571 433.26 456.385 427.122 478.097C420.985 499.81 419.688 545.572 419.688 545.572H316.968C316.968 545.572 325.108 436.136 361.638 366.402Z" fill="white"/>
</mask>
<g mask="url(#mask1_1_1192)">
<path opacity="0.16" d="M400.21 361.048H370.523C368.695 361.046 366.901 361.543 365.335 362.487C363.769 363.431 362.49 364.785 361.638 366.402C325.108 436.136 316.878 545.533 316.878 545.533H362.948L374.311 502.378L421.691 512.149C422.025 508.528 422.41 504.843 422.859 501.209L421.819 489.653C421.819 489.653 412.112 479.446 409.056 476.89C406 474.335 408.029 469.726 407.516 449.811C407.002 429.896 389.129 415.579 382.478 403.317C375.826 391.055 386.06 383.39 395.253 371.127C398.527 366.698 399.863 363.436 400.21 361.048Z" fill="black"/>
</g>
<path d="M361.638 366.402C362.49 364.785 363.769 363.431 365.335 362.487C366.901 361.543 368.695 361.046 370.523 361.048H456.166C456.166 361.048 462.355 361.048 460.506 372.809C458.657 384.571 433.26 456.385 427.122 478.097C420.985 499.81 419.688 545.572 419.688 545.572H316.968C316.968 545.572 325.108 436.136 361.638 366.402Z" stroke="#263238" stroke-linecap="round" stroke-linejoin="round"/>
<path d="M441.31 381.476C432.656 401.674 414.346 481.628 411.367 545.533H419.636C419.636 545.533 420.92 499.72 427.07 478.059C433.221 456.398 458.644 384.571 460.454 372.771C462.265 360.971 456.115 361.009 456.115 361.009C456.115 361.009 448.257 365.285 441.31 381.476Z" fill="#263238" stroke="#263238" stroke-linecap="round" stroke-linejoin="round"/>
<path d="M290.864 341.107C290.864 341.107 277.202 333.095 272.028 318.971C266.853 304.847 312.538 282.223 332.376 280.811C352.213 279.398 357.812 284.573 369.612 304.834C381.412 325.096 389.398 352.882 383.273 366.543C377.149 380.205 366.787 383.505 374.285 394.791C381.784 406.078 403.021 438.126 401.609 453.201C400.197 468.275 385.597 481.449 364.373 482.887C343.148 484.325 314.9 471.575 291.352 450.787C267.803 429.999 273.915 399.427 282.364 389.54C290.813 379.653 303.563 375.878 304.5 365.991C305.437 356.105 290.864 341.107 290.864 341.107Z" fill="#263238" stroke="#263238" stroke-linecap="round" stroke-linejoin="round"/>
<path d="M349.094 318.753C356.348 332.261 365.426 350.352 368.264 361.279C373.22 380.411 347.72 392.455 354.795 401.661" stroke="white" stroke-linecap="round" stroke-linejoin="round"/>
<path d="M339.207 301.059C339.207 301.059 342.032 305.874 345.935 312.962" stroke="white" stroke-linecap="round" stroke-linejoin="round"/>
<path d="M377.265 335.047C378.101 337.578 378.644 340.198 378.882 342.854" stroke="white" stroke-linecap="round" stroke-linejoin="round"/>
<path d="M344.111 294.036C344.111 294.036 366.427 310.523 375.338 330.258" stroke="white" stroke-linecap="round" stroke-linejoin="round"/>
<path d="M313.142 306.401C297.207 310.869 274.288 318.124 276.15 322.31" stroke="white" stroke-linecap="round" stroke-linejoin="round"/>
<path d="M327.869 302.472C327.869 302.472 324.466 303.319 319.395 304.68" stroke="white" stroke-linecap="round" stroke-linejoin="round"/>
<path d="M308.16 294.152C317.288 291.275 326.847 290.015 336.408 290.428" stroke="white" stroke-linecap="round" stroke-linejoin="round"/>
<path d="M301.663 296.809C303.106 296.058 304.599 295.405 306.131 294.858" stroke="white" stroke-linecap="round" stroke-linejoin="round"/>
<path d="M175.574 324.518C173.411 320.558 171.689 316.373 170.438 312.038C171.683 316.375 173.406 320.561 175.574 324.518ZM170.297 311.306C170.297 311.383 170.297 311.473 170.297 311.588C170.322 311.473 170.31 311.383 170.297 311.306ZM175.574 324.505C180.376 333.601 186.351 342.027 193.344 349.569C210.306 367.943 259.304 416.003 263.964 419.303C268.625 422.603 267.264 432.015 263.964 441.439C260.665 450.864 248.415 464.551 248.89 479.6C249.365 494.648 254.026 517.76 253.603 522.472C253.179 527.185 241.392 543.209 241.392 543.209H362.935C362.935 543.209 347.784 523.949 347.784 517.362C347.784 510.775 368.585 426.378 369.522 420.253C370.459 414.128 366.697 409.891 359.16 409.416C351.623 408.941 322.887 402.816 321.475 398.104C320.062 393.392 329.012 375.493 329.012 375.493L300.764 376.905C300.764 376.905 299.351 389.155 297.464 391.517C295.577 393.88 292.752 389.155 286.152 385.868C279.552 382.581 266.892 379.743 262.128 375.968C257.365 372.193 212.194 329.744 212.194 329.744" fill="white"/>
<mask id="mask2_1_1192" style="mask-type:luminance" maskUnits="userSpaceOnUse" x="170" y="311" width="200" height="233">
<path d="M175.574 324.518C173.411 320.558 171.689 316.373 170.438 312.038C171.683 316.375 173.406 320.561 175.574 324.518ZM170.297 311.306C170.297 311.383 170.297 311.473 170.297 311.588C170.322 311.473 170.31 311.383 170.297 311.306ZM175.574 324.505C180.376 333.601 186.351 342.027 193.344 349.569C210.306 367.943 259.304 416.003 263.964 419.303C268.625 422.603 267.264 432.015 263.964 441.439C260.665 450.864 248.415 464.551 248.89 479.6C249.365 494.648 254.026 517.76 253.603 522.472C253.179 527.185 241.392 543.209 241.392 543.209H362.935C362.935 543.209 347.784 523.949 347.784 517.362C347.784 510.775 368.585 426.378 369.522 420.253C370.459 414.128 366.697 409.891 359.16 409.416C351.623 408.941 322.887 402.816 321.475 398.104C320.062 393.392 329.012 375.493 329.012 375.493L300.764 376.905C300.764 376.905 299.351 389.155 297.464 391.517C295.577 393.88 292.752 389.155 286.152 385.868C279.552 382.581 266.892 379.743 262.128 375.968C257.365 372.193 212.194 329.744 212.194 329.744" fill="white"/>
</mask>
<g mask="url(#mask2_1_1192)">
<path d="M269.345 379.602C271.694 383.711 274.044 387.421 274.044 387.421C274.044 387.421 281.966 391.877 283.944 391.877C285.921 391.877 297.811 398.297 297.811 398.297C297.811 398.297 307.723 395.819 304.231 387.396C303.129 385.239 301.738 383.244 300.097 381.464C299.506 385.2 298.556 390.092 297.439 391.492C295.551 393.841 292.726 389.129 286.127 385.842C281.851 383.711 274.93 381.759 269.345 379.602Z" fill="#299FD8"/>
<path d="M245.154 360.534C230.606 347.065 212.194 329.795 212.194 329.795L201.485 328.255L200.201 328.974C200.201 328.974 230.427 355.719 236.859 358.698C239.462 359.894 242.29 360.521 245.154 360.534Z" fill="#299FD8"/>
<path d="M260.395 374.479L259.239 373.451C259.83 374.427 260.164 375.044 260.164 375.044L260.395 374.479Z" fill="#299FD8"/>
<g opacity="0.5">
<path d="M269.345 379.602C271.694 383.711 274.044 387.421 274.044 387.421C274.044 387.421 281.966 391.877 283.944 391.877C285.921 391.877 297.811 398.297 297.811 398.297C297.811 398.297 307.723 395.819 304.231 387.396C303.129 385.239 301.738 383.244 300.097 381.464C299.506 385.2 298.556 390.092 297.439 391.492C295.551 393.841 292.726 389.129 286.127 385.842C281.851 383.711 274.93 381.759 269.345 379.602Z" fill="white"/>
<path d="M245.154 360.534C230.606 347.065 212.194 329.795 212.194 329.795L201.485 328.255L200.201 328.974C200.201 328.974 230.427 355.719 236.859 358.698C239.462 359.894 242.29 360.521 245.154 360.534Z" fill="white"/>
<path d="M260.395 374.479L259.239 373.451C259.83 374.427 260.164 375.044 260.164 375.044L260.395 374.479Z" fill="white"/>
</g>
</g>
<path d="M170.271 310.959C170.265 311.049 170.265 311.139 170.271 311.229M170.438 312.038C171.689 316.373 173.411 320.558 175.574 324.518C173.406 320.561 171.683 316.375 170.438 312.038ZM170.438 312.038C170.402 311.916 170.377 311.791 170.361 311.665M175.574 324.505C180.376 333.601 186.35 342.027 193.344 349.569C210.306 367.943 259.304 416.003 263.964 419.303C268.625 422.603 267.264 432.015 263.964 441.439C260.665 450.864 248.415 464.551 248.89 479.6C249.365 494.648 254.026 517.76 253.603 522.472C253.179 527.185 241.392 543.209 241.392 543.209H362.935C362.935 543.209 347.784 523.949 347.784 517.362C347.784 510.775 368.585 426.378 369.522 420.253C370.459 414.128 366.697 409.891 359.16 409.416C351.623 408.941 322.887 402.816 321.475 398.104C320.062 393.392 329.012 375.493 329.012 375.493L300.764 376.905C300.764 376.905 299.351 389.155 297.464 391.517C295.577 393.88 292.752 389.155 286.152 385.868C279.552 382.581 266.892 379.743 262.128 375.968C257.365 372.193 212.194 329.744 212.194 329.744M170.297 311.306C170.297 311.383 170.297 311.473 170.297 311.588C170.322 311.473 170.31 311.383 170.297 311.306Z" stroke="#263238" stroke-linecap="round" stroke-linejoin="round"/>
<path d="M212.194 329.795C212.194 329.795 197.145 330.078 188.748 323.157" stroke="#263238" stroke-linecap="round" stroke-linejoin="round"/>
<path d="M321.487 398.104C320.075 393.405 329.024 375.493 329.024 375.493L300.776 376.905C300.776 376.905 299.364 389.155 297.476 391.517C295.589 393.88 292.764 389.155 286.164 385.868C285.664 385.611 285.112 385.367 284.547 385.123L282.839 411.971C282.839 411.971 285.317 437.972 315.029 433.029C327.06 431.026 339.9 420.292 350.981 408.222C339.579 406.129 322.566 401.712 321.487 398.104Z" fill="white"/>
<mask id="mask3_1_1192" style="mask-type:luminance" maskUnits="userSpaceOnUse" x="282" y="375" width="69" height="59">
<path d="M321.487 398.104C320.075 393.405 329.024 375.493 329.024 375.493L300.776 376.905C300.776 376.905 299.364 389.155 297.476 391.517C295.589 393.88 292.764 389.155 286.164 385.868C285.664 385.611 285.112 385.367 284.547 385.123L282.839 411.971C282.839 411.971 285.317 437.972 315.029 433.029C327.06 431.026 339.9 420.292 350.981 408.222C339.579 406.129 322.566 401.712 321.487 398.104Z" fill="white"/>
</mask>
<g mask="url(#mask3_1_1192)">
<path d="M320.692 379.05C320.692 379.05 318.984 388.628 317.61 399.221C316.236 409.814 315.222 417.698 315.222 417.698L321.488 398.104L328.55 377.342C328.55 377.342 321.719 377.342 320.692 379.05Z" fill="#299FD8"/>
<path opacity="0.5" d="M320.692 379.05C320.692 379.05 318.984 388.628 317.61 399.221C316.236 409.814 315.222 417.698 315.222 417.698L321.488 398.104L328.55 377.342C328.55 377.342 321.719 377.342 320.692 379.05Z" fill="white"/>
</g>
<path d="M321.487 398.104C320.075 393.405 329.024 375.493 329.024 375.493L300.776 376.905C300.776 376.905 299.364 389.155 297.476 391.517C295.589 393.88 292.764 389.155 286.164 385.868C285.664 385.611 285.112 385.367 284.547 385.123L282.839 411.971C282.839 411.971 285.317 437.972 315.029 433.029C327.06 431.026 339.9 420.292 350.981 408.222C339.579 406.129 322.566 401.712 321.487 398.104Z" stroke="#263238" stroke-linecap="round" stroke-linejoin="round"/>
<path d="M297.464 391.517C295.577 393.867 292.752 389.155 286.152 385.868C281.992 383.775 275.367 381.874 269.884 379.82C268.33 376.135 266.276 371.333 264.953 368.431C262.604 363.295 258.829 366.543 258.829 366.543C256.859 364.303 255.268 361.758 254.117 359.006C251.767 353.87 247.992 354.294 242.817 353.357C237.643 352.419 226.793 342.52 226.793 342.52C226.793 342.52 221.721 338.668 219.628 336.755C217.189 341.557 211.346 350.006 198.712 355.283C218.858 376.328 259.728 416.311 264.016 419.316C268.728 422.603 267.316 432.027 264.016 441.452C260.716 450.877 248.467 464.564 248.942 479.613C249.417 494.661 254.078 517.773 253.654 522.485C253.231 526.684 243.832 539.845 241.79 542.67L246.579 543.209H271.515C271.373 530.574 271.386 479.009 280.028 458.465C289.927 434.852 297.464 391.517 297.464 391.517Z" fill="#299FD8"/>
<mask id="mask4_1_1192" style="mask-type:luminance" maskUnits="userSpaceOnUse" x="198" y="336" width="100" height="208">
<path d="M297.464 391.517C295.577 393.867 292.752 389.155 286.152 385.868C281.992 383.775 275.367 381.874 269.884 379.82C268.33 376.135 266.276 371.333 264.953 368.431C262.604 363.295 258.829 366.543 258.829 366.543C256.859 364.303 255.268 361.758 254.117 359.006C251.767 353.87 247.992 354.294 242.817 353.357C237.643 352.419 226.793 342.52 226.793 342.52C226.793 342.52 221.721 338.668 219.628 336.755C217.189 341.557 211.346 350.006 198.712 355.283C218.858 376.328 259.728 416.311 264.016 419.316C268.728 422.603 267.316 432.027 264.016 441.452C260.716 450.877 248.467 464.564 248.942 479.613C249.417 494.661 254.078 517.773 253.654 522.485C253.231 526.684 243.832 539.845 241.79 542.67L246.579 543.209H271.515C271.373 530.574 271.386 479.009 280.028 458.465C289.927 434.852 297.464 391.517 297.464 391.517Z" fill="white"/>
</mask>
<g mask="url(#mask4_1_1192)">
<path opacity="0.16" d="M286.153 385.868C281.993 383.775 275.367 381.874 269.884 379.82C268.331 376.135 266.276 371.333 264.954 368.431C262.604 363.295 258.829 366.543 258.829 366.543C256.86 364.303 255.268 361.758 254.117 359.006C251.767 353.87 247.992 354.294 242.818 353.357C237.643 352.419 226.793 342.52 226.793 342.52C226.793 342.52 221.722 338.668 219.629 336.755C218.584 338.794 217.341 340.725 215.918 342.52C224.341 349.646 233.637 357.196 236.886 358.698C243.306 361.664 244.808 359.186 249.726 362.165C254.643 365.144 260.126 375.005 260.126 375.005C260.126 375.005 263.105 367.07 265.583 372.527C268.061 377.984 274.006 387.383 274.006 387.383C274.006 387.383 281.928 391.838 283.906 391.838C285.459 391.838 293.074 395.793 296.309 397.501C297.028 393.739 297.426 391.479 297.426 391.479C295.577 393.867 292.753 389.155 286.153 385.868Z" fill="black"/>
</g>
<path d="M297.464 391.517C295.577 393.867 292.752 389.155 286.152 385.868C281.992 383.775 275.367 381.874 269.884 379.82C268.33 376.135 266.276 371.333 264.953 368.431C262.604 363.295 258.829 366.543 258.829 366.543C256.859 364.303 255.268 361.758 254.117 359.006C251.767 353.87 247.992 354.294 242.817 353.357C237.643 352.419 226.793 342.52 226.793 342.52C226.793 342.52 221.721 338.668 219.628 336.755C217.189 341.557 211.346 350.006 198.712 355.283C218.858 376.328 259.728 416.311 264.016 419.316C268.728 422.603 267.316 432.027 264.016 441.452C260.716 450.877 248.467 464.564 248.942 479.612C249.417 494.661 254.078 517.773 253.654 522.485C253.231 526.684 243.832 539.845 241.79 542.67L246.579 543.209H271.515C271.373 530.574 271.386 479.009 280.028 458.465C289.927 434.852 297.464 391.517 297.464 391.517Z" stroke="#263238" stroke-linecap="round" stroke-linejoin="round"/>
<path d="M297.798 389.874C297.798 389.874 291.943 388.076 288.335 391.235C284.727 394.393 279.347 410.598 276.175 428.175C274.221 438.408 275.57 448.998 280.027 458.414C280.027 458.414 287.436 438.987 289.683 429.524C291.93 420.061 297.798 389.874 297.798 389.874Z" fill="#299FD8"/>
<mask id="mask5_1_1192" style="mask-type:luminance" maskUnits="userSpaceOnUse" x="275" y="389" width="23" height="70">
<path d="M297.798 389.874C297.798 389.874 291.943 388.076 288.335 391.235C284.727 394.393 279.347 410.598 276.175 428.175C274.221 438.408 275.57 448.998 280.027 458.414C280.027 458.414 287.436 438.987 289.683 429.524C291.93 420.061 297.798 389.874 297.798 389.874Z" fill="white"/>
</mask>
<g mask="url(#mask5_1_1192)">
<path opacity="0.16" d="M286.562 392.737C286.562 392.737 290.8 391.71 292.546 392.301C294.016 392.931 295.391 393.765 296.629 394.779L297.798 389.874C296.045 388.978 294.057 388.651 292.109 388.936C289.195 389.527 286.562 392.737 286.562 392.737Z" fill="black"/>
</g>
<path d="M297.798 389.874C297.798 389.874 291.943 388.076 288.335 391.235C284.727 394.393 279.347 410.598 276.175 428.175C274.221 438.408 275.57 448.998 280.027 458.414C280.027 458.414 287.436 438.987 289.683 429.524C291.93 420.061 297.798 389.874 297.798 389.874Z" stroke="#263238" stroke-linecap="round" stroke-linejoin="round"/>
<path d="M258.366 391.414L265.903 422.038L248.941 383.402" stroke="#263238" stroke-linecap="round" stroke-linejoin="round"/>
<path d="M308.019 543.209H362.948C362.948 543.209 347.797 523.949 347.797 517.362C347.797 510.775 368.598 426.378 369.535 420.253C370.472 414.128 366.71 409.891 359.173 409.416C351.636 408.941 322.9 402.816 321.488 398.104C321.488 398.104 310.651 436.265 306.889 462.176C303.653 484.402 307.004 530.523 308.019 543.209Z" fill="#299FD8"/>
<mask id="mask6_1_1192" style="mask-type:luminance" maskUnits="userSpaceOnUse" x="305" y="398" width="65" height="146">
<path d="M308.019 543.209H362.948C362.948 543.209 347.797 523.949 347.797 517.362C347.797 510.775 368.598 426.378 369.535 420.253C370.472 414.128 366.71 409.891 359.173 409.416C351.636 408.941 322.9 402.816 321.488 398.104C321.488 398.104 310.651 436.265 306.889 462.176C303.653 484.402 307.004 530.523 308.019 543.209Z" fill="white"/>
</mask>
<g mask="url(#mask6_1_1192)">
<path opacity="0.16" d="M359.173 409.416C352.997 409.031 332.594 404.845 324.646 400.762L327.535 407.439C332.77 410.216 338.399 412.173 344.227 413.242C353.793 414.95 362.691 414.616 368.508 423.168L368.79 423.591C369.15 421.948 369.394 420.792 369.471 420.253C370.485 414.128 366.71 409.891 359.173 409.416Z" fill="black"/>
</g>
<path d="M308.019 543.209H362.948C362.948 543.209 347.797 523.949 347.797 517.362C347.797 510.775 368.598 426.378 369.535 420.253C370.472 414.128 366.71 409.891 359.173 409.416C351.636 408.941 322.9 402.816 321.488 398.104C321.488 398.104 310.651 436.265 306.889 462.176C303.653 484.402 307.004 530.523 308.019 543.209Z" stroke="#263238" stroke-linecap="round" stroke-linejoin="round"/>
<path d="M321.488 398.104C321.488 398.104 306.953 444.328 306.889 462.176C306.889 462.176 327.535 437.176 330.232 419.611C332.928 402.046 321.488 398.104 321.488 398.104Z" fill="#299FD8"/>
<mask id="mask7_1_1192" style="mask-type:luminance" maskUnits="userSpaceOnUse" x="306" y="398" width="25" height="65">
<path d="M321.488 398.104C321.488 398.104 306.953 444.328 306.889 462.176C306.889 462.176 327.535 437.176 330.232 419.611C332.928 402.046 321.488 398.104 321.488 398.104Z" fill="white"/>
</mask>
<g mask="url(#mask7_1_1192)">
<path opacity="0.16" d="M318.984 404.011C321.168 403.937 323.337 404.397 325.304 405.35C327.27 406.303 328.975 407.721 330.271 409.48C330.271 409.48 327.42 401.096 321.488 398.104L318.984 404.011Z" fill="black"/>
</g>
<path d="M321.488 398.104C321.488 398.104 306.953 444.328 306.889 462.176C306.889 462.176 327.535 437.176 330.232 419.611C332.928 402.046 321.488 398.104 321.488 398.104Z" stroke="#263238" stroke-linecap="round" stroke-linejoin="round"/>
<path d="M476.659 534.516C476.659 534.516 487.303 534.953 494.275 535.954C498.925 536.585 503.606 536.958 508.296 537.071C508.296 537.071 504.444 529.29 500.336 527.095C496.227 524.899 488.779 520.97 482.539 521.843C476.299 522.716 467.375 529.008 468.12 531.011C468.865 533.014 472.19 533.913 476.659 534.516Z" fill="white"/>
<mask id="mask8_1_1192" style="mask-type:luminance" maskUnits="userSpaceOnUse" x="468" y="521" width="41" height="17">
<path d="M476.659 534.516C476.659 534.516 487.303 534.953 494.275 535.954C498.925 536.585 503.606 536.958 508.296 537.071C508.296 537.071 504.444 529.29 500.336 527.095C496.227 524.899 488.779 520.97 482.539 521.843C476.299 522.716 467.375 529.008 468.12 531.011C468.865 533.014 472.19 533.913 476.659 534.516Z" fill="white"/>
</mask>
<g mask="url(#mask8_1_1192)">
<path d="M476.659 534.516C476.659 534.516 487.303 534.953 494.275 535.954C498.925 536.585 503.606 536.958 508.296 537.071C508.296 537.071 504.444 529.29 500.336 527.095C496.227 524.899 488.779 520.97 482.539 521.843C476.299 522.716 467.375 529.008 468.12 531.011C468.865 533.014 472.19 533.913 476.659 534.516Z" fill="#299FD8"/>
<path opacity="0.5" d="M476.659 534.516C476.659 534.516 487.303 534.953 494.275 535.954C498.925 536.585 503.606 536.958 508.296 537.071C508.296 537.071 504.444 529.29 500.336 527.095C496.227 524.899 488.779 520.97 482.539 521.843C476.299 522.716 467.375 529.008 468.12 531.011C468.865 533.014 472.19 533.913 476.659 534.516Z" fill="white"/>
</g>
<path d="M476.659 534.516C476.659 534.516 487.303 534.953 494.275 535.954C498.925 536.585 503.606 536.958 508.296 537.071C508.296 537.071 504.444 529.29 500.336 527.095C496.227 524.899 488.779 520.97 482.539 521.843C476.299 522.716 467.375 529.008 468.12 531.011C468.865 533.014 472.19 533.913 476.659 534.516Z" stroke="#263238" stroke-linecap="round" stroke-linejoin="round"/>
<path d="M494.34 531.332C494.34 531.332 502.776 526.954 504.881 527.018C506.987 527.082 520.983 536.545 520.289 538.06C519.819 538.763 519.139 539.3 518.346 539.595C517.553 539.889 516.688 539.928 515.873 539.704C514.319 538.972 504.894 534.966 504.894 534.966L498.731 536.417L494.34 531.332Z" fill="white"/>
<mask id="mask9_1_1192" style="mask-type:luminance" maskUnits="userSpaceOnUse" x="494" y="527" width="27" height="13">
<path d="M494.34 531.332C494.34 531.332 502.776 526.954 504.881 527.018C506.987 527.082 520.983 536.545 520.289 538.06C519.819 538.763 519.139 539.3 518.346 539.595C517.553 539.889 516.688 539.928 515.873 539.704C514.319 538.972 504.894 534.966 504.894 534.966L498.731 536.417L494.34 531.332Z" fill="white"/>
</mask>
<g mask="url(#mask9_1_1192)">
<path d="M494.34 531.332C494.34 531.332 502.776 526.954 504.881 527.018C506.987 527.082 520.983 536.545 520.289 538.06C519.596 539.575 516.283 540.808 515.873 539.704C515.462 538.599 504.894 534.966 504.894 534.966L498.731 536.417L494.34 531.332Z" fill="#299FD8"/>
<path opacity="0.5" d="M494.34 531.332C494.34 531.332 502.776 526.954 504.881 527.018C506.987 527.082 520.983 536.545 520.289 538.06C519.596 539.575 516.283 540.808 515.873 539.704C515.462 538.599 504.894 534.966 504.894 534.966L498.731 536.417L494.34 531.332Z" fill="white"/>
</g>
<path d="M494.34 531.332C494.34 531.332 502.776 526.954 504.881 527.018C506.987 527.082 520.983 536.545 520.289 538.06C519.819 538.763 519.139 539.3 518.346 539.595C517.553 539.889 516.688 539.928 515.873 539.704C514.319 538.972 504.894 534.966 504.894 534.966L498.731 536.417L494.34 531.332Z" stroke="#263238" stroke-linecap="round" stroke-linejoin="round"/>
<path d="M488.317 524.129C488.317 524.129 499.565 523.769 501.799 524.899C504.034 526.029 514.126 543.337 512.611 544.596C511.096 545.854 506.91 545.482 507.038 544.082C507.167 542.682 497.742 533.412 497.742 533.412L490.41 531.807L488.317 524.129Z" fill="white"/>
<mask id="mask10_1_1192" style="mask-type:luminance" maskUnits="userSpaceOnUse" x="488" y="524" width="25" height="22">
<path d="M488.317 524.129C488.317 524.129 499.565 523.769 501.799 524.899C504.034 526.029 514.126 543.337 512.611 544.596C511.096 545.854 506.91 545.482 507.038 544.082C507.167 542.682 497.742 533.412 497.742 533.412L490.41 531.807L488.317 524.129Z" fill="white"/>
</mask>
<g mask="url(#mask10_1_1192)">
<path d="M488.317 524.129C488.317 524.129 499.565 523.769 501.799 524.899C504.034 526.029 514.126 543.337 512.611 544.596C511.096 545.854 506.91 545.482 507.038 544.082C507.167 542.682 497.742 533.412 497.742 533.412L490.41 531.807L488.317 524.129Z" fill="#299FD8"/>
<path opacity="0.5" d="M488.317 524.129C488.317 524.129 499.565 523.769 501.799 524.899C504.034 526.029 514.126 543.337 512.611 544.596C511.096 545.854 506.91 545.482 507.038 544.082C507.167 542.682 497.742 533.412 497.742 533.412L490.41 531.807L488.317 524.129Z" fill="white"/>
</g>
<path d="M488.317 524.129C488.317 524.129 499.565 523.769 501.799 524.899C504.034 526.029 514.126 543.337 512.611 544.596C511.096 545.854 506.91 545.482 507.038 544.082C507.167 542.682 497.742 533.412 497.742 533.412L490.41 531.807L488.317 524.129Z" stroke="#263238" stroke-linecap="round" stroke-linejoin="round"/>
<path d="M481.654 521.805C481.654 521.805 493.043 521.432 495.303 522.588C497.563 523.744 507.784 541.244 506.243 542.528C504.702 543.812 500.491 543.414 500.619 542.002C500.747 540.59 491.207 531.204 491.207 531.204L483.786 529.573L481.654 521.805Z" fill="white"/>
<mask id="mask11_1_1192" style="mask-type:luminance" maskUnits="userSpaceOnUse" x="481" y="521" width="26" height="23">
<path d="M481.654 521.805C481.654 521.805 493.043 521.432 495.303 522.588C497.563 523.744 507.784 541.244 506.243 542.528C504.702 543.812 500.491 543.414 500.619 542.002C500.747 540.59 491.207 531.204 491.207 531.204L483.786 529.573L481.654 521.805Z" fill="white"/>
</mask>
<g mask="url(#mask11_1_1192)">
<path d="M481.654 521.805C481.654 521.805 493.043 521.432 495.303 522.588C497.563 523.744 507.784 541.244 506.243 542.528C504.702 543.812 500.491 543.414 500.619 542.002C500.747 540.59 491.207 531.204 491.207 531.204L483.786 529.573L481.654 521.805Z" fill="#299FD8"/>
<path opacity="0.5" d="M481.654 521.805C481.654 521.805 493.043 521.432 495.303 522.588C497.563 523.744 507.784 541.244 506.243 542.528C504.702 543.812 500.491 543.414 500.619 542.002C500.747 540.59 491.207 531.204 491.207 531.204L483.786 529.573L481.654 521.805Z" fill="white"/>
</g>
<path d="M481.654 521.805C481.654 521.805 493.043 521.432 495.303 522.588C497.563 523.744 507.784 541.244 506.243 542.528C504.702 543.812 500.491 543.414 500.619 542.002C500.747 540.59 491.207 531.204 491.207 531.204L483.786 529.573L481.654 521.805Z" stroke="#263238" stroke-linecap="round" stroke-linejoin="round"/>
<path d="M352.163 456.552C360.406 469.251 376.957 501.428 381.785 505.049C389.322 510.698 439.706 524.411 444.559 528.161C449.413 531.91 449.079 535.672 453.676 537.046C458.273 538.42 475.504 542.362 482.078 542.978C488.652 543.594 485.712 539.524 485.712 539.524L474.502 531.82L484.274 529.406C484.274 529.406 494.071 541.193 495.907 541.835C497.743 542.477 500.978 541.835 500.773 540.384C500.413 538.06 489.962 519.044 486.251 518.235C482.54 517.426 460.019 520.546 460.019 520.546C460.019 520.546 412.78 488.69 411.933 487.56C411.933 487.56 409.108 479.548 406.797 476.248C404.486 472.949 403.022 473.899 403.022 473.899C403.022 473.899 403.972 469.649 402.56 468.236L395.023 460.699L394.753 461.059C393.469 458.491 392.185 455.563 390.773 452.225C386.831 442.941 372.874 416.889 370.524 413.127C368.765 410.315 354.025 408.299 346.552 407.452" fill="#299FD8"/>
<mask id="mask12_1_1192" style="mask-type:luminance" maskUnits="userSpaceOnUse" x="346" y="407" width="155" height="137">
<path d="M352.163 456.552C360.406 469.251 376.957 501.428 381.785 505.049C389.322 510.698 439.706 524.411 444.559 528.161C449.413 531.91 449.079 535.672 453.676 537.046C458.273 538.42 475.504 542.362 482.078 542.978C488.652 543.594 485.712 539.524 485.712 539.524L474.502 531.82L484.274 529.406C484.274 529.406 494.071 541.193 495.907 541.835C497.743 542.477 500.978 541.835 500.773 540.384C500.413 538.06 489.962 519.044 486.251 518.235C482.54 517.426 460.019 520.546 460.019 520.546C460.019 520.546 412.78 488.69 411.933 487.56C411.933 487.56 409.108 479.548 406.797 476.248C404.486 472.949 403.022 473.899 403.022 473.899C403.022 473.899 403.972 469.649 402.56 468.236L395.023 460.699L394.753 461.059C393.469 458.491 392.185 455.563 390.773 452.225C386.831 442.941 372.874 416.889 370.524 413.127C368.765 410.315 354.025 408.299 346.552 407.452" fill="white"/>
</mask>
<g mask="url(#mask12_1_1192)">
<path opacity="0.16" d="M384.982 457.361C391.146 462.831 389.091 462.831 387.717 467.633C386.343 472.435 388.744 465.925 394.561 466.272C400.377 466.618 398.67 474.13 397.976 475.504C397.283 476.877 405.167 478.585 403.793 481.654C402.419 484.723 394.561 489.178 390.118 493.634C385.676 498.089 401.739 486.443 407.208 486.109C408.878 485.994 410.251 486.212 411.407 486.187C410.195 482.751 408.637 479.447 406.759 476.325C404.396 473.026 402.984 473.976 402.984 473.976C402.984 473.976 403.934 469.726 402.522 468.313L394.985 460.776L394.715 461.136C393.431 458.568 392.147 455.64 390.735 452.302C386.793 443.018 372.836 416.966 370.486 413.204C368.727 410.392 353.987 408.376 346.514 407.529L347.194 413.474L347.361 413.602C347.361 413.602 356.593 415.31 359.675 415.656C362.756 416.003 366.518 418.725 366.172 420.792C365.825 422.86 356.94 432.079 359.675 432.772C362.41 433.465 365.491 425.928 368.573 426.956C371.654 427.983 378.781 451.891 384.982 457.361Z" fill="black"/>
</g>
<path d="M352.163 456.552C360.406 469.251 376.957 501.428 381.785 505.049C389.322 510.698 439.706 524.411 444.559 528.161C449.413 531.91 449.079 535.672 453.676 537.046C458.273 538.42 475.504 542.362 482.078 542.978C488.652 543.594 485.712 539.524 485.712 539.524L474.502 531.82L484.274 529.406C484.274 529.406 494.071 541.193 495.907 541.835C497.743 542.477 500.978 541.835 500.773 540.384C500.413 538.06 489.962 519.044 486.251 518.235C482.54 517.426 460.019 520.546 460.019 520.546C460.019 520.546 412.78 488.69 411.933 487.56C411.933 487.56 409.108 479.548 406.797 476.248C404.486 472.949 403.022 473.899 403.022 473.899C403.022 473.899 403.972 469.649 402.56 468.236L395.023 460.699L394.753 461.059C393.469 458.491 392.185 455.563 390.773 452.225C386.831 442.941 372.874 416.889 370.524 413.127C368.765 410.315 354.025 408.299 346.552 407.452" stroke="#263238" stroke-linecap="round" stroke-linejoin="round"/>
<path d="M352.291 439.128C351.944 440.284 351.649 441.439 351.418 442.62" stroke="#263238" stroke-linecap="round" stroke-linejoin="round"/>
<path d="M364.771 417.878C360.736 422.477 357.334 427.594 354.653 433.093" stroke="#263238" stroke-linecap="round" stroke-linejoin="round"/>
<path d="M383.633 490.783C387.1 485.647 392.621 479.137 398.707 477.276" stroke="#263238" stroke-linecap="round" stroke-linejoin="round"/>
<path d="M379.794 497.101C379.794 497.101 380.41 495.894 381.515 494.07" stroke="#263238" stroke-linecap="round" stroke-linejoin="round"/>
<path d="M379.794 488.986C379.794 488.986 386.098 473.218 392.403 469.161C398.707 465.103 395.099 473.218 395.099 473.218" stroke="#263238" stroke-linecap="round" stroke-linejoin="round"/>
<path d="M444.559 528.173C449.426 531.935 449.079 535.685 453.676 537.059C458.273 538.433 475.504 542.374 482.078 542.991C488.652 543.607 485.712 539.537 485.712 539.537L474.502 531.833L484.274 529.419C484.274 529.419 494.07 541.206 495.907 541.848C497.743 542.49 501.235 542.721 500.773 540.397C499.874 535.903 489.962 519.057 486.251 518.248C482.54 517.439 460.019 520.559 460.019 520.559C460.019 520.559 416.992 491.027 412.28 487.83C394.008 489.589 385.316 499.155 381.656 504.894L381.785 504.997C389.322 510.698 439.706 524.411 444.559 528.173Z" fill="white"/>
<mask id="mask13_1_1192" style="mask-type:luminance" maskUnits="userSpaceOnUse" x="381" y="487" width="120" height="57">
<path d="M444.559 528.173C449.426 531.935 449.079 535.685 453.676 537.059C458.273 538.433 475.504 542.374 482.078 542.991C488.652 543.607 485.712 539.537 485.712 539.537L474.502 531.833L484.274 529.419C484.274 529.419 494.07 541.206 495.907 541.848C497.743 542.49 501.235 542.721 500.773 540.397C499.874 535.903 489.962 519.057 486.251 518.248C482.54 517.439 460.019 520.559 460.019 520.559C460.019 520.559 416.992 491.027 412.28 487.83C394.008 489.589 385.316 499.155 381.656 504.894L381.785 504.997C389.322 510.698 439.706 524.411 444.559 528.173Z" fill="white"/>
</mask>
<g mask="url(#mask13_1_1192)">
<path d="M500.76 540.448C498.423 534.735 489.949 519.108 486.238 518.299C482.527 517.491 460.006 520.611 460.006 520.611C460.006 520.611 416.979 491.079 412.267 487.881C407.471 488.299 402.766 489.437 398.31 491.258C405.102 495.11 450.376 520.79 456.09 521.933C462.15 523.217 482.373 519.892 485.93 522.28C488.19 523.795 494.918 534.465 499.463 542.041C500.76 541.848 501.235 541.604 500.76 540.448Z" fill="#299FD8"/>
<path opacity="0.5" d="M500.76 540.448C497.113 532.269 489.949 519.108 486.238 518.299C482.527 517.491 460.006 520.611 460.006 520.611C460.006 520.611 416.979 491.079 412.267 487.881C407.471 488.299 402.766 489.437 398.31 491.258C405.102 495.11 450.376 520.79 456.09 521.933C462.15 523.217 482.373 519.892 485.93 522.28C488.19 523.795 494.918 534.465 499.463 542.041C500.76 541.848 501.274 541.591 500.76 540.448Z" fill="white"/>
</g>
<path d="M444.559 528.173C449.426 531.935 449.079 535.685 453.676 537.059C458.273 538.433 475.504 542.374 482.078 542.991C488.652 543.607 485.712 539.537 485.712 539.537L474.502 531.833L484.274 529.419C484.274 529.419 494.07 541.206 495.907 541.848C497.743 542.49 501.235 542.721 500.773 540.397C499.874 535.903 489.962 519.057 486.251 518.248C482.54 517.439 460.019 520.559 460.019 520.559C460.019 520.559 416.992 491.027 412.28 487.83C394.008 489.589 385.316 499.155 381.656 504.894L381.785 504.997C389.322 510.698 439.706 524.411 444.559 528.173Z" stroke="#263238" stroke-linecap="round" stroke-linejoin="round"/>
<path d="M331.079 303.961L292.405 320.101C291.937 326.898 290.254 333.556 287.436 339.759C282.865 349.428 285.536 367.725 289.927 377.599C294.318 387.473 313.668 383.608 320.743 382.375C325.541 381.462 330.241 380.091 334.777 378.279C336.843 379.075 339.077 379.333 341.269 379.027C343.461 378.722 345.54 377.863 347.309 376.533C347.309 376.533 326.611 318.432 331.079 303.961Z" fill="white"/>
<mask id="mask14_1_1192" style="mask-type:luminance" maskUnits="userSpaceOnUse" x="285" y="303" width="63" height="82">
<path d="M331.079 303.961L292.405 320.101C291.937 326.898 290.254 333.556 287.436 339.759C282.865 349.428 285.536 367.725 289.927 377.599C294.318 387.473 313.668 383.608 320.743 382.375C325.541 381.462 330.241 380.091 334.777 378.279C336.843 379.075 339.077 379.333 341.269 379.027C343.461 378.722 345.54 377.863 347.309 376.533C347.309 376.533 326.611 318.432 331.079 303.961Z" fill="white"/>
</mask>
<g mask="url(#mask14_1_1192)">
<path d="M331.079 303.961L292.405 320.101C291.937 326.898 290.254 333.556 287.436 339.759C282.865 349.428 285.536 367.725 289.927 377.599C290.662 379.187 291.845 380.525 293.33 381.451V380.706C293.33 380.706 286.152 362.923 287.513 352.663C288.874 342.404 294.704 337.255 295.384 330.771C296.065 324.287 295.718 321.205 308.725 316.416C321.732 311.627 327.189 307.184 328.55 311.961C329.911 316.737 335.394 348.221 339.156 355.745C342.918 363.269 342.571 371.153 336.767 374.556C330.902 378.077 324.616 380.846 318.06 382.799L320.794 382.324C325.593 381.411 330.292 380.039 334.829 378.228C336.894 379.024 339.128 379.281 341.32 378.976C343.513 378.67 345.591 377.812 347.36 376.482C347.36 376.482 326.611 318.432 331.079 303.961Z" fill="#299FD8"/>
<path opacity="0.5" d="M331.079 303.961L292.405 320.101C291.937 326.898 290.254 333.556 287.436 339.759C282.865 349.428 285.536 367.725 289.927 377.599C290.662 379.187 291.845 380.525 293.33 381.451V380.706C293.33 380.706 286.152 362.923 287.513 352.663C288.874 342.404 294.704 337.255 295.384 330.771C296.065 324.287 295.718 321.205 308.725 316.416C321.732 311.627 327.189 307.184 328.55 311.961C329.911 316.737 335.394 348.221 339.156 355.745C342.918 363.269 342.571 371.153 336.767 374.556C330.902 378.077 324.616 380.846 318.06 382.799L320.794 382.324C325.593 381.411 330.292 380.039 334.829 378.228C336.894 379.024 339.128 379.281 341.32 378.976C343.513 378.67 345.591 377.812 347.36 376.482C347.36 376.482 326.611 318.432 331.079 303.961Z" fill="white"/>
</g>
<path d="M331.079 303.961L292.405 320.101C291.937 326.898 290.254 333.556 287.436 339.759C282.865 349.428 285.536 367.725 289.927 377.599C294.318 387.473 313.668 383.608 320.743 382.375C325.541 381.462 330.241 380.091 334.777 378.279C336.843 379.075 339.077 379.333 341.269 379.027C343.461 378.722 345.54 377.863 347.309 376.533C347.309 376.533 326.611 318.432 331.079 303.961Z" stroke="#263238" stroke-linecap="round" stroke-linejoin="round"/>
<path d="M311.537 329.269C311.642 331.543 311.359 333.818 310.702 335.997C309.675 338.565 299.981 348.657 300.276 349.749C300.571 350.84 301.445 354.345 303.165 354.679" stroke="#263238" stroke-linecap="round" stroke-linejoin="round"/>
<path d="M322.284 338.295C323.632 335.599 328.062 338.231 327.998 344.305" stroke="#263238" stroke-linecap="round" stroke-linejoin="round"/>
<path d="M300.327 330.36C300.327 330.36 304.102 328.704 307.479 334.816" stroke="#263238" stroke-linecap="round" stroke-linejoin="round"/>
<path d="M316.917 347.194C321.279 347.413 325.427 349.153 328.64 352.111" stroke="#263238" stroke-width="0.5" stroke-linecap="round" stroke-linejoin="round"/>
<path d="M295.77 339.169C298.025 339.47 300.228 340.079 302.318 340.979" stroke="#263238" stroke-width="0.5" stroke-linecap="round" stroke-linejoin="round"/>
<path d="M311.112 323.568C310.115 323.041 309.01 322.752 307.882 322.726C306.755 322.699 305.636 322.935 304.615 323.414C301.161 325.07 299.043 326.893 299.274 324.775C299.505 322.656 303.563 320.319 304.782 320.011C306.002 319.703 311.459 318.856 311.112 323.568Z" fill="#263238"/>
<path d="M320.794 318.779C324.393 321.691 327.253 325.413 329.14 329.641C331.708 336.061 333.737 329.051 331.708 324.852C329.679 320.653 323.811 316.185 320.794 318.779Z" fill="#263238"/>
<path d="M347.874 387.511C347.874 390.503 346.179 392.93 344.099 392.93C342.019 392.93 340.337 390.503 340.337 387.511C340.337 384.519 342.019 376.905 344.099 376.905C346.179 376.905 347.874 384.519 347.874 387.511Z" fill="#299FD8" stroke="#263238" stroke-linecap="round" stroke-linejoin="round"/>
<path d="M322.617 337.127C322.47 337.519 322.354 337.923 322.271 338.334C321.898 340.234 321.526 344.202 322.271 344.369C323.016 344.536 324.839 340.825 325.16 338.925C325.232 338.552 325.275 338.174 325.288 337.795C324.412 337.52 323.52 337.297 322.617 337.127Z" fill="#263238"/>
<path d="M300.713 329.988C300.598 330.324 300.508 330.667 300.443 331.015C300.058 332.916 300.071 337.089 300.88 337.243C301.688 337.397 303.011 333.493 303.383 331.593C303.476 331.132 303.528 330.664 303.537 330.193C302.618 329.941 301.659 329.871 300.713 329.988Z" fill="#263238"/>
<path d="M322.284 338.36L323.568 335.971C325.604 336.368 327.448 337.435 328.807 339.002" stroke="#263238" stroke-width="0.75" stroke-linecap="round" stroke-linejoin="round"/>
<path d="M300.713 329.988L301.997 328.486C301.997 328.486 302.549 328.216 305.579 329.59" stroke="#263238" stroke-width="0.75" stroke-linecap="round" stroke-linejoin="round"/>
<path d="M295.846 364.81C295.846 364.81 298.003 360.843 300.892 360.843C303.781 360.843 305.938 367.327 305.938 367.327" stroke="#263238" stroke-linecap="round" stroke-linejoin="round"/>
<path d="M202.872 535.916C200.08 535.777 197.337 535.124 194.783 533.99C194.426 533.858 194.101 533.655 193.825 533.394C193.55 533.132 193.331 532.817 193.181 532.468C193.031 532.119 192.954 531.743 192.954 531.363C192.954 530.984 193.032 530.608 193.182 530.259C193.332 529.91 193.551 529.595 193.827 529.334C194.103 529.072 194.428 528.87 194.785 528.738C195.141 528.607 195.521 528.549 195.9 528.569C196.279 528.589 196.65 528.686 196.991 528.854C199.559 529.945 202.885 530.626 203.771 530.241C205.401 528.417 207.905 517.401 204.669 512.085C203.937 510.904 203.257 510.685 202.808 510.634C200.971 510.377 198.249 512.265 197.286 513.202C197.018 513.455 196.703 513.653 196.359 513.784C196.014 513.915 195.647 513.977 195.279 513.966C194.91 513.955 194.548 513.872 194.211 513.721C193.875 513.57 193.572 513.355 193.319 513.086C193.066 512.818 192.868 512.503 192.737 512.159C192.606 511.814 192.544 511.447 192.555 511.079C192.566 510.71 192.649 510.348 192.8 510.011C192.951 509.675 193.166 509.372 193.434 509.119C193.935 508.631 198.57 504.458 203.514 505.126C204.74 505.305 205.908 505.764 206.928 506.467C207.948 507.171 208.792 508.1 209.395 509.183C214.158 516.951 210.897 531.73 207.237 534.658C205.966 535.557 204.427 536.001 202.872 535.916Z" fill="white"/>
<mask id="mask15_1_1192" style="mask-type:luminance" maskUnits="userSpaceOnUse" x="192" y="505" width="20" height="31">
<path d="M202.872 535.916C200.08 535.777 197.337 535.124 194.783 533.99C194.426 533.858 194.101 533.655 193.825 533.394C193.55 533.132 193.331 532.817 193.181 532.468C193.031 532.119 192.954 531.743 192.954 531.363C192.954 530.984 193.032 530.608 193.182 530.259C193.332 529.91 193.551 529.595 193.827 529.334C194.103 529.072 194.428 528.87 194.785 528.738C195.141 528.607 195.521 528.549 195.9 528.569C196.279 528.589 196.65 528.686 196.991 528.854C199.559 529.945 202.885 530.626 203.771 530.241C205.401 528.417 207.905 517.401 204.669 512.085C203.937 510.904 203.257 510.685 202.808 510.634C200.971 510.377 198.249 512.265 197.286 513.202C197.018 513.455 196.703 513.653 196.359 513.784C196.014 513.915 195.647 513.977 195.279 513.966C194.91 513.955 194.548 513.872 194.211 513.721C193.875 513.57 193.572 513.355 193.319 513.086C193.066 512.818 192.868 512.503 192.737 512.159C192.606 511.814 192.544 511.447 192.555 511.079C192.566 510.71 192.649 510.348 192.8 510.011C192.951 509.675 193.166 509.372 193.434 509.119C193.935 508.631 198.57 504.458 203.514 505.126C204.74 505.305 205.908 505.764 206.928 506.467C207.948 507.171 208.792 508.1 209.395 509.183C214.158 516.951 210.897 531.73 207.237 534.658C205.966 535.557 204.427 536.001 202.872 535.916Z" fill="white"/>
</mask>
<g mask="url(#mask15_1_1192)">
<path d="M206.634 511.237C206.297 510.44 205.77 509.737 205.098 509.191C204.427 508.645 203.631 508.272 202.782 508.105C199.572 507.591 196.555 510.814 196.221 511.173C195.914 511.543 195.724 511.996 195.676 512.474C195.628 512.952 195.724 513.433 195.951 513.857C196.456 513.755 196.923 513.515 197.299 513.163C198.262 512.265 200.984 510.377 202.82 510.595C203.27 510.595 203.95 510.865 204.682 512.046C207.918 517.311 205.414 528.379 203.783 530.202C202.898 530.587 199.585 529.907 197.004 528.815C196.686 528.682 196.347 528.608 196.002 528.597C196.026 528.949 196.137 529.29 196.325 529.588C196.513 529.886 196.773 530.133 197.081 530.305C198.705 531.172 200.496 531.68 202.333 531.794C203.381 531.845 204.408 531.485 205.196 530.793C207.61 528.571 209.741 517.208 206.634 511.237Z" fill="#299FD8"/>
<path opacity="0.5" d="M206.634 511.237C206.297 510.44 205.77 509.737 205.098 509.191C204.427 508.645 203.631 508.272 202.782 508.105C199.572 507.591 196.555 510.814 196.221 511.173C195.914 511.543 195.724 511.996 195.676 512.474C195.628 512.952 195.724 513.433 195.951 513.857C196.456 513.755 196.923 513.515 197.299 513.163C198.262 512.265 200.984 510.377 202.82 510.595C203.27 510.595 203.95 510.865 204.682 512.046C207.918 517.311 205.414 528.379 203.783 530.202C202.898 530.587 199.585 529.907 197.004 528.815C196.686 528.682 196.347 528.608 196.002 528.597C196.026 528.949 196.137 529.29 196.325 529.588C196.513 529.886 196.773 530.133 197.081 530.305C198.705 531.172 200.496 531.68 202.333 531.794C203.381 531.845 204.408 531.485 205.196 530.793C207.61 528.571 209.741 517.208 206.634 511.237Z" fill="white"/>
</g>
<path d="M202.872 535.916C200.08 535.777 197.337 535.124 194.783 533.99C194.426 533.858 194.101 533.655 193.825 533.394C193.55 533.132 193.331 532.817 193.181 532.468C193.031 532.119 192.954 531.743 192.954 531.363C192.954 530.984 193.032 530.608 193.182 530.259C193.332 529.91 193.551 529.595 193.827 529.334C194.103 529.072 194.428 528.87 194.785 528.738C195.141 528.607 195.521 528.549 195.9 528.569C196.279 528.589 196.65 528.686 196.991 528.854C199.559 529.945 202.885 530.626 203.771 530.241C205.401 528.417 207.905 517.401 204.669 512.085C203.937 510.904 203.257 510.685 202.808 510.634C200.971 510.377 198.249 512.265 197.286 513.202C197.018 513.455 196.703 513.653 196.359 513.784C196.014 513.915 195.647 513.977 195.279 513.966C194.91 513.955 194.548 513.872 194.211 513.721C193.875 513.57 193.572 513.355 193.319 513.086C193.066 512.818 192.868 512.503 192.737 512.159C192.606 511.814 192.544 511.447 192.555 511.079C192.566 510.71 192.649 510.348 192.8 510.011C192.951 509.675 193.166 509.372 193.434 509.119C193.935 508.631 198.57 504.458 203.514 505.126C204.74 505.305 205.908 505.764 206.928 506.467C207.948 507.171 208.792 508.1 209.395 509.183C214.158 516.951 210.897 531.73 207.237 534.658C205.966 535.557 204.427 536.001 202.872 535.916Z" stroke="#263238" stroke-linecap="round" stroke-linejoin="round"/>
<path d="M197.967 502.789H167.087V543.774H197.967V502.789Z" fill="white"/>
<mask id="mask16_1_1192" style="mask-type:luminance" maskUnits="userSpaceOnUse" x="167" y="502" width="31" height="42">
<path d="M197.967 502.789H167.087V543.774H197.967V502.789Z" fill="white"/>
</mask>
<g mask="url(#mask16_1_1192)">
<path d="M179.734 502.789H167.087V543.774H179.734V502.789Z" fill="#299FD8"/>
<path opacity="0.5" d="M179.734 502.789H167.087V543.774H179.734V502.789Z" fill="white"/>
</g>
<path d="M197.967 502.789H167.087V543.774H197.967V502.789Z" stroke="#263238" stroke-linecap="round" stroke-linejoin="round"/>
<path d="M367.661 543.209H235.742L231.441 470.689C231.322 469.986 231.357 469.265 231.544 468.577C231.73 467.888 232.064 467.249 232.522 466.702C232.98 466.155 233.55 465.714 234.195 465.409C234.84 465.104 235.543 464.943 236.256 464.936H367.096C367.813 464.936 368.522 465.092 369.173 465.393C369.824 465.695 370.401 466.135 370.865 466.682C371.328 467.23 371.666 467.872 371.856 468.564C372.045 469.256 372.082 469.981 371.962 470.689L367.661 543.209Z" fill="#263238" stroke="#263238" stroke-linecap="round" stroke-linejoin="round"/>
<path d="M242.239 466.67H366.145C366.845 466.663 367.538 466.809 368.176 467.097C368.814 467.386 369.38 467.811 369.837 468.342C370.293 468.873 370.627 469.497 370.817 470.171C371.007 470.844 371.047 471.551 370.935 472.242" stroke="white" stroke-linecap="round" stroke-linejoin="round"/>
<path d="M232.404 471.1C232.508 469.886 233.065 468.756 233.964 467.935C234.864 467.114 236.04 466.662 237.258 466.67" stroke="white" stroke-linecap="round" stroke-linejoin="round"/>
<path d="M368.213 536.147H235.19V543.209H368.213V536.147Z" fill="white" stroke="#263238" stroke-linecap="round" stroke-linejoin="round"/>
<path d="M301.226 510.005C306.431 510.005 310.651 507.475 310.651 504.355C310.651 501.235 306.431 498.706 301.226 498.706C296.021 498.706 291.802 501.235 291.802 504.355C291.802 507.475 296.021 510.005 301.226 510.005Z" fill="white" stroke="#263238" stroke-linecap="round" stroke-linejoin="round"/>
<path d="M568.85 542.375H73.4062V554.406H568.85V542.375Z" fill="#263238"/>
<path d="M440.386 96.3H202.037C194.002 96.3 187.489 102.813 187.489 110.848V247.607C187.489 255.641 194.002 262.154 202.037 262.154H440.386C448.42 262.154 454.934 255.641 454.934 247.607V110.848C454.934 102.813 448.42 96.3 440.386 96.3Z" fill="#263238"/>
<path d="M327.501 191.612C349.122 188.137 363.832 167.793 360.357 146.173C356.882 124.552 336.539 109.842 314.918 113.316C293.297 116.791 278.587 137.135 282.062 158.755C285.537 180.376 305.88 195.086 327.501 191.612Z" fill="#263238"/>
<path d="M320.91 159.794L307.698 176.756C307.249 177.462 306.631 178.045 305.9 178.453C305.169 178.861 304.349 179.081 303.512 179.092C302.364 179.108 301.256 178.67 300.43 177.873C300.01 177.487 299.678 177.016 299.457 176.491C299.235 175.966 299.129 175.399 299.146 174.83C299.188 173.554 299.638 172.325 300.43 171.324L315.492 152.693L301.368 134.05C300.711 133.175 300.351 132.113 300.34 131.019C300.337 130.367 300.469 129.721 300.727 129.122C300.986 128.524 301.366 127.985 301.843 127.54C302.291 127.072 302.829 126.7 303.425 126.446C304.021 126.192 304.662 126.062 305.31 126.063C306.139 126.077 306.952 126.298 307.674 126.706C308.396 127.114 309.005 127.696 309.444 128.4L322.207 145.208L335.047 128.683C335.506 127.912 336.148 127.266 336.916 126.802C337.684 126.339 338.555 126.071 339.451 126.025C340.007 126.023 340.558 126.137 341.068 126.358C341.578 126.578 342.038 126.902 342.417 127.309C342.822 127.69 343.144 128.149 343.365 128.659C343.586 129.169 343.7 129.719 343.701 130.275C343.687 131.269 343.344 132.231 342.725 133.01L327.613 152.347L342.212 171.607C342.902 172.468 343.286 173.534 343.303 174.637C343.307 175.275 343.173 175.906 342.909 176.487C342.645 177.068 342.258 177.584 341.775 178.001C340.833 178.907 339.577 179.413 338.27 179.413C337.436 179.403 336.619 179.184 335.892 178.775C335.165 178.367 334.552 177.783 334.11 177.077L320.91 159.794Z" fill="white"/>
<path d="M396.755 233.431H245.616C242.551 233.431 239.611 232.214 237.444 230.047C235.277 227.879 234.06 224.94 234.06 221.875C234.06 218.81 235.277 215.871 237.444 213.704C239.611 211.537 242.551 210.319 245.616 210.319H396.755C399.82 210.319 402.759 211.537 404.927 213.704C407.094 215.871 408.311 218.81 408.311 221.875C408.311 224.94 407.094 227.879 404.927 230.047C402.759 232.214 399.82 233.431 396.755 233.431Z" fill="white"/>
<path d="M266.327 225.599C266.226 225.599 266.126 225.578 266.033 225.539C265.941 225.499 265.857 225.441 265.787 225.368C265.711 225.292 265.652 225.202 265.612 225.103C265.572 225.003 265.553 224.897 265.556 224.79C265.556 224.609 265.605 224.432 265.697 224.276L266.853 222.479H264.491C264.381 222.484 264.272 222.467 264.17 222.427C264.068 222.387 263.976 222.326 263.9 222.248C263.768 222.094 263.695 221.898 263.695 221.695C263.695 221.493 263.768 221.297 263.9 221.143C263.976 221.065 264.068 221.004 264.17 220.964C264.272 220.924 264.381 220.907 264.491 220.912L266.815 220.976L265.787 219.307C265.684 219.136 265.627 218.942 265.62 218.742C265.617 218.635 265.636 218.529 265.676 218.429C265.716 218.33 265.776 218.24 265.852 218.164C265.923 218.091 266.009 218.033 266.104 217.993C266.199 217.953 266.301 217.933 266.404 217.933C266.547 217.931 266.689 217.971 266.81 218.049C266.931 218.127 267.026 218.238 267.084 218.37L268.214 220.386L269.293 218.46C269.361 218.31 269.468 218.182 269.604 218.089C269.74 217.996 269.899 217.942 270.063 217.933C270.164 217.933 270.264 217.954 270.356 217.994C270.449 218.033 270.533 218.091 270.602 218.164C270.678 218.235 270.737 218.321 270.777 218.416C270.817 218.511 270.836 218.613 270.833 218.717C270.832 218.899 270.778 219.077 270.679 219.23L269.549 221.041L271.899 220.976C272.008 220.97 272.118 220.987 272.22 221.027C272.322 221.067 272.414 221.129 272.49 221.208C272.622 221.361 272.694 221.557 272.694 221.76C272.694 221.962 272.622 222.158 272.49 222.312C272.414 222.391 272.322 222.452 272.22 222.492C272.118 222.532 272.008 222.549 271.899 222.543H269.524L270.577 224.186C270.695 224.385 270.762 224.61 270.769 224.841C270.773 224.945 270.755 225.049 270.718 225.146C270.68 225.243 270.624 225.332 270.551 225.406C270.483 225.478 270.402 225.536 270.311 225.576C270.221 225.615 270.123 225.636 270.025 225.637C269.866 225.633 269.711 225.584 269.579 225.496C269.447 225.407 269.343 225.282 269.28 225.137L268.214 223.249L267.148 225.137C267.071 225.285 266.952 225.408 266.806 225.49C266.66 225.572 266.494 225.61 266.327 225.599Z" fill="black"/>
<path d="M278.114 225.599C278.013 225.599 277.913 225.578 277.82 225.539C277.728 225.499 277.644 225.441 277.574 225.368C277.498 225.292 277.439 225.202 277.399 225.103C277.359 225.003 277.34 224.897 277.343 224.79C277.343 224.609 277.392 224.432 277.485 224.276L278.64 222.479H276.278C276.168 222.484 276.059 222.467 275.957 222.427C275.856 222.387 275.763 222.326 275.687 222.248C275.555 222.094 275.482 221.898 275.482 221.695C275.482 221.493 275.555 221.297 275.687 221.143C275.763 221.065 275.856 221.004 275.957 220.964C276.059 220.924 276.168 220.907 276.278 220.912L278.602 220.976L277.51 219.243C277.407 219.072 277.35 218.878 277.343 218.678C277.34 218.571 277.359 218.465 277.399 218.365C277.439 218.266 277.498 218.176 277.574 218.1C277.646 218.027 277.732 217.969 277.827 217.929C277.922 217.889 278.024 217.869 278.127 217.869C278.27 217.867 278.412 217.907 278.533 217.985C278.654 218.063 278.749 218.174 278.807 218.306L279.937 220.322L281.016 218.396C281.083 218.246 281.191 218.117 281.327 218.025C281.463 217.932 281.622 217.878 281.786 217.869C281.887 217.869 281.987 217.89 282.079 217.929C282.172 217.969 282.256 218.027 282.325 218.1C282.401 218.171 282.46 218.256 282.5 218.352C282.54 218.447 282.559 218.549 282.556 218.652C282.555 218.835 282.501 219.013 282.402 219.166L281.272 220.976L283.622 220.912C283.731 220.906 283.841 220.923 283.943 220.963C284.045 221.003 284.137 221.064 284.213 221.143C284.345 221.297 284.417 221.493 284.417 221.695C284.417 221.898 284.345 222.094 284.213 222.248C284.137 222.326 284.045 222.388 283.943 222.428C283.841 222.468 283.731 222.485 283.622 222.479H281.247L282.3 224.122C282.418 224.321 282.485 224.546 282.492 224.777C282.496 224.881 282.478 224.985 282.441 225.082C282.403 225.179 282.347 225.267 282.274 225.342C282.206 225.414 282.125 225.472 282.034 225.511C281.944 225.551 281.846 225.572 281.747 225.573C281.588 225.571 281.433 225.522 281.301 225.433C281.168 225.344 281.065 225.219 281.003 225.072L279.937 223.185L278.871 225.072C278.808 225.223 278.703 225.352 278.569 225.446C278.435 225.539 278.277 225.592 278.114 225.599Z" fill="black"/>
<path d="M289.901 225.599C289.8 225.599 289.7 225.578 289.607 225.539C289.515 225.499 289.431 225.441 289.362 225.368C289.286 225.292 289.226 225.202 289.186 225.103C289.146 225.003 289.127 224.897 289.13 224.79C289.13 224.609 289.179 224.432 289.272 224.276L290.427 222.479H288.065C287.956 222.484 287.846 222.467 287.745 222.427C287.643 222.387 287.55 222.326 287.474 222.248C287.342 222.094 287.27 221.898 287.27 221.695C287.27 221.493 287.342 221.297 287.474 221.143C287.55 221.065 287.643 221.004 287.745 220.964C287.846 220.924 287.956 220.907 288.065 220.912L290.389 220.976L289.297 219.243C289.194 219.072 289.137 218.878 289.13 218.678C289.127 218.571 289.146 218.465 289.186 218.365C289.226 218.266 289.286 218.176 289.362 218.1C289.434 218.027 289.519 217.969 289.614 217.929C289.709 217.889 289.811 217.869 289.914 217.869C290.057 217.867 290.199 217.907 290.32 217.985C290.441 218.063 290.536 218.174 290.594 218.306L291.724 220.322L292.803 218.396C292.871 218.246 292.978 218.117 293.114 218.025C293.25 217.932 293.409 217.878 293.573 217.869C293.674 217.869 293.774 217.89 293.866 217.929C293.959 217.969 294.043 218.027 294.112 218.1C294.188 218.171 294.247 218.256 294.287 218.352C294.327 218.447 294.346 218.549 294.343 218.652C294.342 218.835 294.288 219.013 294.189 219.166L293.059 220.976L295.409 220.912C295.519 220.906 295.628 220.923 295.73 220.963C295.832 221.003 295.924 221.064 296 221.143C296.132 221.297 296.204 221.493 296.204 221.695C296.204 221.898 296.132 222.094 296 222.248C295.924 222.326 295.832 222.388 295.73 222.428C295.628 222.468 295.519 222.485 295.409 222.479H293.034L294.087 224.122C294.205 224.321 294.272 224.546 294.279 224.777C294.283 224.881 294.266 224.985 294.228 225.082C294.19 225.179 294.134 225.267 294.061 225.342C293.993 225.414 293.912 225.472 293.821 225.511C293.731 225.551 293.633 225.572 293.535 225.573C293.375 225.571 293.22 225.522 293.088 225.433C292.956 225.344 292.852 225.219 292.79 225.072L291.724 223.185L290.658 225.072C290.595 225.223 290.49 225.352 290.356 225.446C290.222 225.539 290.064 225.592 289.901 225.599Z" fill="black"/>
<path d="M301.74 225.599C301.639 225.599 301.539 225.578 301.446 225.539C301.354 225.499 301.27 225.441 301.2 225.368C301.124 225.292 301.065 225.202 301.025 225.103C300.985 225.003 300.966 224.897 300.969 224.79C300.969 224.609 301.018 224.432 301.111 224.276L302.266 222.479H299.904C299.794 222.484 299.685 222.467 299.583 222.427C299.482 222.387 299.389 222.326 299.313 222.248C299.181 222.094 299.108 221.898 299.108 221.695C299.108 221.493 299.181 221.297 299.313 221.143C299.389 221.065 299.482 221.004 299.583 220.964C299.685 220.924 299.794 220.907 299.904 220.912L302.228 220.976L301.136 219.243C301.033 219.072 300.976 218.878 300.969 218.678C300.966 218.571 300.985 218.465 301.025 218.365C301.065 218.266 301.124 218.176 301.2 218.1C301.272 218.027 301.358 217.969 301.453 217.929C301.548 217.889 301.65 217.869 301.753 217.869C301.896 217.867 302.038 217.907 302.159 217.985C302.28 218.063 302.375 218.174 302.433 218.306L303.563 220.322L304.642 218.396C304.709 218.246 304.817 218.117 304.953 218.025C305.089 217.932 305.248 217.878 305.412 217.869C305.513 217.869 305.613 217.89 305.705 217.929C305.798 217.969 305.882 218.027 305.951 218.1C306.026 218.171 306.086 218.256 306.126 218.352C306.166 218.447 306.185 218.549 306.182 218.652C306.181 218.835 306.127 219.013 306.028 219.166L304.898 220.976L307.248 220.912C307.357 220.906 307.467 220.923 307.569 220.963C307.671 221.003 307.763 221.064 307.839 221.143C307.971 221.297 308.043 221.493 308.043 221.695C308.043 221.898 307.971 222.094 307.839 222.248C307.763 222.326 307.671 222.388 307.569 222.428C307.467 222.468 307.357 222.485 307.248 222.479H304.873L305.926 224.122C306.044 224.321 306.111 224.546 306.118 224.777C306.122 224.881 306.104 224.985 306.067 225.082C306.029 225.179 305.973 225.267 305.9 225.342C305.832 225.414 305.751 225.472 305.66 225.511C305.57 225.551 305.472 225.572 305.373 225.573C305.214 225.569 305.06 225.52 304.928 225.431C304.796 225.343 304.692 225.218 304.629 225.072L303.563 223.185L302.497 225.072C302.434 225.223 302.329 225.352 302.195 225.446C302.061 225.539 301.903 225.592 301.74 225.599Z" fill="black"/>
<path d="M313.475 225.599C313.374 225.599 313.274 225.578 313.182 225.539C313.089 225.499 313.005 225.441 312.936 225.368C312.86 225.292 312.8 225.202 312.76 225.103C312.721 225.003 312.702 224.897 312.705 224.79C312.711 224.61 312.759 224.434 312.846 224.276L314.001 222.479H311.639C311.53 222.484 311.421 222.467 311.319 222.427C311.217 222.387 311.125 222.326 311.048 222.248C310.916 222.094 310.844 221.898 310.844 221.695C310.844 221.493 310.916 221.297 311.048 221.143C311.125 221.065 311.217 221.004 311.319 220.964C311.421 220.924 311.53 220.907 311.639 220.912L313.963 220.976L312.872 219.243C312.769 219.072 312.711 218.878 312.705 218.678C312.702 218.571 312.721 218.465 312.76 218.365C312.8 218.266 312.86 218.176 312.936 218.1C313.008 218.027 313.094 217.969 313.188 217.929C313.283 217.889 313.385 217.869 313.488 217.869C313.632 217.867 313.773 217.907 313.894 217.985C314.015 218.063 314.11 218.174 314.168 218.306L315.298 220.322L316.377 218.396C316.445 218.246 316.553 218.117 316.688 218.025C316.824 217.932 316.983 217.878 317.147 217.869C317.248 217.868 317.349 217.887 317.442 217.927C317.534 217.967 317.618 218.026 317.687 218.1C317.762 218.171 317.821 218.256 317.861 218.352C317.901 218.447 317.92 218.549 317.918 218.652C317.916 218.835 317.863 219.013 317.764 219.166L316.634 220.976L318.983 220.912C319.093 220.906 319.202 220.923 319.304 220.963C319.406 221.003 319.498 221.064 319.574 221.143C319.706 221.297 319.779 221.493 319.779 221.695C319.779 221.898 319.706 222.094 319.574 222.248C319.498 222.326 319.406 222.388 319.304 222.428C319.202 222.468 319.093 222.485 318.983 222.479H316.608L317.661 224.122C317.78 224.321 317.846 224.546 317.853 224.777C317.857 224.881 317.84 224.985 317.802 225.082C317.765 225.179 317.708 225.267 317.635 225.342C317.568 225.414 317.486 225.472 317.396 225.511C317.305 225.551 317.208 225.572 317.109 225.573C316.95 225.569 316.795 225.52 316.663 225.431C316.531 225.343 316.428 225.218 316.364 225.072L315.298 223.185L314.233 225.072C314.169 225.223 314.065 225.352 313.93 225.446C313.796 225.539 313.638 225.592 313.475 225.599Z" fill="black"/>
<path d="M325.262 225.599C325.161 225.599 325.061 225.578 324.969 225.539C324.876 225.499 324.792 225.441 324.723 225.368C324.647 225.292 324.587 225.202 324.547 225.103C324.508 225.003 324.489 224.897 324.492 224.79C324.498 224.61 324.546 224.434 324.633 224.276L325.789 222.479H323.439C323.328 222.485 323.216 222.468 323.112 222.428C323.008 222.388 322.914 222.327 322.835 222.248C322.703 222.094 322.631 221.898 322.631 221.695C322.631 221.493 322.703 221.297 322.835 221.143C322.914 221.064 323.008 221.002 323.112 220.963C323.216 220.923 323.328 220.906 323.439 220.912L325.75 220.976L324.659 219.243C324.556 219.072 324.498 218.878 324.492 218.678C324.489 218.571 324.508 218.465 324.547 218.365C324.587 218.266 324.647 218.176 324.723 218.1C324.795 218.027 324.881 217.969 324.976 217.929C325.07 217.889 325.172 217.869 325.275 217.869C325.419 217.867 325.56 217.907 325.681 217.985C325.802 218.063 325.898 218.174 325.956 218.306L327.085 220.322L328.164 218.396C328.232 218.246 328.34 218.117 328.476 218.025C328.611 217.932 328.77 217.878 328.934 217.869C329.035 217.868 329.136 217.887 329.229 217.927C329.322 217.967 329.405 218.026 329.474 218.1C329.549 218.171 329.608 218.256 329.648 218.352C329.688 218.447 329.707 218.549 329.705 218.652C329.703 218.835 329.65 219.013 329.551 219.166L328.421 220.976L330.77 220.912C330.88 220.906 330.989 220.923 331.091 220.963C331.193 221.003 331.285 221.064 331.361 221.143C331.493 221.297 331.566 221.493 331.566 221.695C331.566 221.898 331.493 222.094 331.361 222.248C331.285 222.326 331.193 222.388 331.091 222.428C330.989 222.468 330.88 222.485 330.77 222.479H328.395L329.448 224.122C329.567 224.321 329.633 224.546 329.641 224.777C329.644 224.881 329.627 224.985 329.589 225.082C329.552 225.179 329.495 225.267 329.422 225.342C329.355 225.414 329.273 225.472 329.183 225.511C329.092 225.551 328.995 225.572 328.896 225.573C328.737 225.569 328.582 225.52 328.45 225.431C328.319 225.343 328.215 225.218 328.151 225.072L327.085 223.185L326.02 225.072C325.956 225.223 325.852 225.352 325.717 225.446C325.583 225.539 325.425 225.592 325.262 225.599Z" fill="black"/>
<path d="M337.049 225.599C336.948 225.599 336.849 225.578 336.756 225.539C336.663 225.499 336.58 225.441 336.51 225.368C336.434 225.292 336.374 225.202 336.335 225.103C336.295 225.003 336.276 224.897 336.279 224.79C336.279 224.609 336.328 224.432 336.42 224.276L337.576 222.479H335.213C335.104 222.484 334.995 222.467 334.893 222.427C334.791 222.387 334.699 222.326 334.622 222.248C334.49 222.094 334.418 221.898 334.418 221.695C334.418 221.493 334.49 221.297 334.622 221.143C334.699 221.065 334.791 221.004 334.893 220.964C334.995 220.924 335.104 220.907 335.213 220.912L337.537 220.976L336.407 219.307C336.304 219.136 336.247 218.942 336.24 218.742C336.237 218.635 336.256 218.529 336.296 218.429C336.336 218.33 336.395 218.24 336.471 218.164C336.543 218.091 336.629 218.033 336.724 217.993C336.819 217.953 336.921 217.933 337.024 217.933C337.167 217.931 337.309 217.971 337.43 218.049C337.551 218.127 337.646 218.238 337.704 218.37L338.834 220.386L339.913 218.46C339.981 218.31 340.088 218.182 340.224 218.089C340.36 217.996 340.519 217.942 340.683 217.933C340.784 217.932 340.884 217.952 340.977 217.991C341.07 218.031 341.154 218.09 341.222 218.164C341.298 218.235 341.357 218.321 341.397 218.416C341.437 218.511 341.456 218.613 341.453 218.717C341.452 218.899 341.398 219.077 341.299 219.23L340.169 221.041L342.519 220.976C342.628 220.97 342.738 220.987 342.84 221.027C342.942 221.067 343.034 221.129 343.11 221.208C343.242 221.361 343.314 221.557 343.314 221.76C343.314 221.962 343.242 222.158 343.11 222.312C343.034 222.391 342.942 222.452 342.84 222.492C342.738 222.532 342.628 222.549 342.519 222.543H340.144L341.197 224.186C341.315 224.385 341.382 224.61 341.389 224.841C341.393 224.945 341.375 225.049 341.338 225.146C341.3 225.243 341.244 225.332 341.171 225.406C341.103 225.478 341.022 225.536 340.931 225.576C340.841 225.615 340.743 225.636 340.644 225.637C340.485 225.633 340.331 225.584 340.199 225.496C340.067 225.407 339.963 225.282 339.9 225.137L338.834 223.249L337.768 225.137C337.699 225.27 337.596 225.382 337.47 225.463C337.344 225.544 337.199 225.591 337.049 225.599Z" fill="black"/>
<path d="M348.837 225.599C348.736 225.599 348.636 225.578 348.543 225.539C348.451 225.499 348.367 225.441 348.297 225.368C348.221 225.292 348.162 225.202 348.122 225.103C348.082 225.003 348.063 224.897 348.066 224.79C348.072 224.61 348.121 224.434 348.208 224.276L349.363 222.479H347.013C346.904 222.487 346.794 222.47 346.692 222.43C346.59 222.39 346.498 222.328 346.423 222.248C346.283 222.098 346.205 221.9 346.205 221.695C346.205 221.49 346.283 221.293 346.423 221.143C346.498 221.063 346.59 221 346.692 220.96C346.794 220.92 346.904 220.904 347.013 220.912L349.325 220.976L348.233 219.243C348.13 219.072 348.073 218.878 348.066 218.678C348.063 218.573 348.081 218.468 348.118 218.37C348.156 218.272 348.213 218.183 348.286 218.108C348.36 218.032 348.447 217.972 348.544 217.931C348.641 217.89 348.745 217.869 348.85 217.869C348.993 217.867 349.135 217.907 349.256 217.985C349.377 218.063 349.472 218.174 349.53 218.306L350.66 220.322L351.739 218.396C351.806 218.246 351.914 218.117 352.05 218.025C352.186 217.932 352.345 217.878 352.509 217.869C352.61 217.866 352.711 217.885 352.804 217.925C352.897 217.965 352.981 218.025 353.048 218.1C353.123 218.171 353.183 218.256 353.223 218.352C353.263 218.447 353.282 218.549 353.279 218.652C353.278 218.835 353.224 219.013 353.125 219.166L351.995 220.976L354.345 220.912C354.454 220.906 354.564 220.923 354.666 220.963C354.768 221.003 354.86 221.064 354.936 221.143C355.068 221.297 355.14 221.493 355.14 221.695C355.14 221.898 355.068 222.094 354.936 222.248C354.86 222.326 354.768 222.388 354.666 222.428C354.564 222.468 354.454 222.485 354.345 222.479H351.97L353.023 224.122C353.141 224.321 353.208 224.546 353.215 224.777C353.219 224.878 353.202 224.979 353.166 225.074C353.131 225.169 353.077 225.256 353.008 225.329C352.939 225.403 352.856 225.463 352.763 225.505C352.671 225.547 352.572 225.57 352.47 225.573C352.312 225.569 352.157 225.52 352.025 225.431C351.893 225.343 351.789 225.218 351.726 225.072L350.66 223.185L349.594 225.072C349.531 225.223 349.426 225.352 349.292 225.446C349.158 225.539 349 225.592 348.837 225.599Z" fill="black"/>
<path d="M360.624 225.599C360.523 225.599 360.423 225.578 360.33 225.539C360.238 225.499 360.154 225.441 360.085 225.368C360.009 225.292 359.949 225.202 359.909 225.103C359.869 225.003 359.85 224.897 359.853 224.79C359.859 224.61 359.908 224.434 359.995 224.276L361.15 222.479H358.788C358.68 222.485 358.573 222.468 358.473 222.428C358.373 222.388 358.283 222.326 358.21 222.248C358.07 222.098 357.992 221.9 357.992 221.695C357.992 221.49 358.07 221.293 358.21 221.143C358.283 221.065 358.373 221.003 358.473 220.963C358.573 220.923 358.68 220.906 358.788 220.912L361.112 220.976L360.02 219.243C359.917 219.072 359.86 218.878 359.853 218.678C359.85 218.573 359.868 218.468 359.906 218.37C359.943 218.272 360 218.183 360.074 218.108C360.147 218.032 360.234 217.972 360.331 217.931C360.428 217.89 360.532 217.869 360.637 217.869C360.78 217.867 360.922 217.907 361.043 217.985C361.164 218.063 361.259 218.174 361.317 218.306L362.447 220.322L363.526 218.396C363.594 218.246 363.701 218.117 363.837 218.025C363.973 217.932 364.132 217.878 364.296 217.869C364.397 217.866 364.498 217.885 364.591 217.925C364.685 217.965 364.768 218.025 364.835 218.1C364.911 218.171 364.97 218.256 365.01 218.352C365.05 218.447 365.069 218.549 365.066 218.652C365.065 218.835 365.011 219.013 364.912 219.166L363.782 220.976L366.132 220.912C366.241 220.906 366.351 220.923 366.453 220.963C366.555 221.003 366.647 221.064 366.723 221.143C366.855 221.297 366.927 221.493 366.927 221.695C366.927 221.898 366.855 222.094 366.723 222.248C366.647 222.326 366.555 222.388 366.453 222.428C366.351 222.468 366.241 222.485 366.132 222.479H363.757L364.81 224.122C364.928 224.321 364.995 224.546 365.002 224.777C365.006 224.878 364.989 224.979 364.954 225.074C364.918 225.169 364.864 225.256 364.795 225.329C364.726 225.403 364.643 225.463 364.551 225.505C364.458 225.547 364.359 225.57 364.258 225.573C364.099 225.569 363.944 225.52 363.812 225.431C363.68 225.343 363.576 225.218 363.513 225.072L362.447 223.185L361.381 225.072C361.318 225.223 361.213 225.352 361.079 225.446C360.945 225.539 360.787 225.592 360.624 225.599Z" fill="black"/>
<path d="M372.359 225.599C372.258 225.599 372.159 225.578 372.066 225.539C371.973 225.499 371.889 225.441 371.82 225.368C371.744 225.292 371.684 225.202 371.644 225.103C371.605 225.003 371.586 224.897 371.589 224.79C371.595 224.61 371.643 224.434 371.73 224.276L372.886 222.479H370.523C370.416 222.485 370.308 222.468 370.208 222.428C370.109 222.388 370.019 222.326 369.945 222.248C369.805 222.098 369.728 221.9 369.728 221.695C369.728 221.49 369.805 221.293 369.945 221.143C370.019 221.065 370.109 221.003 370.208 220.963C370.308 220.923 370.416 220.906 370.523 220.912L372.847 220.976L371.756 219.243C371.653 219.072 371.595 218.878 371.589 218.678C371.586 218.571 371.605 218.465 371.644 218.365C371.684 218.266 371.744 218.176 371.82 218.1C371.892 218.027 371.978 217.969 372.073 217.929C372.167 217.889 372.269 217.869 372.372 217.869C372.516 217.867 372.657 217.907 372.778 217.985C372.899 218.063 372.995 218.174 373.053 218.306L374.182 220.322L375.261 218.396C375.329 218.246 375.437 218.117 375.573 218.025C375.708 217.932 375.867 217.878 376.031 217.869C376.133 217.866 376.234 217.885 376.327 217.925C376.42 217.965 376.503 218.025 376.571 218.1C376.646 218.171 376.705 218.256 376.745 218.352C376.785 218.447 376.804 218.549 376.802 218.652C376.8 218.835 376.747 219.013 376.648 219.166L375.518 220.976L377.868 220.912C377.977 220.906 378.086 220.923 378.188 220.963C378.29 221.003 378.382 221.064 378.458 221.143C378.59 221.297 378.663 221.493 378.663 221.695C378.663 221.898 378.59 222.094 378.458 222.248C378.382 222.326 378.29 222.388 378.188 222.428C378.086 222.468 377.977 222.485 377.868 222.479H375.492L376.545 224.122C376.664 224.321 376.73 224.546 376.738 224.777C376.741 224.881 376.724 224.985 376.686 225.082C376.649 225.179 376.592 225.267 376.519 225.342C376.452 225.414 376.37 225.472 376.28 225.511C376.189 225.551 376.092 225.572 375.993 225.573C375.834 225.569 375.679 225.52 375.548 225.431C375.416 225.343 375.312 225.218 375.248 225.072L374.182 223.185L373.117 225.072C373.053 225.223 372.949 225.352 372.814 225.446C372.68 225.539 372.522 225.592 372.359 225.599Z" fill="black"/>
<path d="M412.754 254.001H428.457" stroke="white" stroke-width="3" stroke-linecap="round" stroke-linejoin="round"/>
<path d="M194.949 138.377V242.676C194.949 245.697 196.149 248.593 198.285 250.729C200.421 252.865 203.318 254.065 206.338 254.065H397.847" stroke="white" stroke-width="3" stroke-linecap="round" stroke-linejoin="round"/>
<path d="M194.949 110.719V126.358" stroke="white" stroke-width="3" stroke-linecap="round" stroke-linejoin="round"/>
</svg>
