<svg width="21" height="21" viewBox="0 0 21 21" fill="none" xmlns="http://www.w3.org/2000/svg">
<path d="M4.375 7H2.625V15.75H18.375V7H17.0625M13.5625 6.125C13.9049 6.32302 14.1982 6.59587 14.4204 6.92316C14.6425 7.25045 14.7879 7.62372 14.8455 8.01508C14.9031 8.40643 14.8715 8.80575 14.7531 9.18318C14.6347 9.56062 14.4325 9.90642 14.1617 10.1947C13.8909 10.483 13.5584 10.7064 13.189 10.8481C12.8197 10.9899 12.4232 11.0463 12.029 11.0132C11.6348 10.9802 11.2532 10.8584 10.9127 10.6571C10.5721 10.4558 10.2815 10.1802 10.0625 9.85075M11.375 5.25C11.375 5.94619 11.0984 6.61387 10.6062 7.10616C10.1139 7.59844 9.44619 7.875 8.75 7.875C8.05381 7.875 7.38613 7.59844 6.89384 7.10616C6.40156 6.61387 6.125 5.94619 6.125 5.25C6.125 4.55381 6.40156 3.88613 6.89384 3.39384C7.38613 2.90156 8.05381 2.625 8.75 2.625C9.44619 2.625 10.1139 2.90156 10.6062 3.39384C11.0984 3.88613 11.375 4.55381 11.375 5.25Z" stroke="#299FD8" stroke-width="2" stroke-linecap="round" stroke-linejoin="round"/>
</svg>
