<svg width="47" height="47" viewBox="0 0 47 47" fill="none" xmlns="http://www.w3.org/2000/svg">
<path d="M11.75 40.1458C13.7083 21.5417 22.5208 15.6667 39.1667 11.75" stroke="white" stroke-width="1.5" stroke-linecap="round" stroke-linejoin="round"/>
<path d="M31.1551 7.46125L39.9402 11.5542L35.8434 20.3392M31.3333 39.6425L35.487 35.487M35.487 35.487L39.6425 31.3333M35.487 35.487L31.3333 31.3333M35.487 35.487L39.6425 39.6425M9.79167 13.7083C10.8304 13.7083 11.8267 13.2957 12.5612 12.5612C13.2957 11.8267 13.7083 10.8304 13.7083 9.79167C13.7083 8.7529 13.2957 7.75668 12.5612 7.02216C11.8267 6.28765 10.8304 5.875 9.79167 5.875C8.7529 5.875 7.75668 6.28765 7.02216 7.02216C6.28765 7.75668 5.875 8.7529 5.875 9.79167C5.875 10.8304 6.28765 11.8267 7.02216 12.5612C7.75668 13.2957 8.7529 13.7083 9.79167 13.7083Z" stroke="white" stroke-width="1.5" stroke-linecap="round" stroke-linejoin="round"/>
</svg>
