<svg width="18" height="18" viewBox="0 0 18 18" fill="none" xmlns="http://www.w3.org/2000/svg">
<path d="M5.0625 2.25C4.31658 2.25 3.60121 2.54632 3.07376 3.07376C2.54632 3.60121 2.25 4.31658 2.25 5.0625V12.9375C2.25 13.6834 2.54632 14.3988 3.07376 14.9262C3.60121 15.4537 4.31658 15.75 5.0625 15.75H12.9375C13.6834 15.75 14.3988 15.4537 14.9262 14.9262C15.4537 14.3988 15.75 13.6834 15.75 12.9375V5.0625C15.75 4.31658 15.4537 3.60121 14.9262 3.07376C14.3988 2.54632 13.6834 2.25 12.9375 2.25H5.0625ZM3.375 5.0625C3.375 4.61495 3.55279 4.18572 3.86926 3.86926C4.18572 3.55279 4.61495 3.375 5.0625 3.375H12.9375C13.3851 3.375 13.8143 3.55279 14.1307 3.86926C14.4472 4.18572 14.625 4.61495 14.625 5.0625V12.9375C14.625 13.3851 14.4472 13.8143 14.1307 14.1307C13.8143 14.4472 13.3851 14.625 12.9375 14.625H5.0625C4.61495 14.625 4.18572 14.4472 3.86926 14.1307C3.55279 13.8143 3.375 13.3851 3.375 12.9375V5.0625ZM5.625 5.625C5.47582 5.625 5.33274 5.68426 5.22725 5.78975C5.12176 5.89524 5.0625 6.03832 5.0625 6.1875C5.0625 6.33668 5.12176 6.47976 5.22725 6.58525C5.33274 6.69074 5.47582 6.75 5.625 6.75H12.375C12.5242 6.75 12.6673 6.69074 12.7727 6.58525C12.8782 6.47976 12.9375 6.33668 12.9375 6.1875C12.9375 6.03832 12.8782 5.89524 12.7727 5.78975C12.6673 5.68426 12.5242 5.625 12.375 5.625H5.625Z" fill="#299FD8"/>
</svg>
