<svg width="48" height="49" viewBox="0 0 48 49" fill="none" xmlns="http://www.w3.org/2000/svg">
<path d="M41.954 38.9755L41.178 35.8476C41.1283 35.6482 41.0396 35.4611 40.9173 35.2976C40.7949 35.1341 40.6414 34.9976 40.466 34.8962C40.2897 34.7933 40.0951 34.7273 39.8935 34.702C39.6919 34.6768 39.4874 34.6928 39.292 34.7492L30.188 37.3707L24 34.7084L31.83 32.6606C32.3645 32.1738 32.7517 31.5412 32.946 30.8374L32.332 28.5834L16 30.625H6V42.875H16L24.91 44.8432C25.3944 44.8882 25.8822 44.8765 26.364 44.8085L40.884 40.8191C41.2649 40.715 41.5908 40.4629 41.792 40.1168C41.8914 39.9464 41.9568 39.7578 41.9846 39.5616C42.0124 39.3654 42.002 39.1655 41.954 38.9734V38.9755ZM12 40.8334H8V32.6667H12V40.8334ZM25.844 42.8383C25.7539 42.8623 25.6611 42.8746 25.568 42.875C25.4907 42.8753 25.4136 42.8671 25.338 42.8505L16 40.7578V32.7075L30.658 30.8537L20 34.7084L29.442 39.2654L30.076 39.5247L30.732 39.3348L39.364 36.8501L39.892 38.9775L25.844 42.8383ZM18 4.08337V26.5417L34.36 15.3125L18 4.08337ZM22 11.76L27.2 15.3125L22 18.8855V11.76Z" fill="white"/>
</svg>
