<svg width="24" height="24" viewBox="0 0 24 24" fill="none" xmlns="http://www.w3.org/2000/svg">
<path d="M12 11H12.01V11.01H12V11Z" stroke="#299FD8" stroke-width="3.75" stroke-linejoin="round"/>
<path d="M11.9999 22L17.4999 16.5C18.5877 15.4123 19.3284 14.0263 19.6285 12.5176C19.9286 11.0088 19.7745 9.44492 19.1858 8.0237C18.5971 6.60247 17.6002 5.38774 16.3211 4.5331C15.042 3.67845 13.5383 3.22229 11.9999 3.22229C10.4616 3.22229 8.95782 3.67845 7.67874 4.5331C6.39966 5.38774 5.40273 6.60247 4.81403 8.0237C4.22532 9.44492 4.07127 11.0088 4.37135 12.5176C4.67144 14.0263 5.41219 15.4123 6.49993 16.5L11.9999 22Z" stroke="#299FD8" stroke-width="2.5" stroke-linejoin="round"/>
</svg>
