<svg width="170" height="171" viewBox="0 0 170 171" fill="none" xmlns="http://www.w3.org/2000/svg">
<ellipse cx="84.3574" cy="83.7557" rx="77.3501" ry="78.0001" fill="#263238"/>
<circle cx="84.5501" cy="84.5501" r="83.5501" stroke="#263238" stroke-width="2"/>
<circle cx="141.1" cy="143.375" r="17.875" fill="white"/>
<path d="M141.1 122.25C135.089 122.323 129.344 124.743 125.094 128.994C120.843 133.244 118.423 138.989 118.35 145C118.423 151.011 120.843 156.756 125.094 161.007C129.344 165.257 135.089 167.678 141.1 167.75C147.111 167.678 152.856 165.257 157.107 161.007C161.357 156.756 163.778 151.011 163.85 145C163.778 138.989 161.357 133.244 157.107 128.994C152.856 124.743 147.111 122.323 141.1 122.25ZM154.1 146.625H142.725V158H139.475V146.625H128.1V143.375H139.475V132H142.725V143.375H154.1V146.625Z" fill="#299FD8"/>
<path d="M83.9965 52.7002C88.1467 52.7002 92.1268 54.3488 95.0614 57.2834C97.996 60.218 99.6447 64.1982 99.6447 68.3484C99.6447 72.4985 97.996 76.4787 95.0614 79.4133C92.1268 82.3479 88.1467 83.9965 83.9965 83.9965C79.8464 83.9965 75.8662 82.3479 72.9316 79.4133C69.997 76.4787 68.3484 72.4985 68.3484 68.3484C68.3484 64.1982 69.997 60.218 72.9316 57.2834C75.8662 54.3488 79.8464 52.7002 83.9965 52.7002ZM83.9965 91.8206C101.288 91.8206 115.293 98.8232 115.293 107.469V115.293H52.7002V107.469C52.7002 98.8232 66.7053 91.8206 83.9965 91.8206Z" fill="white"/>
</svg>
