<svg width="33" height="33" viewBox="0 0 33 33" fill="none" xmlns="http://www.w3.org/2000/svg">
<path opacity="0.2" d="M27.8438 20.625L20.625 27.8438V20.625H27.8438Z" fill="#299FD8"/>
<path d="M11.3437 12.375C11.3437 12.1015 11.4524 11.8392 11.6458 11.6458C11.8392 11.4524 12.1015 11.3437 12.375 11.3437H20.625C20.8985 11.3437 21.1608 11.4524 21.3542 11.6458C21.5476 11.8392 21.6562 12.1015 21.6562 12.375C21.6562 12.6485 21.5476 12.9108 21.3542 13.1042C21.1608 13.2976 20.8985 13.4062 20.625 13.4062H12.375C12.1015 13.4062 11.8392 13.2976 11.6458 13.1042C11.4524 12.9108 11.3437 12.6485 11.3437 12.375ZM12.375 17.5312H20.625C20.8985 17.5312 21.1608 17.4226 21.3542 17.2292C21.5476 17.0358 21.6562 16.7735 21.6562 16.5C21.6562 16.2265 21.5476 15.9642 21.3542 15.7708C21.1608 15.5774 20.8985 15.4687 20.625 15.4687H12.375C12.1015 15.4687 11.8392 15.5774 11.6458 15.7708C11.4524 15.9642 11.3437 16.2265 11.3437 16.5C11.3437 16.7735 11.4524 17.0358 11.6458 17.2292C11.8392 17.4226 12.1015 17.5312 12.375 17.5312ZM16.5 19.5937H12.375C12.1015 19.5937 11.8392 19.7024 11.6458 19.8958C11.4524 20.0892 11.3437 20.3515 11.3437 20.625C11.3437 20.8985 11.4524 21.1608 11.6458 21.3542C11.8392 21.5476 12.1015 21.6562 12.375 21.6562H16.5C16.7735 21.6562 17.0358 21.5476 17.2292 21.3542C17.4226 21.1608 17.5312 20.8985 17.5312 20.625C17.5312 20.3515 17.4226 20.0892 17.2292 19.8958C17.0358 19.7024 16.7735 19.5937 16.5 19.5937ZM28.875 6.1875V20.1983C28.8759 20.4693 28.8229 20.7377 28.7191 20.988C28.6153 21.2383 28.4628 21.4654 28.2704 21.6562L21.6562 28.2704C21.4654 28.4628 21.2383 28.6153 20.988 28.7191C20.7377 28.8229 20.4693 28.8759 20.1983 28.875H6.1875C5.64049 28.875 5.11589 28.6577 4.72909 28.2709C4.3423 27.8841 4.125 27.3595 4.125 26.8125V6.1875C4.125 5.64049 4.3423 5.11589 4.72909 4.72909C5.11589 4.3423 5.64049 4.125 6.1875 4.125H26.8125C27.3595 4.125 27.8841 4.3423 28.2709 4.72909C28.6577 5.11589 28.875 5.64049 28.875 6.1875ZM6.1875 26.8125H19.5937V20.625C19.5937 20.3515 19.7024 20.0892 19.8958 19.8958C20.0892 19.7024 20.3515 19.5937 20.625 19.5937H26.8125V6.1875H6.1875V26.8125ZM21.6562 21.6562V25.3559L25.3546 21.6562H21.6562Z" fill="#299FD8"/>
</svg>
