<svg width="18" height="18" viewBox="0 0 18 18" fill="none" xmlns="http://www.w3.org/2000/svg">
<path d="M14.25 7.5H3.75C2.92157 7.5 2.25 8.17157 2.25 9V15C2.25 15.8284 2.92157 16.5 3.75 16.5H14.25C15.0784 16.5 15.75 15.8284 15.75 15V9C15.75 8.17157 15.0784 7.5 14.25 7.5Z" stroke="#299FD8" stroke-width="2"/>
<path d="M4.5 4.5C4.5 3.90326 4.73705 3.33097 5.15901 2.90901C5.58097 2.48705 6.15326 2.25 6.75 2.25H11.25C11.8467 2.25 12.419 2.48705 12.841 2.90901C13.2629 3.33097 13.5 3.90326 13.5 4.5V7.5H4.5V4.5Z" stroke="#299FD8" stroke-width="2"/>
</svg>
