<svg width="13" height="10" viewBox="0 0 13 10" fill="none" xmlns="http://www.w3.org/2000/svg">
<path d="M12.3125 1.1875C11.9635 1.69792 11.5417 2.13281 11.0469 2.49219C11.0521 2.5651 11.0547 2.67448 11.0547 2.82031C11.0547 3.4974 10.9557 4.17448 10.7578 4.85156C10.5599 5.52344 10.2578 6.16927 9.85156 6.78906C9.45052 7.40885 8.97135 7.95833 8.41406 8.4375C7.85677 8.91146 7.1849 9.29167 6.39844 9.57812C5.61198 9.85937 4.77083 10 3.875 10C2.46354 10 1.17188 9.6224 1.86265e-08 8.86719C0.182292 8.88802 0.385417 8.89844 0.609375 8.89844C1.78125 8.89844 2.82552 8.53906 3.74219 7.82031C3.19531 7.8099 2.70573 7.64323 2.27344 7.32031C1.84115 6.99219 1.54427 6.57552 1.38281 6.07031C1.55469 6.09635 1.71354 6.10937 1.85938 6.10937C2.08333 6.10937 2.30469 6.08073 2.52344 6.02344C1.9401 5.90365 1.45573 5.61458 1.07031 5.15625C0.690104 4.69271 0.5 4.15625 0.5 3.54687V3.51562C0.854167 3.71354 1.23438 3.82031 1.64063 3.83594C1.29688 3.60677 1.02344 3.30729 0.820313 2.9375C0.617188 2.56771 0.515625 2.16667 0.515625 1.73437C0.515625 1.27604 0.630208 0.851562 0.859375 0.460937C1.48958 1.23698 2.25521 1.85937 3.15625 2.32812C4.0625 2.79167 5.03125 3.04948 6.0625 3.10156C6.02083 2.90365 6 2.71094 6 2.52344C6 1.82552 6.24479 1.23177 6.73438 0.742187C7.22917 0.247396 7.82552 -2.38419e-07 8.52344 -2.38419e-07C9.2526 -2.38419e-07 9.86719 0.265625 10.3672 0.796875C10.9349 0.6875 11.4688 0.484375 11.9688 0.1875C11.776 0.786458 11.4063 1.25 10.8594 1.57812C11.3438 1.52604 11.8281 1.39583 12.3125 1.1875Z" fill="white"/>
</svg>
