<svg width="24" height="24" viewBox="0 0 24 24" fill="none" xmlns="http://www.w3.org/2000/svg">
<path d="M12 19.5C7.85775 19.5 4.5 16.1423 4.5 12C4.5 7.85775 7.85775 4.5 12 4.5C16.1423 4.5 19.5 7.85775 19.5 12C19.5 16.1423 16.1423 19.5 12 19.5ZM12 18C13.5913 18 15.1174 17.3679 16.2426 16.2426C17.3679 15.1174 18 13.5913 18 12C18 10.4087 17.3679 8.88258 16.2426 7.75736C15.1174 6.63214 13.5913 6 12 6C10.4087 6 8.88258 6.63214 7.75736 7.75736C6.63214 8.88258 6 10.4087 6 12C6 13.5913 6.63214 15.1174 7.75736 16.2426C8.88258 17.3679 10.4087 18 12 18ZM12.75 12H15.75V13.5H11.25V8.25H12.75V12Z" fill="#299FD8"/>
</svg>
