<svg width="471" height="379" viewBox="0 0 471 379" fill="none" xmlns="http://www.w3.org/2000/svg">
<path d="M242.544 365.427C244.342 371.228 242.664 377.556 239.079 378.667C235.495 379.778 232.078 378.214 230.28 372.412C228.482 366.611 229.886 363.634 233.471 362.523C237.055 361.412 240.746 359.626 242.544 365.427Z" fill="#299FD8" fill-opacity="0.18"/>
<path d="M401.783 348.23C393.503 355.739 381.642 357.859 377.003 352.742C372.363 347.626 372.316 340.709 380.597 333.201C388.877 325.692 394.935 325.721 399.575 330.837C404.214 335.953 410.063 340.721 401.783 348.23Z" fill="#299FD8" fill-opacity="0.18"/>
<path d="M116.827 361.027C105.346 371.438 85.4141 370.532 75.2168 359.287C65.0195 348.043 62.1444 335.353 73.6254 324.942C85.1065 314.53 95.7362 317.03 105.934 328.275C116.131 339.519 128.308 350.615 116.827 361.027Z" fill="#299FD8" fill-opacity="0.18"/>
<path d="M98.3043 247.668C100.102 253.469 98.4245 259.797 94.8401 260.908C91.2557 262.019 87.8384 260.454 86.0405 254.653C84.2425 248.852 85.6471 245.875 89.2315 244.764C92.8158 243.653 96.5064 241.867 98.3043 247.668Z" fill="#299FD8" fill-opacity="0.18"/>
<path d="M413.69 150.683C412.437 134.853 425.742 119.25 441.343 118.015C456.943 116.78 469.105 122.39 470.358 138.22C471.611 154.049 462.871 161.108 447.27 162.343C431.67 163.578 414.943 166.512 413.69 150.683Z" fill="#299FD8" fill-opacity="0.18"/>
<path d="M19.9828 119.698C16.8229 123.062 9.44368 118.998 5.61854 115.173C1.7934 111.348 -3.04705 103.815 2.52695 98.241C8.10096 92.667 15.562 100.381 19.3872 104.206C23.2123 108.031 23.1426 116.334 19.9828 119.698Z" fill="#299FD8" fill-opacity="0.18"/>
<path d="M174.587 52.9906C166.307 60.4995 154.446 62.6193 149.807 57.5032C145.167 52.3871 145.12 45.4702 153.401 37.9614C161.681 30.4525 167.739 30.4815 172.379 35.5976C177.018 40.7137 182.867 45.4817 174.587 52.9906Z" fill="#299FD8" fill-opacity="0.18"/>
<path d="M321.296 3.61465C322.788 9.18504 319.067 15.6355 313.577 17.1064C308.087 18.5774 303.374 17.3772 301.881 11.8068C300.388 6.23641 303.044 3.13843 308.533 1.66746C314.023 0.1965 319.803 -1.95575 321.296 3.61465Z" fill="#299FD8" fill-opacity="0.18"/>
</svg>
