<svg width="66" height="67" viewBox="0 0 66 67" fill="none" xmlns="http://www.w3.org/2000/svg">
<path d="M5.654 54.4794L22.396 37.3106L31.4435 46.1044L42.5012 36.2917L48.6612 42.3887M60.5 15.3542C60.5 14.2436 60.0654 13.1785 59.2918 12.3932C58.5182 11.6079 57.469 11.1667 56.375 11.1667H9.625C8.53098 11.1667 7.48177 11.6079 6.70818 12.3932C5.9346 13.1785 5.5 14.2436 5.5 15.3542V27.9167H60.5V15.3542Z" stroke="black" stroke-width="2" stroke-linecap="round" stroke-linejoin="round"/>
<path d="M60.5 25.125V51.6459C60.5 52.7564 60.0654 53.8216 59.2918 54.6069C58.5182 55.3922 57.469 55.8334 56.375 55.8334H16.5M26.279 19.5417H51.029M15.2762 19.5417H18.0262M5.5 25.125V37.6875" stroke="black" stroke-width="2" stroke-linecap="round" stroke-linejoin="round"/>
</svg>
