<svg width="31" height="31" viewBox="0 0 31 31" fill="none" xmlns="http://www.w3.org/2000/svg">
<path d="M26.1562 5.8125V10.6562H16.4688V5.8125H26.1562ZM26.1562 3.875H16.4688C15.9549 3.875 15.4621 4.07913 15.0987 4.44248C14.7354 4.80583 14.5312 5.29864 14.5312 5.8125V10.6562C14.5312 11.1701 14.7354 11.6629 15.0987 12.0263C15.4621 12.3896 15.9549 12.5938 16.4688 12.5938H26.1562C26.6701 12.5938 27.1629 12.3896 27.5263 12.0263C27.8896 11.6629 28.0938 11.1701 28.0938 10.6562V5.8125C28.0938 5.29864 27.8896 4.80583 27.5263 4.44248C27.1629 4.07913 26.6701 3.875 26.1562 3.875ZM11.625 24.2188H5.8125V16.4688H11.625V14.5312H5.8125C5.29864 14.5312 4.80583 14.7354 4.44248 15.0987C4.07913 15.4621 3.875 15.9549 3.875 16.4688V24.2188C3.875 24.7326 4.07913 25.2254 4.44248 25.5888C4.80583 25.9521 5.29864 26.1562 5.8125 26.1562H11.625V24.2188ZM29.0625 19.375H16.3021L18.8073 16.8698L17.4375 15.5L12.5938 20.3438L17.4375 25.1875L18.8073 23.8177L16.3021 21.3125H29.0625V19.375ZM10.6562 5.8125V10.6562H5.8125V5.8125H10.6562ZM10.6562 3.875H5.8125C5.29864 3.875 4.80583 4.07913 4.44248 4.44248C4.07913 4.80583 3.875 5.29864 3.875 5.8125V10.6562C3.875 11.1701 4.07913 11.6629 4.44248 12.0263C4.80583 12.3896 5.29864 12.5938 5.8125 12.5938H10.6562C11.1701 12.5938 11.6629 12.3896 12.0263 12.0263C12.3896 11.6629 12.5938 11.1701 12.5938 10.6562V5.8125C12.5938 5.29864 12.3896 4.80583 12.0263 4.44248C11.6629 4.07913 11.1701 3.875 10.6562 3.875Z" fill="black"/>
</svg>
