<svg width="511" height="126" viewBox="0 0 511 126" fill="none" xmlns="http://www.w3.org/2000/svg">
<rect width="13" height="126" rx="6.5" fill="#F0F0F0"/>
<rect y="49" width="13" height="73.4638" rx="6.5" fill="#FF8B7B"/>
<rect x="83" width="13" height="126" rx="6.5" fill="#F0F0F0"/>
<rect x="83" width="13" height="54" rx="6.5" fill="#2AA316"/>
<rect x="166" width="13" height="126" rx="6.5" fill="#F0F0F0"/>
<rect x="166" y="20" width="13" height="34" rx="6.5" fill="#2AA316"/>
<rect x="249" width="13" height="126" rx="6.5" fill="#F0F0F0"/>
<rect x="249" y="54" width="13" height="42" rx="6.5" fill="#FF8B7B"/>
<rect x="332" width="13" height="126" rx="6.5" fill="#F0F0F0"/>
<rect x="332" y="54" width="13" height="68" rx="6.5" fill="#FF8B7B"/>
<rect x="415" width="13" height="126" rx="6.5" fill="#F0F0F0"/>
<rect x="415" width="13" height="54" rx="6.5" fill="#2AA316"/>
<rect x="498" width="13" height="126" rx="6.5" fill="#F0F0F0"/>
<rect x="498" y="26" width="13" height="28" rx="6.5" fill="#2AA316"/>
</svg>
