<svg width="16" height="16" viewBox="0 0 16 16" fill="none" xmlns="http://www.w3.org/2000/svg">
<path d="M4 10V13H14V6H12V5H14.359C14.582 5 14.663 5.023 14.744 5.067C14.8249 5.10945 14.8911 5.17532 14.934 5.256C14.977 5.337 15 5.418 15 5.641V13.359C15 13.582 14.977 13.663 14.933 13.744C14.8906 13.8249 14.8247 13.8911 14.744 13.934C14.663 13.977 14.582 14 14.359 14H3.641C3.418 14 3.337 13.977 3.256 13.933C3.17509 13.8906 3.10887 13.8247 3.066 13.744C3.024 13.663 3 13.582 3 13.36V10H4Z" fill="#299FD8"/>
<path d="M12 3H2V10H12V3ZM13 2.641V10.359C13 10.582 12.977 10.663 12.933 10.744C12.8906 10.8249 12.8247 10.8911 12.744 10.934C12.663 10.977 12.582 11 12.359 11H1.641C1.418 11 1.337 10.977 1.256 10.933C1.17509 10.8906 1.10887 10.8247 1.066 10.744C1.024 10.663 1 10.582 1 10.36V2.641C1 2.418 1.023 2.337 1.067 2.256C1.10945 2.17509 1.17532 2.10887 1.256 2.066C1.337 2.024 1.418 2 1.64 2H12.358C12.581 2 12.662 2.023 12.743 2.067C12.8239 2.10945 12.8901 2.17532 12.933 2.256C12.976 2.337 12.999 2.418 12.999 2.641H13Z" fill="#299FD8"/>
<path d="M7 9C6.33696 9 5.70107 8.73661 5.23223 8.26777C4.76339 7.79893 4.5 7.16304 4.5 6.5C4.5 5.83696 4.76339 5.20107 5.23223 4.73223C5.70107 4.26339 6.33696 4 7 4C7.66304 4 8.29893 4.26339 8.76777 4.73223C9.23661 5.20107 9.5 5.83696 9.5 6.5C9.5 7.16304 9.23661 7.79893 8.76777 8.26777C8.29893 8.73661 7.66304 9 7 9ZM7 8C7.39782 8 7.77936 7.84196 8.06066 7.56066C8.34196 7.27936 8.5 6.89782 8.5 6.5C8.5 6.10218 8.34196 5.72064 8.06066 5.43934C7.77936 5.15804 7.39782 5 7 5C6.60218 5 6.22064 5.15804 5.93934 5.43934C5.65804 5.72064 5.5 6.10218 5.5 6.5C5.5 6.89782 5.65804 7.27936 5.93934 7.56066C6.22064 7.84196 6.60218 8 7 8Z" fill="#299FD8"/>
</svg>
